SplineFontDB: 3.2
FontName: Putnik
FullName: Putnik
FamilyName: Putnik
Weight: Regular
Copyright: Copyright (c) 2020, la-ninpre
UComments: "2020-10-19: Created with FontForge (http://fontforge.org)"
Version: 001.022
ItalicAngle: 0
UnderlinePosition: -100
UnderlineWidth: 50
Ascent: 800
Descent: 200
InvalidEm: 0
LayerCount: 2
Layer: 0 0 "Back" 1
Layer: 1 0 "Fore" 0
XUID: [1021 904 -1367037849 17490]
FSType: 0
OS2Version: 0
OS2_WeightWidthSlopeOnly: 0
OS2_UseTypoMetrics: 1
CreationTime: 1603058814
ModificationTime: 1604347432
PfmFamily: 17
TTFWeight: 400
TTFWidth: 5
LineGap: 90
VLineGap: 0
OS2TypoAscent: 0
OS2TypoAOffset: 1
OS2TypoDescent: 0
OS2TypoDOffset: 1
OS2TypoLinegap: 90
OS2WinAscent: 0
OS2WinAOffset: 1
OS2WinDescent: 0
OS2WinDOffset: 1
HheadAscent: 0
HheadAOffset: 1
HheadDescent: 0
HheadDOffset: 1
OS2Vendor: 'PfEd'
Lookup: 258 0 0 "'kern' Horizontal Kerning lookup 1" { "'kern' Horizontal Kerning lookup 1-1" [150,15,2] "'kern' Horizontal Kerning lookup 1-2" [150,15,2] "'kern' Horizontal Kerning lookup 1-3" [150,15,2] "'kern' Horizontal Kerning lookup 1-4" [150,15,2] } ['kern' ('DFLT' <'dflt' > 'cyrl' <'dflt' > 'latn' <'dflt' > ) ]
MarkAttachClasses: 1
DEI: 91125

StartChar: uni0410
Encoding: 176 1040 0
Width: 258
Flags: W
HStem: 500 20G<206.5 215>
VStem: 46.1387 35.999<-30.9408 150.83> 192 29<-0.662472 194.688 248.947 268.646 303.593 358 359.314 434.246> 204 17<-3.60017 92.5617>
LayerCount: 2
Fore
SplineSet
46 -59 m 1xc0
 43 -60 l 1
 43 -62 l 1
 46 -64 l 1
 46 -59 l 1xc0
58 -12 m 1
 57 -19 l 1
 65 -21 l 1
 63 -12 l 1
 58 -12 l 1
185 233 m 0
 176 233 176 225 168 222 c 2
 166 221 l 2
 159 217 141.340820312 214.225585938 142.6875 205.045898438 c 1
 156.484375 209.391601562 175.458007812 208.149414062 187.349609375 217.341796875 c 0
 192.543945312 221.35546875 193 233 185 233 c 0
182.96875 435.069335938 m 1
 164.798828125 400.485351562 123.91796875 366.23828125 105.506835938 331.66796875 c 0
 96.5712890625 314.887695312 82.8359375 296.900390625 78.328125 278.244140625 c 0
 69.7666015625 242.8125 93.2001953125 242.015625 82.1376953125 210.216796875 c 1
 97.6435546875 207.6796875 160.25 231.365234375 176 238 c 0
 182.8359375 240.880859375 185.724609375 241.092773438 189.749023438 248.315429688 c 0
 197.143554688 261.583007812 190.946289062 288.346679688 191.5703125 303.275390625 c 0
 193.14453125 340.879882812 190.541992188 378.014648438 189.612304688 415.291992188 c 0
 189.15625 433.517578125 191.685546875 416.965820312 186.383789062 435.069335938 c 1
 182.96875 435.069335938 l 1
213 520 m 0
 217 520 221 517 223 508 c 0
 228 488 222 465 221 445 c 0xd0
 220 416 221 386 224 358 c 1
 219 358 l 1
 224 331 l 1
 224 329 l 1
 212 313 218 265 218 245 c 0
 219 235 222 223 233 229 c 1
 238 217 230 214 223 205 c 1
 228 205 l 1
 228 203 l 1
 216 196 221 170 221 157 c 0
 220 120 223 67 221 30 c 0xe0
 221 21 228 7 222 -2 c 0
 219 -7 204 -3 204 1 c 0xd0
 201 15 202 30 200 44 c 0
 192 90 197 149 192 195 c 1xe0
 167 189 102 175 86 153 c 1
 84.80859375 151.962890625 l 1
 76.109375 127.860351562 80.59765625 99.3115234375 78.259765625 74.072265625 c 0
 77.3037109375 63.7470703125 75.642578125 48.1298828125 82.1376953125 39.6044921875 c 1
 82.1376953125 37.880859375 l 1
 69.416015625 29.3076171875 80.2724609375 -10.4716796875 79.2548828125 -24.1552734375 c 0
 78.017578125 -40.8056640625 64.3310546875 -33.333984375 58.2392578125 -25.8818359375 c 1
 55.2626953125 -47.90625 51.072265625 -75.0390625 41.169921875 -94.81640625 c 1
 32.6337890625 -89.044921875 38.09375 -79.3935546875 39.6103515625 -70.6875 c 0
 43.3427734375 -49.27734375 44.5205078125 -27.126953125 46.138671875 -5.201171875 c 0
 52.8388671875 85.556640625 54.8408203125 176.204101562 46.2919921875 265.361328125 c 1
 5.3251953125 227.450195312 l 1
 3.2294921875 242.428710938 27.6865234375 269.333007812 35.5205078125 282.75 c 0
 41.927734375 293.719726562 42.83984375 308.6484375 49.4619140625 318.561523438 c 0
 53.521484375 324.637695312 61.150390625 326.87890625 65.607421875 332.733398438 c 0
 104.405273438 384.419921875 150.751953125 423.727539062 176.584960938 482.501953125 c 0
 177.368164062 483.614257812 177.765625 483.771484375 178.178710938 484.258789062 c 2
 178.29296875 484.225585938 l 1
 182.08203125 492.314453125 200 520 213 520 c 0
EndSplineSet
Validated: 37
EndChar

StartChar: uni0411
Encoding: 177 1041 1
Width: 285
Flags: W
HStem: -7.08789 27.8623<83.2093 191.228> 470.53 15.4697<186.979 251.33>
VStem: 44.8389 43.8027<66.8105 195.318 236.954 244.792 323.741 421.703> 47.5664 33.4336<21.5392 74.6875 76.4918 195.318> 104.548 3.47461<447.567 452.78> 190.049 46.5908<34.3935 112.609 113.752 235.978>
LayerCount: 2
Fore
SplineSet
57 509 m 0xec
 69 515 85.5107421875 510.447265625 97.8076171875 500.208007812 c 0
 103.3359375 495.604492188 98.1942037709 498.819171613 101.045898438 493.609375 c 0
 104.594726562 487.125976562 131.344726562 485.086914062 138 486 c 0
 201.038085938 494.645507812 228.626953125 497.91015625 262.1796875 471.51171875 c 1
 262.107421875 469.774414062 l 1
 248.580078125 462.271484375 236.48828125 470.84375 222.110351562 470.530273438 c 0
 193.87109375 469.913085938 173.216796875 453.39453125 144.926757812 456.065429688 c 0
 134.356445312 457.063476562 107.314453125 463.120117188 108.022460938 447.424804688 c 1
 104.547851562 447.567382812 l 1
 104.762695312 452.780273438 l 1
 70.802734375 478.325195312 l 1
 89.5732421875 422.080078125 l 1
 87.2412109375 413.997070312 82.5078125 408.669921875 88.712890625 401.231445312 c 1
 88.6416015625 399.494140625 l 1xec
 83.177734375 392.868164062 84.8056640625 374.559570312 83.6923828125 366.333007812 c 0
 81.673828125 351.40625 82.4150390625 333.947265625 94.7373046875 323.234375 c 0
 99.9736328125 318.678710938 107.309570312 318.604492188 112.544921875 313.96484375 c 0
 128.447265625 299.862304688 140.263671875 286.459960938 162.23046875 282.918945312 c 0
 180.629882812 279.952148438 213.491210938 274.650390625 228.030273438 289.969726562 c 1
 232 287 l 1
 245 239 l 1
 243.110351562 233.65625 l 1
 241.516601562 237.203125 l 1
 235.638671875 211.334960938 232.59375 167.688476562 235.833007812 141.678710938 c 0
 236.686523438 134.830078125 232.6328125 113.965820312 238.451171875 113.725585938 c 1
 226.682617188 89.98046875 236.735351562 61.05859375 236.639648438 36.185546875 c 0
 236.623046875 31.7314453125 231.736328125 19.4228515625 225.390625 23.033203125 c 0
 216.01953125 28.3642578125 198.041992188 48.32421875 190.048828125 56.3447265625 c 1
 197.77734375 68.982421875 194.159179688 96.869140625 194.083007812 111.16796875 c 0
 193.907226562 144.657226562 199.885742188 185.721679688 195.47265625 219.05078125 c 0
 194.064453125 229.685546875 200.25 250.237304688 191.993164062 258.434570312 c 0
 185.409179688 264.971679688 178.939453125 257.056640625 171.629882812 257.657226562 c 0
 162.8359375 258.380859375 151.228515625 264.216796875 142.41796875 266.71484375 c 0
 118.568359375 273.484375 102.305664062 290.90625 83.1044921875 305.483398438 c 1
 72.244140625 272.104492188 104.6328125 251.697265625 132.737304688 242.999023438 c 0
 141.3828125 240.32421875 155.635742188 235.16015625 163.919921875 239.497070312 c 1
 165.657226562 239.424804688 l 1
 172.462890625 235.663085938 l 1
 168.245117188 216.032226562 115.428710938 232.934570312 102.982421875 238.895507812 c 0
 97.8115234375 241.37109375 89.32421875 250.00390625 83.4013671875 245.172851562 c 0
 73.7099609375 237.268554688 78.828125 215.208984375 78.47265625 204.734375 c 0
 77.1484375 165.665039062 81.6142578125 112.956054688 82.9033203125 74.6875 c 1
 81 66 l 1
 80.849609375 59.5341796875 71.1767578125 34.7158203125 82.859375 20.8828125 c 0
 90.0703125 12.34375 113.646484375 21.2822265625 124.188476562 20.7744140625 c 0
 158.59765625 19.1142578125 211.388671875 -5.1689453125 246.455078125 4.455078125 c 1
 249.643554688 -2.638671875 l 1
 237.841796875 -15.3046875 203.944335938 -8.0078125 189.116210938 -8.431640625 c 0
 181.122070312 -8.66015625 174.52734375 -14.5732421875 166.24609375 -14.3955078125 c 0
 144.608398438 -13.9287109375 122.721679688 -7.50390625 100.4140625 -7.087890625 c 0
 88.58203125 -6.8662109375 83.681640625 -15.5029296875 70.5947265625 -12.7412109375 c 0
 60.2529296875 -10.55859375 33.7529296875 -29.115234375 28.3251953125 -14.810546875 c 0
 23.310546875 -1.6005859375 57.1845703125 9.3173828125 63.2353515625 19.8076171875 c 1
 50.67578125 24.193359375 52.3779296875 48.705078125 51.48046875 60.3212890625 c 0
 49.39453125 87.3740234375 47.9912109375 130.197265625 47.56640625 157.279296875 c 0xdc
 47.34375 171.50390625 51.09765625 184.15625 40.294921875 195.8671875 c 1
 43.361328125 200.833007812 51.4677734375 233.874023438 40.2060546875 235.899414062 c 1
 49.9296875 258.40625 45.21875 280.12890625 45.52734375 303.553710938 c 0
 46.115234375 347.96875 45.697265625 398.693359375 44.8388671875 442.848632812 c 0
 44.2763671875 471.784179688 28.9990234375 494.999023438 57 509 c 0xec
EndSplineSet
Validated: 33
EndChar

StartChar: uni0412
Encoding: 178 1042 2
Width: 294
Flags: W
HStem: -37.0049 47.6562<133.469 186.233> 351.036 3.54297<158.638 160.341> 487.111 20G<54.1069 55.4688>
VStem: 41.6631 40.1279<98.3041 185.183 246.1 295.897 302.412 440.378> 45.3555 38.248<302.412 446.396 449.231 450.577> 71.2324 1.77148<36.0195 46.0754> 192.093 39.1025<27.9876 76.6246 76.6504 170.131> 215.254 0<415.46 430.775>
LayerCount: 2
Fore
SplineSet
55.4677734375 507.111328125 m 2xe8
 55.46875 507.111328125 l 2
 57.1025390625 507.20703125 58.7705078125 506.750976562 60.34375 505.548828125 c 0
 78.75 491.48828125 97.9873046875 489.23828125 123.146484375 485.7421875 c 0
 136.251953125 483.920898438 175.456054688 482.7109375 187.206054688 488.963867188 c 0
 194.641601562 492.920898438 198.014648438 508.3359375 208.279296875 506.6328125 c 0
 215.479492188 505.439453125 213.5 493.97265625 215.4375 488.943359375 c 0
 221.357421875 473.58203125 222.616210938 433.004882812 215.25390625 415.459960938 c 1
 215.25390625 430.775390625 l 1xe9
 213.482421875 430.775390625 l 1
 212.145507812 413.830078125 207.056640625 413.952148438 213.482421875 397.633789062 c 1
 208.170898438 395.862304688 l 1
 231.231445312 378.98828125 213.209960938 376.0859375 199.3125 356.3515625 c 1
 224.11328125 359.895507812 l 1
 224.11328125 356.3515625 l 1
 193.966796875 340.946289062 139.79296875 298.59375 132.000976562 266.01171875 c 1
 156.279296875 256.443359375 170.24609375 234.497070312 197.541015625 231.431640625 c 0
 213.170898438 229.67578125 226.4375 254.4453125 236.247070312 245.954101562 c 0
 249.896484375 234.140625 238.341796875 216.045898438 236.280273438 202.244140625 c 0
 230.82421875 165.716796875 222.037109375 113.807617188 231.1953125 76.650390625 c 1
 231.1953125 76.650390625 230.633789062 41.04296875 231.1953125 36.01953125 c 0
 232.662109375 30.2841796875 201.962890625 10.7861328125 192.092773438 22.6455078125 c 0
 188.196289062 27.3291015625 195.032226562 68.8857421875 193.73046875 74.8779296875 c 0
 189.0625 96.361328125 202.674804688 155.1015625 186.938476562 170.903320312 c 1
 206.959960938 216.918945312 181.810546875 204.146484375 158.870117188 218.595703125 c 0
 150.329101562 223.975585938 125.353515625 251.141601562 114.21875 246.668945312 c 0
 104.916015625 242.9296875 88.1728515625 220.232421875 84.3525390625 211.098632812 c 0
 78.6826171875 197.541015625 82.4375 171.502929688 81.791015625 156.733398438 c 0xf2
 80.615234375 129.890625 75.3154296875 62.5205078125 73.00390625 36.01953125 c 1
 71.232421875 36.01953125 l 1
 71.232421875 74.8779296875 l 1
 69.4609375 74.8779296875 l 1
 63.634765625 59.7333984375 60.6533203125 27.5185546875 43.1455078125 17.908203125 c 1
 44.9169921875 12.5927734375 l 1
 73.00390625 14.3642578125 l 1xe4
 73.974609375 9.1552734375 73.6826171875 -2.0205078125 80.3515625 -3.244140625 c 0
 96.0087890625 -6.12109375 117.374023438 13.580078125 132 7 c 0
 163.633789062 -7.2314453125 176 12 230.774414062 10.6513671875 c 0
 238.041992188 10.47265625 252.618164062 18.76953125 255.495117188 11.97265625 c 0
 258.587890625 4.66796875 237.248046875 -1.4638671875 231.282226562 -3.1015625 c 0
 187.583007812 -15.1083984375 150.887695312 -24.8525390625 107.203125 -37.4453125 c 0
 93.8681640625 -41.2890625 63.2333984375 -27.970703125 51.546875 -37.0048828125 c 1
 49.775390625 -37.0048828125 l 1
 34.8271484375 -16.5986328125 43.4326171875 -8.5107421875 43.1455078125 14.3642578125 c 1
 37.833984375 14.3642578125 l 1
 41.5185546875 43.1064453125 l 1
 43.748046875 51.99609375 l 1
 31.833984375 84.21875 l 1
 36.3486328125 114.331054688 l 1
 36.3486328125 116.102539062 l 1
 46.0107421875 128.858398438 41.0078125 165.340820312 41.6630859375 181.642578125 c 1
 41.9033203125 181.563476562 41.6630859375 185.185546875 41.6630859375 185.185546875 c 2xf0
 40.24609375 203.28515625 51.099609375 237.704101562 39.8916015625 252.497070312 c 1
 39.8916015625 254.268554688 l 1
 39.8916015625 256.040039062 l 1
 48.65625 267.55078125 44.5537109375 291.559570312 45.35546875 305.637695312 c 0
 47.9208984375 350.674804688 43.4873046875 403.965820312 43.431640625 448.489257812 c 0
 43.412109375 464.154296875 37.46875 490.158203125 48.21484375 502.98828125 c 0
 50.1240234375 505.266601562 52.74609375 506.951171875 55.4677734375 507.111328125 c 2xe8
171.39453125 458.744140625 m 0
 151.966796875 458.614257812 120.798828125 454.125 106.66015625 451.254882812 c 0
 97.8310546875 449.461914062 89.212890625 450.571289062 84.193359375 441.41015625 c 0
 72.0244140625 419.203125 82.8115234375 409.427734375 81.791015625 385.235351562 c 0xf0
 80.8916015625 363.908203125 83.0830078125 345.767578125 83.603515625 324.466796875 c 0
 83.716796875 319.830078125 81.15234375 304.655273438 86.4658203125 302.291992188 c 0
 93.1845703125 299.303710938 102.98046875 313.403320312 106.748046875 317.245117188 c 0
 118.357421875 329.087890625 143.48828125 355.190429688 160.340820312 354.579101562 c 1
 160.340820312 351.036132812 l 1
 124.135742188 332.874023438 80.0107421875 284.10546875 85.40234375 241.213867188 c 1
 109.663085938 245.038085938 91.8349609375 263.669921875 99.30859375 273.958007812 c 0
 104.249023438 280.758789062 114.303710938 278.502929688 121.000976562 284.58203125 c 0
 136.599609375 298.7421875 153.337890625 340.612304688 174.514648438 343.94921875 c 1
 175.959960938 357.266601562 179.208984375 362.078125 182.727539062 374.604492188 c 0
 185.125976562 383.146484375 180.239257812 393.813476562 180.84375 402.948242188 c 0
 181.475585938 412.53125 182.716796875 425.405273438 173.59765625 431.2890625 c 1
 183.081054688 443.098632812 185.491210938 440.676757812 186.369140625 455.658203125 c 1
 180.282226562 457.961914062 180.225585938 458.803710938 171.39453125 458.744140625 c 0
59.3740234375 228.8125 m 1
 59.3740234375 223.5 l 1
 64.6884765625 225.272460938 l 1
 64.6884765625 227.043945312 l 1
 59.3740234375 228.8125 l 1
EndSplineSet
Validated: 33
EndChar

StartChar: uni0413
Encoding: 179 1043 3
Width: 269
Flags: W
HStem: -52.0654 21G<93.2285 111.884> 490.723 20G<60.498 77>
VStem: 69.9102 33.8281<165.307 243.871 245.785 294.656 312.591 362.741> 78.6904 35.7852<-4.97762 243.871> 78.8477 28.1992<61.2942 243.871 245.785 294.656 312.591 321.626>
LayerCount: 2
Fore
SplineSet
237.706054688 511.810546875 m 1xe0
 239.504882812 511.97265625 241.192382812 511.63671875 242.705078125 510.577148438 c 0
 247.985351562 506.877929688 245.62109375 495.858398438 244.734375 490.182617188 c 0
 241.495117188 469.497070312 232.04296875 448.916015625 226.837890625 428.563476562 c 0
 225.510742188 423.373046875 224.563476562 408.83203125 219.577148438 406.68359375 c 0
 209.791992188 402.46484375 216.01171875 443.93359375 207.251953125 447.783203125 c 0
 200.004882812 450.96875 189.75 444.794921875 182.467773438 443.556640625 c 0
 155.698242188 439.004882812 106.610351562 413.5078125 98.373046875 381.32421875 c 1
 103.73828125 321.758789062 l 1
 103.73828125 319.704101562 l 1
 96.892578125 310.666015625 97.4638671875 296.206054688 103.73828125 286.841796875 c 1
 103.73828125 284.787109375 l 1
 103.73828125 282.732421875 l 1xe0
 98.2705078125 277.618164062 93.951171875 245.76171875 105.528320312 245.76171875 c 1
 92.1494140625 205.682617188 107.046875 149.44140625 107.046875 107.2734375 c 0xc8
 107.046875 93.916015625 103.400390625 68.9189453125 114.475585938 60.90625 c 1
 114.475585938 58.8515625 l 1
 104.174804688 44.3896484375 115.186523438 31.0458984375 115.526367188 15.7255859375 c 0
 115.798828125 3.4755859375 102.86328125 4.8310546875 102.129882812 -5.451171875 c 0
 100.912109375 -22.5029296875 112.872070312 -34.0048828125 110.896484375 -52.0654296875 c 1
 75.560546875 -34.9375 97.486328125 13.9404296875 78.6904296875 42.4169921875 c 1
 78.6904296875 44.470703125 l 1xd0
 78.84765625 81.4423828125 l 1xc8
 75.443359375 165.306640625 l 1
 69.91015625 364.892578125 l 1
 69.2294921875 414.186523438 l 1
 39.326171875 459.375 l 1
 74.341796875 466.350585938 45.884765625 501.0078125 75.111328125 510.72265625 c 1
 78.888671875 502.083984375 79.23046875 483.280273438 86.41015625 477.919921875 c 0
 94.388671875 471.9609375 111.108398438 480.805664062 119.869140625 482.53125 c 0
 152.375976562 488.93359375 179.725585938 497.887695312 212.883789062 500.537109375 c 0
 219.98828125 501.104492188 229.908203125 511.110351562 237.706054688 511.810546875 c 1xe0
224.610351562 496.475585938 m 0
 217.086914062 496.58203125 205.875976562 487.58203125 201.948242188 485.614257812 c 0
 179.678710938 474.453125 134.283203125 478.893554688 121.4296875 450.764648438 c 1
 123.21875 448.709960938 l 1
 155.462890625 456.37109375 181.055664062 472.704101562 214.471679688 476.088867188 c 0
 220.743164062 476.723632812 234.344726562 480.513671875 231.091796875 491.200195312 c 0
 229.935546875 494.999023438 227.5546875 496.43359375 224.610351562 496.475585938 c 0
EndSplineSet
Validated: 33
EndChar

StartChar: uni0414
Encoding: 180 1044 4
Width: 322
Flags: W
VStem: 52.4082 16.2295<-169.212 -101.052> 78.4141 30.542<20.2371 209.227> 201.69 19.2812<344.535 407.209> 210.442 23.5908<47.86 144.152> 234.213 11.6758<-104.913 -70.4884>
LayerCount: 2
Fore
SplineSet
-6 17 m 1xe8
 8.1455078125 40.8232421875 28.3134765625 27.462890625 48.6572265625 22.3330078125 c 0
 56.232421875 20.4228515625 74.3837890625 13.8759765625 78.494140625 24.4462890625 c 0
 84.802734375 40.671875 77.2802734375 54.9580078125 78.4140625 70.7578125 c 0
 82.240234375 124.055664062 82.2724609375 172.014648438 77 222.077148438 c 0
 76.12109375 230.426757812 64.3984375 232.068359375 64.6669921875 240.676757812 c 0
 65.095703125 254.369140625 88.9755859375 269.84375 95.876953125 281.3515625 c 0
 121.013671875 323.26171875 152.392578125 360.227539062 165.817382812 408.833984375 c 0
 171.530273438 429.514648438 177.701171875 459.30859375 185.748046875 477.774414062 c 0
 190.71484375 489.172851562 203.547851562 494.099609375 208.325195312 505.356445312 c 0
 211.41015625 512.627929688 205.811523438 548.46484375 223.959960938 536.639648438 c 0
 239.24609375 526.6796875 225.3671875 485.017578125 226.5390625 469.170898438 c 0
 229.022460938 435.591796875 219.272460938 403.141601562 220.971679688 369.713867188 c 0xe8
 221.747070312 354.454101562 235.676757812 343.8515625 233.271484375 326.991210938 c 0
 230.15625 305.135742188 218.04296875 250.672851562 233.360351562 233.799804688 c 1
 233 228 l 1
 226.291992188 221.9609375 226.994140625 215.712890625 227.982421875 206.986328125 c 1
 230.0703125 210.727539062 l 1
 231.91796875 210.6015625 l 1
 225.779296875 189.53125 226.594726562 167.103515625 227.828125 144.874023438 c 0
 227.631835938 141.044921875 227.840820312 136.866210938 227.106445312 133.276367188 c 0
 225.999023438 115.30859375 224.138671875 85.5615234375 231.272460938 68.927734375 c 0
 233.958007812 62.66015625 242.854492188 50.87109375 234.033203125 45.4990234375 c 0
 224.462890625 39.6669921875 211.981445312 49.427734375 210.442382812 58.43359375 c 0xd8
 206.229492188 83.0732421875 209.07421875 110.98828125 201.0859375 134.77734375 c 0
 192.716796875 159.698242188 198.762695312 194.057617188 198.676757812 220.361328125 c 0
 198.557617188 256.609375 202.700195312 292.750976562 201.690429688 328.873046875 c 0
 200.919921875 356.389648438 196.924804688 380.943359375 201.272460938 408.498046875 c 1
 189.330078125 405.65625 188.8359375 388.708984375 181.712890625 379.041015625 c 0
 167.796875 360.150390625 158.153320312 332.188476562 147.037109375 311.10546875 c 0
 139.485351562 296.784179688 122.2109375 281.885742188 112.901367188 269.990234375 c 0
 106.061523438 261.248046875 90.79296875 246.280273438 105.458984375 239.46484375 c 1
 109.99609375 252.745117188 l 1
 111.842773438 252.620117188 l 1
 111.482421875 246.8203125 l 1
 129.561523438 263.4375 161.893554688 310.415039062 188.173828125 312.594726562 c 1
 188.577148438 289.270507812 l 1
 185.244140625 295.322265625 l 1
 164.712890625 276.462890625 129.99609375 235.887695312 118.223632812 209.681640625 c 0
 113.862304688 199.974609375 117.926757812 190.795898438 115.314453125 179.186523438 c 0
 103.546875 126.916992188 105.260742188 70.6943359375 108.956054688 16.6025390625 c 1
 154.127929688 13.9169921875 208.274414062 19.00390625 253.481445312 20.4921875 c 0
 265.778320312 20.896484375 292.061523438 30.740234375 300.055664062 19.1474609375 c 0
 317.827148438 -6.6318359375 278.109375 0.8232421875 284.46875 -18.17578125 c 1
 284.348632812 -20.1083984375 l 1
 263.321289062 -30.68359375 252.850585938 -65.8564453125 245.888671875 -87.3779296875 c 0
 244.54296875 -91.5390625 240.400390625 -111.688476562 234.54296875 -110.0546875 c 0
 226.624023438 -107.842773438 233.639648438 -88.9814453125 234.212890625 -83.8173828125 c 0
 236.587890625 -62.462890625 244.5703125 -44.0205078125 250.9921875 -23.66015625 c 0
 252.53125 -18.78125 258.455078125 -5.4208984375 255.8828125 -0.7587890625 c 0
 250.94140625 8.197265625 218.07421875 0.521484375 209.481445312 -0.91015625 c 0
 165.86328125 -8.1708984375 113.748046875 1.357421875 72.2001953125 -21.81640625 c 0
 44.3134765625 -37.37109375 69.0537109375 -105.900390625 68.6376953125 -132.41796875 c 0
 68.52734375 -139.375976562 70.1845703125 -167.178710938 61.98046875 -169.33203125 c 0
 51.83203125 -171.997070312 54.1474609375 -139.536132812 52.408203125 -133.25390625 c 0
 41.841796875 -95.0751953125 37.8837890625 -56.751953125 19.1591796875 -20.330078125 c 0
 14.3994140625 -11.0712890625 -9.6689453125 3.3486328125 -7.7265625 10.623046875 c 2
 -7.6064453125 12.5556640625 l 1
 -6 17 l 1xe8
EndSplineSet
Validated: 33
EndChar

StartChar: uni0415
Encoding: 181 1045 5
Width: 288
Flags: W
HStem: 472.505 10.8398<214.226 250.75>
VStem: 36.2363 50.5928<414.105 468.874> 59.7129 24.9756<158.306 227.782 264.364 293.2 323.978 388.208> 75.2793 11.833<89.8483 157.171> 89.2529 2.1416<156.273 166.041>
LayerCount: 2
Fore
SplineSet
73.8017578125 509.626953125 m 1xc8
 94.6845703125 509.099609375 107.9765625 486.0390625 135.223632812 482.377929688 c 0
 150.733398438 480.294921875 177.418945312 478.854492188 192.888671875 480.939453125 c 0
 198.223632812 481.7578125 228.13671875 486.6875 206.875 483.287109375 c 1
 216.434570312 483.344726562 l 2
 227.573242188 483.344726562 241.262695312 485.655273438 250.564453125 477.94921875 c 0
 254.477539062 474.70703125 261.345703125 476.2890625 254.249023438 472.504882812 c 0
 250.06640625 470.275390625 167.274414062 475.704101562 216.434570312 457.858398438 c 1
 201.450195312 444.551757812 l 1
 199.30859375 444.551757812 l 1
 197.166992188 444.551757812 l 1
 180.265625 459.848632812 141.638671875 457.061523438 120.23828125 465.701171875 c 0
 115.029296875 467.803710938 88.447265625 474.604492188 83.6689453125 469.13671875 c 0
 78.9736328125 463.767578125 86.8115234375 443.203125 86.8291015625 435.677734375 c 0xc8
 86.880859375 409.171875 85.1337890625 382.642578125 84.634765625 355.829101562 c 0
 84.4697265625 346.990234375 81.5849609375 330.658203125 88.123046875 323.642578125 c 0
 93.982421875 317.354492188 121.122070312 320.180664062 128.803710938 320.375976562 c 0
 156.868164062 321.087890625 188.296875 333.245117188 216.311523438 328.134765625 c 0
 234.982421875 324.729492188 211.189453125 316.095703125 207.874023438 308.724609375 c 1
 212.654296875 308.666992188 229.862304688 308.181640625 223.390625 298.552734375 c 0
 217.069335938 289.146484375 194.297851562 293.126953125 184.323242188 288.873046875 c 0
 156.518554688 277.008789062 97.966796875 241.83203125 88.6865234375 209.440429688 c 0
 85.4814453125 198.256835938 87.08203125 166.482421875 87.1123046875 154.953125 c 1x98
 89.2529296875 154.953125 l 1
 89.2529296875 166.041015625 l 1
 91.39453125 166.041015625 l 1
 90.1181640625 121.256835938 88.70703125 118.424804688 92.8134765625 72.962890625 c 0
 93.9375 60.5146484375 104.567382812 33.3662109375 118.553710938 27.244140625 c 0
 125.466796875 24.21875 136.86328125 29.6240234375 143.92578125 31.0234375 c 0
 169.977539062 36.19140625 198.29296875 47.3408203125 225 51 c 1
 225 48.7822265625 l 1
 218.576171875 46.5634765625 l 1
 259.251953125 28.8203125 l 1
 251.880859375 10.8251953125 229.724609375 23.2412109375 214.297851562 21.95703125 c 0
 187.778320312 19.7470703125 137.049804688 4.888671875 116.096679688 -11.908203125 c 0
 106.84375 -19.3251953125 81.4697265625 -41.1650390625 67.962890625 -34.5 c 0
 40.2431640625 -20.8193359375 74.4814453125 6.6181640625 67.4208984375 24.1640625 c 1
 76.943359375 25.619140625 70.283203125 57.4345703125 69.66796875 66.306640625 c 0
 66.65234375 109.842773438 77.5078125 113.549804688 75.5615234375 157.170898438 c 1
 67.0009765625 157.170898438 l 1
 71.279296875 115.028320312 l 1
 52.4931640625 108.452148438 59.796875 202.583984375 59.712890625 218.313476562 c 0xa8
 59.48828125 260.41796875 60.419921875 303.315429688 57.04296875 344.741210938 c 0
 55.83203125 359.625976562 48.62109375 374.170898438 47.6591796875 388.8984375 c 0
 47.091796875 397.571289062 55.1572265625 404.489257812 53.9560546875 413.497070312 c 0
 52.22265625 426.532226562 35.607421875 435.681640625 36.236328125 448.796875 c 0
 36.92578125 463.1484375 54.5908203125 462.172851562 56.01171875 478.912109375 c 1
 49.591796875 478.912109375 l 1
 49.591796875 481.130859375 l 1
 57.85546875 486.750976562 54.314453125 493.665039062 49.591796875 501.092773438 c 1
 59.0380859375 507.477539062 66.83984375 509.803710938 73.8017578125 509.626953125 c 1xc8
188.606445312 315.379882812 m 1
 184.41015625 314.5703125 139.700195312 311.670898438 153.684570312 300.283203125 c 0
 160.639648438 294.619140625 184.213867188 305.364257812 192.888671875 306.506835938 c 1
 188.606445312 315.379882812 l 1
84.6884765625 293.200195312 m 1xa8
 84.6884765625 264.364257812 l 1
 97.24609375 262.525390625 121.262695312 275.494140625 126.662109375 286.543945312 c 1
 84.6884765625 293.200195312 l 1xa8
74.5673828125 227.921875 m 1
 73.8544921875 226.4453125 l 1
 74.5673828125 227.921875 l 1
75.279296875 222.74609375 m 1x98
 71.0009765625 218.313476562 l 1
 75.279296875 218.313476562 l 1
 75.279296875 222.74609375 l 1x98
73.4208984375 161.604492188 m 1
 71.279296875 159.389648438 l 1
 73.4208984375 161.604492188 l 1
EndSplineSet
Validated: 37
EndChar

StartChar: uni041A
Encoding: 186 1050 6
Width: 293
Flags: W
HStem: -11.9404 21G<66.0391 83.2646> 498 20G<54.0322 73.6899>
VStem: 37.667 35.5645<373.444 515.29> 47.7979 35.4668<-2.65909 28.4785 30.7835 271.776> 75.6641 2.53418<372.042 376.534> 174.459 55.0488<259.766 315.816> 192.19 37.3174<316.465 355.299>
LayerCount: 2
Fore
SplineSet
244.100585938 520.237304688 m 1xe8
 246.875976562 520.100585938 249.939453125 518.453125 253.34375 514.779296875 c 0
 271.912109375 494.747070312 237.740234375 461.969726562 224.44140625 448.379882812 c 0
 205.315429688 428.841796875 153.232421875 392.46875 155.841796875 363.19140625 c 0
 156.6015625 354.625 167.010742188 354.873046875 172.8125 350.17578125 c 0
 184.337890625 340.838867188 184.262695312 325.180664062 197.2578125 315.90234375 c 1
 200.221679688 327.883789062 199.004882812 341.02734375 192.190429688 351.833007812 c 1
 218.256835938 381.9921875 229.3046875 348.270507812 229.5078125 324.885742188 c 0xea
 230.141601562 255.901367188 231.228515625 183.6796875 245.388671875 116.053710938 c 1
 235.258789062 113.807617188 l 1
 233.637695312 80.5498046875 249.721679688 50.4091796875 278.67578125 28.306640625 c 0
 288.099609375 21.123046875 332.935546875 11.62109375 331.060546875 -0.2421875 c 0
 328.6796875 -15.3408203125 283.286132812 0.2216796875 273.254882812 1.53125 c 1
 279.360351562 -10.03125 313.251953125 -30.2099609375 313.251953125 -38.6513671875 c 0
 313.251953125 -57.88671875 277.584960938 -32.5927734375 273.53125 -29.58984375 c 0
 249.998046875 -12.154296875 228.620117188 23.36328125 217.9296875 48.6875 c 0
 188.874023438 117.500976562 191.100585938 196.248046875 166.858398438 264.2578125 c 1
 169.391601562 264.2578125 l 1
 174.458984375 259.765625 l 1
 174.458984375 284.311523438 160.171875 302.99609375 149.126953125 324.885742188 c 1
 162.350585938 321.955078125 146.900390625 340.01953125 138.997070312 340.603515625 c 0
 128.991210938 341.341796875 124.453125 325.252929688 121.260742188 320.393554688 c 0
 111.963867188 306.26953125 98.9970703125 289.661132812 88.33203125 275.483398438 c 0
 65.2548828125 244.814453125 78.197265625 214.768554688 78.197265625 178.927734375 c 0
 78.197265625 132.783203125 77.8701171875 85.775390625 90.8662109375 39.7080078125 c 0
 97.3505859375 16.71484375 83.2646484375 5.6064453125 83.2646484375 -11.9404296875 c 1
 48.8134765625 -7.806640625 38.4501953125 -0.5400390625 47.7978515625 28.478515625 c 1xd4
 40.201171875 28.478515625 l 1
 46.078125 77.6728515625 42.958984375 125.486328125 44.2509765625 174.436523438 c 0
 45.1376953125 207.04296875 51.1435546875 242.048828125 37.6669921875 273.241210938 c 1
 42.302734375 272.212890625 48.916015625 316.427734375 45.2685546875 329.377929688 c 0
 32.5263671875 374.53515625 51.2705078125 424.82421875 37.6669921875 473.08984375 c 0
 32.55078125 491.224609375 45.064453125 515.350585938 63 518 c 1
 84.3798828125 498.677734375 74.5234375 487.826171875 73.2314453125 461.864257812 c 0
 71.7119140625 431.6015625 73.1298828125 401.965820312 73.1298828125 372.041992188 c 1
 75.6640625 372.041992188 l 1
 75.6640625 376.534179688 l 1
 78.1982421875 376.534179688 l 1
 73.1298828125 324.885742188 l 1
 87.5947265625 331.35546875 85.1123046875 345.448242188 96.2578125 354.998046875 c 0
 139.170898438 391.732421875 173.702148438 433.09765625 215.348632812 471.157226562 c 0
 222.465820312 477.659179688 229.110351562 520.98046875 244.100585938 520.237304688 c 1xe8
225.124023438 167.703125 m 1
 222.590820312 147.489257812 l 1
 227.658203125 147.489257812 l 1
 232.720703125 160.96484375 l 1
 225.124023438 167.703125 l 1
EndSplineSet
Validated: 33
EndChar

StartChar: uni0423
Encoding: 195 1059 7
Width: 308
Flags: W
VStem: 40 26.7363<9.28848 46.3687 404.411 492.071> 222 34.1797<263 432.522> 225.726 39.9268<265.616 453.131>
LayerCount: 2
Fore
SplineSet
64.0986328125 504.053710938 m 0xc0
 65.029296875 504.114257812 66.0009765625 503.984375 67.015625 503.638671875 c 0
 75.8173828125 500.634765625 71.109375 482.346679688 72.2578125 476.243164062 c 0
 75.30859375 453.430664062 74.3896484375 412.83203125 83.548828125 393.775390625 c 1
 81.951171875 378.591796875 74.0810546875 360.775390625 85.2099609375 345.272460938 c 0
 91.740234375 336.137695312 120.526367188 335.42578125 132.298828125 329.4921875 c 0
 154.66796875 318.208984375 177.143554688 303.922851562 194.55078125 288.908203125 c 0
 204.473632812 280.33984375 207.95703125 268.326171875 222 263 c 1xc0
 222 318.33984375 220.848632812 404.201171875 225.725585938 459.422851562 c 0
 227.18359375 475.776367188 216.6484375 504.16015625 244.483398438 513.065429688 c 0
 258.162109375 517.438476562 260.877929688 503.284179688 269.65234375 499.286132812 c 1
 262.02734375 486.564453125 250.010742188 463.768554688 265.65234375 453.442382812 c 1
 260.438476562 446.775390625 259.008789062 441.762695312 265.65234375 435.504882812 c 1
 265.65234375 433.510742188 l 1xa0
 246.05859375 413.2421875 258.505859375 339.322265625 256.1796875 314.740234375 c 0
 250.237304688 251.924804688 255.3359375 173.192382812 252.92578125 110.47265625 c 0
 251.916015625 84.564453125 259.403320312 60.9033203125 250.91015625 34.7333984375 c 0
 243.845703125 13.087890625 192.370346558 -4.25003796534 165.685546875 -14.662109375 c 0
 150.100585938 -20.7431640625 146 -27 130 -41 c 0
 129.853498193 -41.1281890814 132.673971248 -39.2116880606 118 -50 c 0
 113.153248041 -53.563334774 98.6290110474 -52.3698682837 93 -50 c 0
 81.0263671875 -44.958984375 82 -48 70 -43 c 1
 62 -32 l 1
 59 -30 l 1
 52 -25 46 -23 43 -14 c 1
 45 -6 40.1325195287 3.39755858609 42 9 c 0
 44 15 40 31 40 31 c 2
 38 56 l 1
 38.201171875 66.09375 39.9308863472 66.2159771587 34.19140625 83.6162109375 c 0
 32.033203125 90.1591796875 28.3330078125 108.177734375 42.8818359375 109.684570312 c 0
 60.5126953125 111.505859375 66.0361328125 90.037109375 66.736328125 81.8017578125 c 0
 68.4189453125 61.5556640625 64.6337890625 -1.4462890625 93.5615234375 -12.4287109375 c 0
 113.520507812 -20.0078125 146.903320312 6.7978515625 160.330078125 14.2119140625 c 0
 216.87890625 45.7294921875 234 67 219.638671875 167.329101562 c 1
 209.295898438 204.100585938 150.688476562 233.690429688 109.875 252.61328125 c 0
 86.63671875 263.387695312 48.2060546875 264.780273438 56.615234375 290.90234375 c 1
 70.6337890625 290.90234375 l 1
 63.9345703125 299.978515625 50.0576171875 306.4140625 46.666015625 316.814453125 c 0
 42.6298828125 329.122070312 54.4326171875 343.83203125 54.095703125 356.677734375 c 0
 53.19921875 390.415039062 46.9482421875 418.345703125 45.7705078125 452.325195312 c 0
 45.5341796875 459.123046875 50.1484375 503.143554688 64.0986328125 504.053710938 c 0xc0
97.58203125 309.1640625 m 0
 87.3447265625 308.966796875 78.658203125 304.314453125 73.4375 292.895507812 c 1
 202 235 l 1
 204.803710938 236.993164062 l 1
 197.82421875 254.20703125 128.295878919 309.755896634 97.58203125 309.1640625 c 0
EndSplineSet
Validated: 33
EndChar

StartChar: uni0416
Encoding: 182 1046 9
Width: 390
Flags: W
HStem: -75.7393 20G<36.207 40.7964> -53.5547 21G<38.2183 48.5205> 177.938 2.18359<68.8584 71.082> 348.284 19.6543<217.775 222.944>
VStem: 39.9629 2.22266<-53.5547 -52.6796> 180.812 19.1367<20.1531 113.449> 188.213 29.5381<449.575 525.363> 340.019 2.22363<101.501 104.312>
LayerCount: 2
Fore
SplineSet
201.435546875 527.521484375 m 2xfb
 201.436523438 527.521484375 l 2
 203.4765625 527.5 205.52734375 526.909179688 207.438476562 525.583007812 c 0
 214.017578125 521.016601562 215.487304688 508.336914062 219.999023438 501.630859375 c 1
 217.750976562 455.80078125 l 1xfb
 217.775390625 367.938476562 l 1
 274.49609375 376.323242188 279.741210938 445.966796875 309.080078125 482.580078125 c 0
 329.127929688 507.600585938 359.2890625 519.806640625 338.795898438 478.583007812 c 1
 352.129882812 474.213867188 l 1
 342.639648438 455.08984375 317.5234375 443.90625 304.854492188 425.974609375 c 0
 285.05078125 397.998046875 284.69921875 365.704101562 282.231445312 335.181640625 c 1
 305.569335938 334.056640625 306.12109375 302.4921875 326.680664062 300.240234375 c 1
 326.680664062 298.055664062 l 1
 318.479492188 280.879882812 323.127929688 272.602539062 302.235351562 289.318359375 c 1
 303.168945312 224.301757812 326.461914062 161.420898438 342.2421875 101.500976562 c 1
 340.018554688 101.500976562 l 1
 340.018554688 105.870117188 l 1
 337.795898438 105.870117188 l 1
 338.084960938 73.0478515625 355.822265625 12.5361328125 380.404296875 -10.6572265625 c 0
 396.896484375 -26.21484375 415.629882812 -44.01953125 433.567382812 -58.470703125 c 0
 444.19140625 -67.0185546875 458.240234375 -71.6748046875 464.486328125 -84.1318359375 c 1
 434.791992188 -91.240234375 376.556640625 -35.2109375 371.133789062 -7.69140625 c 1
 327.05859375 -3.01171875 322.727539062 47.1826171875 315.059570312 79.662109375 c 0
 295.322265625 163.0703125 287.676757812 256 257.782226562 335.181640625 c 1
 251.112304688 335.181640625 l 1
 242.666992188 315.939453125 197.015625 305.341796875 217.775390625 278.401367188 c 1
 217.775390625 276.216796875 l 1
 213.374023438 270.41796875 213.374023438 266.724609375 217.775390625 260.92578125 c 1
 217.775390625 258.74609375 l 1
 217.775390625 256.561523438 l 1
 206.684570312 242.189453125 213.794921875 212.767578125 213.239257812 195.412109375 c 0
 212.083984375 159.108398438 210.193359375 122.426757812 207.63671875 86.21484375 c 0
 207.103515625 78.78515625 199.993164062 73.88671875 199.948242188 65.9375 c 0
 199.814453125 43.759765625 215.129882812 14.498046875 211.951171875 -5.4697265625 c 0
 210.0625 -17.4462890625 194.947265625 -17.322265625 188.30078125 -9.2158203125 c 0
 178.543945312 2.681640625 180.58984375 20.1103515625 180.811523438 33.798828125 c 0xfd
 181.345703125 65.9306640625 182.124023438 98.1787109375 180.791015625 129.893554688 c 0
 180.256835938 142.235351562 186.880859375 166.564453125 175.545898438 173.572265625 c 1
 175.545898438 175.756835938 l 1
 183.724609375 176.791992188 182.966796875 192.33203125 184.43359375 199.776367188 c 0
 186.611328125 210.749023438 194.548828125 217.96875 193.326171875 230.353515625 c 0
 192.326171875 240.397460938 183.74609375 250.840820312 185.168945312 260.92578125 c 0
 186.102539062 267.526367188 197.94921875 295.565429688 183.702148438 298.418945312 c 0
 179.590820312 299.23828125 159.231445312 279.791992188 155.541992188 276.216796875 c 0
 131.892578125 253.327148438 119.465820312 223.953125 110.353515625 193.227539062 c 0
 106.930664062 181.694335938 94.3505859375 176.383789062 102.196289062 164.834960938 c 1
 92.7275390625 155.73046875 91.3935546875 138.9765625 97.75 127.709960938 c 1
 70.87890625 104.41796875 103.619140625 49.9609375 64.412109375 31.6181640625 c 1
 71.8583984375 9.853515625 54.85546875 -35.3017578125 42.185546875 -53.5546875 c 1
 39.962890625 -53.5546875 l 1
 36.4736328125 -26.34765625 47.166015625 -3.2822265625 52.4560546875 22.880859375 c 0
 59.5234375 57.775390625 66.1015625 97.962890625 68.0126953125 133.334960938 c 0
 68.4130859375 140.850585938 60.611328125 146.25 58.69921875 153.294921875 c 0
 53.7880859375 171.434570312 54.7451171875 192.982421875 61.1904296875 210.698242188 c 0
 71.92578125 240.298828125 86.3740234375 276.189453125 103.977539062 302.420898438 c 0
 114.490234375 318.055664062 135.291992188 339.255859375 136.358398438 359.206054688 c 0
 137.291992188 376.838867188 117.821289062 391.877929688 106.86328125 403.076171875 c 0
 94.3505859375 415.87890625 80.126953125 441.314453125 66.8134765625 454.0625 c 0
 51.9443359375 468.286132812 35.3857421875 469.083984375 31.962890625 493.869140625 c 1
 34.185546875 493.869140625 l 1
 36.4091796875 487.3203125 l 1
 53.123046875 537.657226562 75.4384765625 491.6875 98.642578125 474.213867188 c 1
 100.865234375 474.213867188 l 1
 115.1796875 452.403320312 142.739257812 386.077148438 171.188476562 379.232421875 c 0
 201.349609375 371.975585938 185.922851562 437.697265625 182.2109375 453.583007812 c 1
 179.991210938 449.213867188 l 1
 177.768554688 449.213867188 l 1
 180.1015625 456.954101562 187.30078125 462.9140625 188.212890625 471.057617188 c 0
 189.87890625 485.8515625 183.190429688 501.921875 187.61328125 516.8203125 c 0
 189.313476562 522.52734375 195.31640625 527.5859375 201.435546875 527.521484375 c 2xfb
217.775390625 348.284179688 m 1
 217.775390625 341.73046875 l 1
 224.440429688 341.73046875 l 1
 224.440429688 348.284179688 l 1
 217.775390625 348.284179688 l 1
176.3828125 330.9296875 m 0
 170.192382812 331.094726562 160.395507812 327.71484375 149.293945312 319.908203125 c 0
 137.82421875 311.858398438 124.044921875 287.596679688 122.200195312 274.032226562 c 1
 133.579101562 277.16796875 139.6484375 285.875 148.873046875 292.60546875 c 0
 154.673828125 296.842773438 160.962890625 300.165039062 166.653320312 304.61328125 c 0
 187.00390625 320.53125 186.700195312 330.65625 176.3828125 330.9296875 c 0
68.8583984375 191.04296875 m 1
 68.8583984375 180.12109375 l 1
 71.08203125 180.12109375 l 1
 73.3046875 191.04296875 l 1
 68.8583984375 191.04296875 l 1
66.6357421875 177.9375 m 1
 71.08203125 171.388671875 l 1
 71.08203125 177.9375 l 1
 66.6357421875 177.9375 l 1
346.688476562 1.0419921875 m 1
 348.908203125 -1.142578125 l 1
 346.688476562 1.0419921875 l 1
371.133789062 -3.3271484375 m 1
 368.911132812 -5.51171875 l 1
 371.133789062 -3.3271484375 l 1
42.185546875 -55.7392578125 m 1
 39.4072265625 -67.689453125 30.3603515625 -97.2763671875 15.513671875 -95.048828125 c 1
 19.55859375 -83.56640625 30.228515625 -59.53515625 42.185546875 -55.7392578125 c 1
EndSplineSet
Validated: 41
EndChar

StartChar: uni0417
Encoding: 183 1047 10
Width: 307
Flags: W
HStem: -45.7891 21G<137.959 149.167 149.167 164.044> 369.127 16.457<266.945 269.884> 478.78 20G<130.149 136.578> 498.78 0.597656G<130.149 137.834 152.051 156.896>
VStem: 44.1836 14.0596<123.648 133.711> 74.9424 2.07031<12.0615 20.2354>
LayerCount: 2
Fore
SplineSet
133.631835938 519.377929688 m 1xec
 142.036132812 519.180664062 147.057617188 522.71875 152.05078125 514.259765625 c 1
 156.407226562 518.184570312 l 1
 157.068359375 491.158203125 l 1
 163.388671875 492.903320312 l 1
 175.651367188 466.311523438 187.90625 443.65625 204.90625 420.1328125 c 0
 210.666015625 412.1640625 218.578125 398.653320312 229.013671875 398.106445312 c 1
 233.762695312 378.374023438 255.0859375 387.853515625 269.883789062 385.583984375 c 1
 270.100585938 389.725585938 l 1
 282.548828125 384.391601562 281.612304688 368.741210938 266.9453125 369.126953125 c 1
 264.331054688 358.8828125 l 1
 255.033203125 359.193359375 248.033203125 353.946289062 244.936523438 345.365234375 c 2
 231.861328125 333.591796875 l 1
 229.791015625 333.700195312 l 1
 208.326171875 320.291992188 l 2
 203.9140625 312.862304688 200.013671875 308.1328125 191.109375 308.736328125 c 1
 191.244140625 295.961914062 192.885742188 287.604492188 206.372070312 283.020507812 c 1
 206.263671875 280.950195312 l 2
 201.919921875 276.439453125 217.984375 259.819335938 223.706054688 257.196289062 c 2
 242.784179688 225.052734375 l 1
 251.173828125 226.689453125 l 1
 268.0078125 209.572265625 l 1
 257.002929688 197.69140625 l 1
 264.916992188 195.918945312 267.279296875 192.46875 268.775390625 184.6171875 c 1
 276.918945312 184.1796875 279.892578125 181.032226562 282.728515625 173.50390625 c 1
 269.217773438 153.44921875 l 1
 263.223632812 157.916992188 l 1
 254.506835938 150.067382812 l 1
 246.333984375 152.572265625 l 1
 248.079101562 146.252929688 l 1
 239.1640625 144.561523438 234.5546875 139.137695312 232.716796875 130.447265625 c 1
 217.787109375 122.923828125 l 1
 219.533203125 116.602539062 l 1
 212.779296875 106.576171875 l 1
 225.311523438 107.995117188 l 1
 222.262695312 89.46875 l 1
 202.9765625 78.021484375 l 1
 201.123046875 82.2724609375 l 1
 199.053710938 82.380859375 l 1
 200.580078125 71.91796875 l 1
 169.421875 32.025390625 l 1
 173.455078125 29.73828125 l 1
 173.23828125 25.595703125 l 1
 156.500976562 6.7021484375 179.35546875 -38.447265625 148.733398438 -45.7890625 c 1
 149.166992188 -37.505859375 l 1
 138.489257812 -43.17578125 l 1
 137.428710938 -37.4189453125 137.985351562 -29.9833984375 135.24609375 -24.76171875 c 0
 129.61328125 -14.03125 104.067382812 -2.8447265625 93.03515625 0.7314453125 c 2
 83.1171875 9.5576171875 l 1
 85.513671875 15.66015625 l 1
 79.193359375 13.9140625 l 1
 79.5185546875 20.1259765625 l 1
 77.447265625 20.2353515625 l 1
 77.0126953125 11.953125 l 1
 74.9423828125 12.0615234375 l 1
 73.4140625 22.5234375 l 1
 69.1650390625 20.6689453125 l 1
 63.279296875 27.20703125 l 1
 54.0107421875 48.455078125 l 1
 50.5205078125 61.0966796875 l 1
 40.5947265625 62.8603515625 38.3505859375 80.0947265625 39.5078125 88.6650390625 c 2
 39.6162109375 90.736328125 l 1
 35.3671875 88.8818359375 l 1
 34.2724609375 107.625976562 l 1
 42.447265625 105.12109375 l 1
 36.560546875 111.658203125 l 1
 45.4931640625 123.6484375 l 1
 44.18359375 138.251953125 l 1
 58.2431640625 129.208984375 l 1
 57.8095703125 120.926757812 l 1
 64.2373046875 124.741210938 l 1
 59.4443359375 112.53515625 l 1
 66.2724609375 110.795898438 62.5556640625 104.499023438 60.6474609375 95.8623046875 c 1
 68.9306640625 95.4287109375 l 1
 66.42578125 87.25390625 l 1
 72.529296875 84.8583984375 l 1
 70.1328125 78.7548828125 l 1
 76.1337890625 74.3544921875 76.92578125 71.2041015625 75.583984375 63.935546875 c 1
 82.0146484375 67.75 l 1
 82.9716796875 61.638671875 84.876953125 54.8974609375 91.71484375 54.7841796875 c 1
 89.3193359375 48.6806640625 l 1
 95.6396484375 50.4267578125 l 1
 97.2763671875 42.03515625 l 1
 99.34765625 41.9267578125 l 1
 99.6728515625 48.138671875 l 1
 101.744140625 48.029296875 l 1
 111.01171875 26.7822265625 l 1
 113.08203125 26.673828125 l 1
 113.515625 34.955078125 l 1
 115.5859375 34.8466796875 l 1
 119.29296875 26.3486328125 l 1
 121.36328125 26.2392578125 l 1
 119.509765625 30.48828125 l 1
 125.288085938 21.880859375 l 1
 142.721679688 37.578125 l 1
 141.192382812 48.0390625 l 1
 147.405273438 47.7138671875 l 1
 150.236328125 62.0986328125 l 1
 152.305664062 61.990234375 l 1
 152.087890625 57.8486328125 l 1
 154.159179688 57.740234375 l 1
 170.389648438 90.111328125 l 1
 164.178710938 90.4365234375 l 1
 168.861328125 100.572265625 l 1
 170.932617188 100.463867188 l 1
 174.857421875 96.1064453125 l 1
 171.916015625 109.673828125 187.99609375 134.0703125 201.875 136.215820312 c 1
 200.23828125 144.607421875 l 1
 208.520507812 144.172851562 l 1
 226.711914062 174.36328125 l 1
 239.787109375 186.135742188 l 1
 221.693359375 197.465820312 l 1
 221.4765625 193.325195312 l 1
 207.8515625 210.649414062 l 1
 191.01953125 227.765625 l 1
 193.5234375 235.940429688 l 1
 187.565429688 236.21484375 188.591796875 240.23828125 191.887695312 244.330078125 c 1
 181.3828125 250.478515625 171.201171875 254.466796875 174.444335938 268.083984375 c 1
 170.73828125 276.583007812 l 1
 155.952148438 269.134765625 142.819335938 257.724609375 139.795898438 240.83203125 c 1
 135.763671875 243.118164062 l 1
 134.006835938 234.374023438 127.81640625 227.92578125 118.439453125 229.493164062 c 1
 116.04296875 223.390625 l 1
 113.97265625 223.499023438 l 1
 96.66796875 240.334960938 106.329101562 246.505859375 112.109375 267.198242188 c 1
 120.827148438 275.045898438 l 1
 122.897460938 274.9375 l 1
 122.680664062 270.796875 l 1
 124.75 270.688476562 l 1
 145.555664062 311.124023438 l 1
 155.91015625 310.581054688 l 1
 151.875976562 312.869140625 l 1
 151.985351562 314.939453125 l 1
 170.450195312 322.2890625 187.361328125 339.888671875 200.688476562 354.3203125 c 0
 206.213867188 360.3046875 211.338867188 363.748046875 213.109375 371.948242188 c 1
 204.827148438 372.3828125 l 1
 202.322265625 364.208984375 l 1
 200.251953125 364.317382812 l 1
 198.3984375 368.56640625 l 1
 184.997070312 350.58203125 l 1
 178.893554688 352.978515625 l 1
 176.71484375 351.015625 l 1
 178.458984375 344.696289062 l 1
 176.388671875 344.8046875 l 1
 148.711914062 331.721679688 l 1
 121.803710938 293.681640625 l 1
 100.336914062 280.272460938 l 1
 107.41796875 296.51171875 l 1
 116.025390625 302.290039062 l 1
 113.954101562 302.3984375 l 1
 113.737304688 298.256835938 l 1
 111.666992188 298.365234375 l 1
 114.170898438 306.541015625 l 1
 127.6796875 326.594726562 l 1
 129.534179688 322.34375 l 1
 131.604492188 322.235351562 l 1
 133.07421875 333.807617188 139.57421875 340.7734375 151.325195312 341.965820312 c 1
 148.921875 356.248046875 163.063476562 364.68359375 175.513671875 367.689453125 c 1
 173.984375 378.15234375 l 1
 176.055664062 378.04296875 l 1
 177.908203125 373.79296875 l 1
 191.526367188 395.918945312 l 1
 172.526367188 401.762695312 159.666015625 430.014648438 154.7890625 447.674804688 c 1
 143.231445312 449.684570312 140.015625 465.26953125 139.634765625 475.4609375 c 1
 137.564453125 475.569335938 l 1
 98.6748046875 407.013671875 l 1
 96.603515625 407.122070312 l 1
 96.8203125 411.263671875 l 1
 94.75 411.373046875 l 1
 66.8642578125 354.697265625 l 1
 49.4306640625 339.000976562 l 1
 32.640625 343.323242188 33.9072265625 356.235351562 34.4951171875 370.927734375 c 1
 42.77734375 370.493164062 l 1
 45.7158203125 386.950195312 l 1
 58.556640625 405.149414062 l 1
 103.419921875 472.361328125 l 1
 123.720703125 488.75390625 l 1
 121.975585938 495.07421875 l 1
 130.149414062 492.568359375 l 1
 130.475585938 498.780273438 l 1
 136.578125 496.383789062 l 1
 133.631835938 519.377929688 l 1xec
EndSplineSet
Validated: 37
EndChar

StartChar: uni0418
Encoding: 184 1048 11
Width: 326
Flags: W
HStem: 465.918 8.55273<260.538 266.373>
VStem: 48.6777 27.0068<-10.9247 138.272 246.02 303.657> 57.4434 26.7178<248.004 514.272> 234.104 26.127<450.731 474.25 474.471 488.19 488.191 503.202> 234.471 40.4287<1.56827 91.0909 123.415 149.965> 267.97 2.04883<157.966 164.303>
LayerCount: 2
Fore
SplineSet
67.79296875 516.30859375 m 1xa0
 90.498046875 512.970703125 77.677734375 384.473632812 84.1611328125 359.458007812 c 1
 86.609375 323.159179688 77.3134765625 280.784179688 82.44140625 246.01953125 c 1
 102.30078125 258.705078125 115.235351562 277.913085938 133.413085938 292.333007812 c 0
 171.861328125 322.84375 233.541992188 343.518554688 234.103515625 399.037109375 c 0
 234.2578125 413.587890625 244.401367188 457.561523438 231.55078125 466.950195312 c 1
 231.627929688 469.088867188 l 1
 236.41796875 488.190429688 l 1
 236.41796875 488.190429688 236.052734375 489.466796875 236.495117188 490.330078125 c 0
 234.240234375 502.909179688 244.75 517.350585938 255.65625 503.528320312 c 0
 261.05078125 496.673828125 260.208007812 482.958984375 260.538085938 474.470703125 c 1
 266.680664062 474.25 l 1
 266.373046875 465.697265625 l 1
 260.23046875 465.91796875 l 1
 260.541015625 457.434570312 262.315429688 453.817382812 269.931640625 450.579101562 c 1
 271.3671875 352.8046875 l 1
 272 327 l 1
 271.922851562 324.861328125 l 1
 262.806640625 313.192382812 273.833007812 303.27734375 271.859375 290.599609375 c 0
 264.69921875 244.936523438 265.758789062 203.692382812 270.018554688 157.891601562 c 1
 267.969726562 157.965820312 l 1xb4
 268.200195312 164.37890625 l 1
 266.151367188 164.453125 l 1
 263.063476562 123.668945312 261.409179688 82.2685546875 265.787109375 41.4921875 c 0
 266.833984375 31.806640625 274.760742188 24.0712890625 274.899414062 14.2314453125 c 0
 275.045898438 4.0673828125 266.111328125 -5.9951171875 256.358398438 -0.025390625 c 0
 230.047851562 16.0751953125 250.405273438 61.4921875 234.470703125 82.0751953125 c 1
 234.547851562 84.2109375 l 1
 244.544921875 96.9873046875 241.8671875 123.37109375 232.30078125 135.69140625 c 1
 232.377929688 137.830078125 l 1
 248.685546875 158.384765625 238.641601562 216.729492188 238.401367188 242.549804688 c 0
 238.331054688 250.870117188 242.517578125 272.599609375 231.000976562 273.451171875 c 0
 214.001953125 274.709960938 198.026367188 249.104492188 186.15234375 239.465820312 c 0
 156.130859375 215.1328125 134.0625 188.995117188 108.80859375 160.349609375 c 0
 100.875976562 151.345703125 87.884765625 149.947265625 82.1142578125 138.912109375 c 0
 74.9990234375 125.288085938 76.5048828125 109.013671875 75.6845703125 94.2109375 c 0
 74.15234375 65.8603515625 81.9912109375 43.2060546875 75.1923828125 14.9912109375 c 0
 73.072265625 6.2548828125 74.056640625 -11.4453125 60.98828125 -10.9755859375 c 0
 52.3232421875 -10.6640625 48.501953125 4.4658203125 48.677734375 11.6611328125 c 0xc8
 49.5283203125 44.4130859375 50.4248046875 76.767578125 48.8369140625 110.166015625 c 0
 44.0673828125 210.18359375 44.7294921875 326.409179688 57.443359375 426.098632812 c 0
 60.212890625 447.776367188 57.20703125 470.7578125 57.7216796875 492.478515625 c 0
 57.892578125 500.09375 54.5595703125 514.01953125 65.279296875 516.124023438 c 0
 66.1806640625 516.301757812 67.0166015625 516.359375 67.79296875 516.30859375 c 1xa0
229.290039062 337.104492188 m 1
 214.62890625 332.068359375 207.538085938 319.626953125 195.497070312 310.479492188 c 0
 160.176757812 283.65234375 110.357421875 246.08203125 93.2685546875 204.940429688 c 1
 89.4013671875 211.501953125 l 1
 76.1123046875 184.141601562 l 1
 92.41015625 179.369140625 103.833007812 197.526367188 114.743164062 207.755859375 c 0
 142.803710938 234.048828125 174.274414062 254.831054688 204.608398438 278.176757812 c 0
 214.2265625 285.5703125 232.22265625 289.16796875 238.088867188 300.579101562 c 0
 243.293945312 310.711914062 231.85546875 326.8828125 229.290039062 337.104492188 c 1
EndSplineSet
Validated: 33
EndChar

StartChar: uni041E
Encoding: 190 1054 12
Width: 328
Flags: W
VStem: 36.5723 2.67969<242.588 246.949> 42.1982 31.8828<6.59236 181.154> 236.146 51.0986<245.31 371.171> 247.077 34.2607<110.015 256.526>
LayerCount: 2
Fore
SplineSet
267.149414062 511.5234375 m 1xd0
 272.26171875 449.478515625 268.315429688 467.844726562 272.64453125 419.696289062 c 0
 275.859375 403.076171875 263.018554688 382.686523438 285.8984375 372.196289062 c 1
 278.048828125 350.286132812 265.251953125 330.3359375 273.047851562 306.833984375 c 0
 275.727539062 298.797851562 286.334960938 295.5546875 287.245117188 287.0546875 c 0xe0
 291.291015625 248.879882812 278.421875 207.911132812 279.305664062 169.62890625 c 0
 279.626953125 155.834960938 284.84765625 149.111328125 281.337890625 134.958007812 c 0
 274.319335938 106.486328125 242.604492188 79.625 222.966796875 56.4423828125 c 0
 207.803710938 38.57421875 180.690429688 19.474609375 162.392578125 3.6865234375 c 0
 131.717773438 -22.7802734375 101.7890625 -24.7041015625 72.427734375 -51.8798828125 c 0
 65.033203125 -58.7294921875 50.5908203125 -68.623046875 41 -58 c 0
 27.4169921875 -42.9443359375 58.4658203125 -42.451171875 59.3310546875 -28.48046875 c 0
 60.482421875 -9.8955078125 53.3720703125 11.7568359375 50.55859375 30.3818359375 c 0
 44.71875 69.1474609375 45.5732421875 109.004882812 42.1982421875 148.11328125 c 0
 40.5908203125 166.881835938 51.4404296875 213.526367188 36.572265625 229.508789062 c 1
 36.572265625 231.689453125 l 1
 41.931640625 246.94921875 l 1
 39.251953125 246.94921875 l 1
 39.251953125 242.587890625 l 1
 36.572265625 242.587890625 l 1
 33.892578125 251.309570312 l 1
 53.744140625 261.78515625 31.322265625 273.270507812 41.931640625 285.731445312 c 1
 20.2314453125 302.625 62.98828125 364.982421875 90.1533203125 368.575195312 c 1
 84.7939453125 375.1171875 l 1
 121.373046875 435.404296875 l 1
 121.373046875 435.404296875 141.805664062 444.107421875 162.24609375 467.577148438 c 0
 214 527 272.005859375 492.283203125 267.149414062 511.5234375 c 1xd0
242.63671875 478.381835938 m 1
 220.721679688 460.028320312 168.09765625 431.28125 157.515625 408.797851562 c 0
 145.165039062 382.5625 131.865234375 378.7890625 116.459960938 353.32421875 c 0
 104.619140625 333.727539062 80.1630859375 335.037109375 79.4404296875 307.533203125 c 1
 99.7470703125 312.569335938 113.94140625 316.15625 128.756835938 327.584960938 c 0
 150.912109375 344.673828125 218.190429688 368.993164062 233.4609375 391.2890625 c 0
 248.731445312 413.55859375 246.870117188 454.047851562 242.63671875 478.381835938 c 1
236.99609375 373.473632812 m 1
 219.823242188 371.26953125 166.21875 345.750976562 153.600585938 336.390625 c 0
 109.236328125 303.470703125 75.9033203125 280.318359375 78.876953125 231.689453125 c 0
 79.734375 217.65625 68.7734375 190.958984375 84.7939453125 181.544921875 c 1
 70.0322265625 173.640625 73.3583984375 136.951171875 74.0810546875 124.124023438 c 0
 71.5361328125 103.067382812 60.2197265625 87.193359375 70.7607421875 52.1826171875 c 0
 70.841796875 45.51171875 70.41796875 13.5673828125 80.5986328125 10.7666015625 c 0
 97.9052734375 6.005859375 91.10546875 -7.078125 102 2 c 0
 153.717773438 45.09765625 208 81 233.739257812 109.303710938 c 0
 247.372070312 124.294921875 246.43359375 151.772460938 247.077148438 164.369140625 c 0xd0
 248.549804688 194.404296875 259.508789062 228.015625 250.748046875 257.930664062 c 1
 245.388671875 257.930664062 l 1
 234.67578125 245.309570312 l 1
 236.146484375 281.912109375 l 1
 236.99609375 373.473632812 l 1
EndSplineSet
Validated: 37
EndChar

StartChar: uni043B
Encoding: 219 1083 13
Width: 291
Flags: W
VStem: 59.5664 25.6162<1.42335 214.04 214.096 255.86> 184.401 40.1143<485.53 521.409> 189.9 37.3135
LayerCount: 2
Fore
SplineSet
184.401367188 487.51953125 m 1xc0
 200.80078125 496.240234375 196.559570312 518.0078125 208.170898438 525.249023438 c 0
 215.184570312 529.623046875 224.767578125 525.71875 224.515625 517.313476562 c 0xc0
 223.633789062 488.557617188 204.375976562 439.186523438 230.497070312 414.966796875 c 1
 215.9453125 392.45703125 226.1015625 356.52734375 227.213867188 331.435546875 c 0
 230.46875 258.205078125 207.662109375 107.08984375 249.491210938 42.4150390625 c 1
 228.408203125 26.5244140625 267.696289062 16.890625 246.908203125 2.1279296875 c 0
 211.71484375 -22.8623046875 209.1953125 39.5908203125 206.192382812 54.34765625 c 0
 196.545898438 101.752929688 200.504882812 200.38671875 197.669921875 247.905273438 c 0
 196.556640625 266.677734375 202.666992188 302.731445312 189.900390625 317.513671875 c 1
 189.900390625 319.502929688 l 1xa0
 204.346679688 337.575195312 193.827148438 387.1484375 192 409 c 1
 185.701171875 407.010742188 l 1
 193.365234375 423.68359375 197.293945312 444.822265625 192.80078125 462.698242188 c 1
 190.701171875 462.698242188 l 1
 140.654296875 387.288085938 142.41796875 389.907226562 98.30859375 311.547851562 c 1
 133.137695312 346.185546875 178.640625 416.715820312 185.701171875 391.100585938 c 1
 158.801757812 376.090820312 141.6484375 331.505859375 122.79296875 307.749023438 c 0
 116.073242188 299.296875 87.93359375 289.993164062 85.37109375 279.6484375 c 0
 80.4580078125 259.772460938 87.4921875 230.7578125 92.1123046875 211.340820312 c 0
 94.8623046875 199.76171875 84.7626953125 189.477539062 93.7080078125 178.296875 c 1
 93.7080078125 176.307617188 l 1
 85.875 164.822265625 90.8515625 143.875976562 90.5791015625 130.564453125 c 0
 90.1376953125 110.807617188 95.0302734375 89.54296875 94.2958984375 70.900390625 c 0
 93.833984375 58.84765625 85.8330078125 47.4921875 85.1826171875 35.1015625 c 0
 84.447265625 21.82421875 89.490234375 7.998046875 83.064453125 -4.5859375 c 0
 72.5439453125 -25.2177734375 79.2451171875 8.0390625 65.9736328125 0.205078125 c 0
 55.7060546875 -5.8564453125 64.291015625 -36.59375 52.154296875 -32.1689453125 c 0
 26.7880859375 -22.900390625 56.732421875 15.2392578125 59.56640625 29.134765625 c 0
 64.48046875 53.2529296875 58.2646484375 77.0380859375 56.6689453125 100.732421875 c 0
 54.169921875 137.6015625 56.3125 214.095703125 56.3125 214.095703125 c 1
 56.3125 218.073242188 l 1
 54.2119140625 255.860351562 l 1
 46.25390625 254.16015625 34.1181640625 233.846679688 29.119140625 245.196289062 c 0
 25.716796875 252.920898438 72.8134765625 320.068359375 78.587890625 330.38671875 c 0
 84.908203125 341.643554688 78.755859375 355.354492188 86 366 c 0
 104.856445312 393.712890625 114.450388822 384.142229113 124.010742188 417.899414062 c 0
 127.43359375 429.985351562 128.272460938 466.375 144.588867188 470.1015625 c 0
 157.712890625 473.107421875 153.638671875 452.359375 155.00390625 445.743164062 c 1
 159.203125 445.743164062 l 1
 190.701171875 485.530273438 l 1
 184.401367188 485.530273438 l 1
 184.401367188 487.51953125 l 1xc0
EndSplineSet
Validated: 33
EndChar

StartChar: uni041B
Encoding: 187 1051 14
Width: 291
Flags: W
VStem: 59.5664 25.6162<1.42335 214.04 214.096 255.86> 184.401 40.1143<485.53 521.409> 189.9 37.3135
LayerCount: 2
Fore
SplineSet
184.401367188 487.51953125 m 1xc0
 200.80078125 496.240234375 196.559570312 518.0078125 208.170898438 525.249023438 c 0
 215.184570312 529.623046875 224.767578125 525.71875 224.515625 517.313476562 c 0xc0
 223.633789062 488.557617188 204.375976562 439.186523438 230.497070312 414.966796875 c 1
 215.9453125 392.45703125 226.1015625 356.52734375 227.213867188 331.435546875 c 0
 230.46875 258.205078125 207.662109375 107.08984375 249.491210938 42.4150390625 c 1
 228.408203125 26.5244140625 267.696289062 16.890625 246.908203125 2.1279296875 c 0
 211.71484375 -22.8623046875 209.1953125 39.5908203125 206.192382812 54.34765625 c 0
 196.545898438 101.752929688 200.504882812 200.38671875 197.669921875 247.905273438 c 0
 196.556640625 266.677734375 202.666992188 302.731445312 189.900390625 317.513671875 c 1
 189.900390625 319.502929688 l 1xa0
 204.346679688 337.575195312 193.827148438 387.1484375 192 409 c 1
 185.701171875 407.010742188 l 1
 193.365234375 423.68359375 197.293945312 444.822265625 192.80078125 462.698242188 c 1
 190.701171875 462.698242188 l 1
 140.654296875 387.288085938 142.41796875 389.907226562 98.30859375 311.547851562 c 1
 133.137695312 346.185546875 178.640625 416.715820312 185.701171875 391.100585938 c 1
 158.801757812 376.090820312 141.6484375 331.505859375 122.79296875 307.749023438 c 0
 116.073242188 299.296875 87.93359375 289.993164062 85.37109375 279.6484375 c 0
 80.4580078125 259.772460938 87.4921875 230.7578125 92.1123046875 211.340820312 c 0
 94.8623046875 199.76171875 84.7626953125 189.477539062 93.7080078125 178.296875 c 1
 93.7080078125 176.307617188 l 1
 85.875 164.822265625 90.8515625 143.875976562 90.5791015625 130.564453125 c 0
 90.1376953125 110.807617188 95.0302734375 89.54296875 94.2958984375 70.900390625 c 0
 93.833984375 58.84765625 85.8330078125 47.4921875 85.1826171875 35.1015625 c 0
 84.447265625 21.82421875 89.490234375 7.998046875 83.064453125 -4.5859375 c 0
 72.5439453125 -25.2177734375 79.2451171875 8.0390625 65.9736328125 0.205078125 c 0
 55.7060546875 -5.8564453125 64.291015625 -36.59375 52.154296875 -32.1689453125 c 0
 26.7880859375 -22.900390625 56.732421875 15.2392578125 59.56640625 29.134765625 c 0
 64.48046875 53.2529296875 58.2646484375 77.0380859375 56.6689453125 100.732421875 c 0
 54.169921875 137.6015625 56.3125 214.095703125 56.3125 214.095703125 c 1
 56.3125 218.073242188 l 1
 54.2119140625 255.860351562 l 1
 46.25390625 254.16015625 34.1181640625 233.846679688 29.119140625 245.196289062 c 0
 25.716796875 252.920898438 72.8134765625 320.068359375 78.587890625 330.38671875 c 0
 84.908203125 341.643554688 78.755859375 355.354492188 86 366 c 0
 104.856445312 393.712890625 114.450388822 384.142229113 124.010742188 417.899414062 c 0
 127.43359375 429.985351562 128.272460938 466.375 144.588867188 470.1015625 c 0
 157.712890625 473.107421875 153.638671875 452.359375 155.00390625 445.743164062 c 1
 159.203125 445.743164062 l 1
 190.701171875 485.530273438 l 1
 184.401367188 485.530273438 l 1
 184.401367188 487.51953125 l 1xc0
EndSplineSet
Validated: 33
EndChar

StartChar: uni0419
Encoding: 185 1049 15
Width: 307
Flags: W
HStem: 332.556 4.62598<55.9609 58.1104> 351.054 6.9375<53.8115 58.1104> 542.354 54.1572<90.1545 154.932>
VStem: 25.0088 41.9951<6.34277 82.6455> 35.1992 18.6123<286.823 332.556 337.182 351.054 357.991 371.863 477.976 491.569> 40.5039 30.7988<6.34277 82.6455 272.12 469.088> 228.339 32.79<27.4333 28.6679 31.3984 40.6455 41.3277 146.8 211.751 216.377> 260.681 2.14941<394.482 403.733>
LayerCount: 2
Fore
SplineSet
247.932617188 637.833984375 m 1xe0
 174.86328125 559.21484375 l 1
 179.78515625 558.419921875 199.665039062 553.907226562 192.594726562 544.392578125 c 0
 186.362304688 536.014648438 163.795898438 545.053710938 155.521484375 546.315429688 c 0
 142.9921875 548.225585938 128.03515625 538.908203125 116.923828125 542.353515625 c 0
 108.219726562 545.044921875 102.99609375 556.349609375 95.345703125 561.35546875 c 0
 88.25390625 565.986328125 78.1533203125 568.232421875 75.251953125 577.814453125 c 0
 71.9208984375 588.771484375 81.5263671875 597.46484375 91.046875 596.510742188 c 0
 114.73046875 594.137695312 122.552734375 572.103515625 149.072265625 581.48828125 c 0
 171.31640625 589.359375 197.817382812 607.963867188 217.846679688 621.331054688 c 0
 227.690429688 627.895507812 235.833007812 638.333984375 247.932617188 637.833984375 c 1xe0
248.93359375 499.330078125 m 1
 248.93359375 499.33203125 l 2
 249.2578125 499.375 249.579101562 499.370117188 249.891601562 499.315429688 c 0
 267.493164062 496.25 255.629882812 445.624023438 256.381835938 431.482421875 c 1
 262.830078125 433.790039062 l 1
 262.830078125 394.482421875 l 1
 260.680664062 394.482421875 l 1
 260.680664062 403.733398438 l 1xe9
 258.53125 403.733398438 l 1
 258.359375 380.8359375 247.52734375 334.747070312 260.830078125 315.868164062 c 1
 260.830078125 313.555664062 l 1
 244.475585938 290.328125 258.680664062 216.376953125 258.680664062 216.376953125 c 1
 258.680664062 211.750976562 l 1
 258.680664062 211.750976562 247.7734375 148.689453125 261.979492188 128.510742188 c 1
 261.979492188 126.198242188 l 1
 261.979492188 123.885742188 l 1
 248.2890625 104.430664062 260.677734375 55.013671875 261.12890625 31.3984375 c 1
 269.723632812 29.0859375 l 1
 260.095703125 20.2509765625 271.982421875 6.017578125 262.267578125 -5.021484375 c 0
 242.280273438 -27.74609375 228.790039062 30.9521484375 228.338867188 40.6455078125 c 1
 219.740234375 38.3330078125 l 1
 219.740234375 40.6455078125 l 1
 234.956054688 55.00390625 223.190429688 81.935546875 223.791992188 100.374023438 c 0
 225.984375 165.68359375 227.091796875 234.487304688 219.44140625 299.68359375 c 1
 213.05859375 294.688476562 212.567382812 284.688476562 206.313476562 280.540039062 c 0
 197.759765625 274.884765625 183.897460938 263.790039062 174.3125 258.366210938 c 0
 142.590820312 240.436523438 102.666992188 209.625976562 79.951171875 179.56640625 c 0
 69.162109375 165.301757812 78.724609375 146.840820312 61.8544921875 142.952148438 c 1
 71.302734375 94.208984375 l 1xe6
 69.0791015625 88.1044921875 l 1
 67.00390625 82.6455078125 l 1xf0
 72.26953125 60.0751953125 55.5712890625 28.1064453125 71.302734375 8.65625 c 1
 71.302734375 6.3427734375 l 1
 73.302734375 4.0302734375 l 1
 67.5 -3.7431640625 67.470703125 -20.4716796875 54.94140625 -17.2041015625 c 0
 42.5625 -13.9716796875 40.740234375 6.0498046875 40.50390625 15.5810546875 c 0xe4
 39.923828125 40.2548828125 25.6748046875 60.3447265625 25.0087890625 87.2666015625 c 0xf0
 23.1826171875 162.083984375 37.8427734375 236.000976562 35.19921875 311.560546875 c 0xe8
 33.3720703125 363.467773438 20.4150390625 429.88671875 28.8388671875 480.353515625 c 0
 32.6640625 503.2109375 51.8974609375 499.353515625 58.4951171875 480.319335938 c 0
 62.986328125 467.393554688 54.4560546875 452.916015625 57.916015625 438.83203125 c 0
 60.279296875 429.240234375 62.0927734375 425.040039062 64.779296875 415.576171875 c 0
 71.0966796875 393.419921875 72.794921875 294.325195312 68.302734375 272.120117188 c 1
 102.41015625 287.559570312 146.390625 345.958007812 178.86328125 365.71875 c 0
 193.456054688 374.604492188 207.838867188 375.711914062 216.155273438 392.37890625 c 0
 223.205078125 406.478515625 214.845703125 424.0546875 215.94140625 439.080078125 c 0
 216.711914062 449.62109375 238.881835938 497.907226562 248.93359375 499.330078125 c 1
217.295898438 355.17578125 m 1
 207.344726562 349.693359375 171.98828125 332.87109375 178.607421875 318.740234375 c 1
 172.163085938 316.427734375 l 1
 172.163085938 323.366210938 l 1
 139.28125 308.095703125 104.428710938 268.66796875 81.841796875 239.750976562 c 0
 77.71484375 234.467773438 59.4912109375 202.5625 77.2216796875 202.088867188 c 0
 89.8583984375 201.750976562 107.583007812 221.318359375 116.13671875 229.133789062 c 0
 131.524414062 243.190429688 155.80078125 274.46484375 172.564453125 285.649414062 c 0
 194.721679688 300.43359375 193.286132812 313.271484375 221.590820312 301.997070312 c 1
 217.295898438 355.17578125 l 1
53.662109375 371.86328125 m 1
 53.8115234375 357.991210938 l 1
 58.1103515625 357.991210938 l 1
 60.1103515625 371.86328125 l 1
 53.662109375 371.86328125 l 1
53.8115234375 351.053710938 m 1
 53.8115234375 337.181640625 l 1
 58.1103515625 337.181640625 l 1
 58.1103515625 351.053710938 l 1
 53.8115234375 351.053710938 l 1
55.9609375 332.555664062 m 1
 53.8115234375 286.310546875 l 1
 69.865234375 296.234375 60.728515625 316.5546875 60.255859375 332.555664062 c 1
 55.9609375 332.555664062 l 1
70.4521484375 269.807617188 m 1
 68.302734375 267.495117188 l 1
 70.4521484375 269.807617188 l 1
EndSplineSet
Validated: 41
EndChar

StartChar: uni042D
Encoding: 205 1069 16
Width: 280
Flags: W
HStem: 207.078 24.6221<87.1289 168.715>
VStem: 111.49 1.91602<65.9208 70.1729>
LayerCount: 2
Fore
SplineSet
146.151367188 503.0859375 m 0
 152.037109375 511.391601562 152.62890625 527.811523438 161.3203125 523.22265625 c 0
 171.682617188 517.750976562 169.670898438 489.431640625 170.83984375 478.211914062 c 0
 172.372070312 463.33203125 182.388671875 453.915039062 184.993164062 440.245117188 c 0
 189.474609375 416.555664062 184.112304688 399.14453125 192.118164062 375.159179688 c 1
 195.948242188 375.159179688 l 1
 199.779296875 386.380859375 l 1
 209.431640625 366.18359375 196.6015625 334.719726562 212.267578125 317.98828125 c 0
 230.500976562 298.528320312 249.538085938 297.614257812 272.520507812 298.817382812 c 0
 277.193359375 299.061523438 293.798828125 304.966796875 293.51171875 294.607421875 c 0
 293.109375 280.407226562 245.994140625 292.116210938 242.795898438 271.21875 c 0
 241.78125 264.626953125 252.391601562 263.280273438 255.1875 259.622070312 c 0
 258.309570312 255.540039062 248.565429688 235.259765625 247.72265625 229.90234375 c 0
 245.692382812 217.141601562 236.05859375 205.854492188 234.27734375 191.3671875 c 0
 233.30078125 183.377929688 237.686523438 176.514648438 236.881835938 168.54296875 c 0
 233.932617188 139.61328125 217.51953125 94.291015625 206.161132812 68.0166015625 c 0
 201.009765625 56.1142578125 180.36328125 0.2890625 167.033203125 27.01953125 c 1
 165.118164062 27.01953125 l 1
 160.330078125 10.896484375 148.014648438 7.169921875 136.5234375 -0.7880859375 c 0
 127.6171875 -6.96875 135.680664062 -44.1708984375 119.190429688 -38.712890625 c 0
 110.973632812 -35.990234375 104.615234375 -21.3466796875 100.478515625 -13.37890625 c 0
 86.70703125 13.0576171875 79.8701171875 48.7060546875 64.3369140625 74.662109375 c 0
 60.4296875 81.1767578125 48.498046875 101.00390625 56.0439453125 108.00390625 c 0
 73.3203125 124.0234375 100.95703125 73.041015625 111.490234375 63.4404296875 c 1
 111.490234375 70.1728515625 l 1
 113.40625 70.1728515625 l 1
 120.396484375 22.64453125 137.30859375 45.416015625 157.45703125 65.359375 c 0
 188.158203125 95.7587890625 201.603515625 121.215820312 211.620117188 166.591796875 c 0
 214.071289062 177.7109375 218.725585938 216.515625 208.881835938 222.532226562 c 0
 199.573242188 228.23046875 181.033203125 221.750976562 171.189453125 219.859375 c 0
 145.41015625 214.903320312 99.4248046875 200.375976562 75.1005859375 207.078125 c 1
 87.12890625 231.700195312 l 1
 121.067382812 232.205078125 l 1
 212.999023438 240.743164062 l 1
 220.25390625 254.208984375 l 1
 214.5078125 249.719726562 l 1
 218.012695312 266.106445312 203.341796875 263.186523438 193.439453125 263.186523438 c 1
 197.270507812 247.475585938 l 1
 172.19921875 240.502929688 126.157226562 255.259765625 101.5078125 263.8125 c 0
 91.43359375 267.30859375 82.068359375 283.133789062 93.00390625 292.739257812 c 0
 99.9951171875 298.877929688 111.141601562 292.211914062 118.745117188 291.368164062 c 0
 133.684570312 289.709960938 149.350585938 288.923828125 164.7109375 287.422851562 c 0
 169.86328125 286.919921875 187.04296875 284.96484375 189.954101562 291.204101562 c 0
 193.248046875 298.220703125 185.703125 310.004882812 182.466796875 314.80859375 c 0
 171.434570312 331.165039062 163.944335938 357.506835938 169.134765625 379.647460938 c 1
 154.099609375 391.197265625 157.892578125 420.037109375 155 438 c 0
 154.176757812 443.139648438 152.126953125 458.07421875 146.055664062 458.07421875 c 0
 138.356445312 458.07421875 130.197265625 437.479492188 126.022460938 431.267578125 c 0
 107.521484375 403.841796875 81.4931640625 348.814453125 46.55859375 366.181640625 c 1
 60.3681640625 421.45703125 107.7421875 448.884765625 146.151367188 503.0859375 c 0
EndSplineSet
Validated: 33
EndChar

StartChar: uni0421
Encoding: 193 1057 17
Width: 288
Flags: W
HStem: -29.3291 21G<154.82 184.129> 319.374 3.97266<219.282 228.688>
VStem: 110.938 83.6494<458.42 503.241> 229.084 14.0576<181.451 204.23>
LayerCount: 2
Fore
SplineSet
164.166992188 521.301757812 m 0
 175.541992188 521.52734375 189.02734375 503.620117188 194.587890625 493.42578125 c 0
 215.463867188 455.2734375 255.254882812 358.576171875 233.390625 317.387695312 c 1
 219.282226562 319.374023438 l 1
 219.282226562 323.346679688 l 1
 228.688476562 323.346679688 l 1
 208.15234375 381.950195312 l 1
 174.4140625 455.694335938 l 1
 172.0625 455.694335938 l 1
 102.6875 330.514648438 l 1
 82.7255859375 290.796875 l 1
 82.7255859375 288.810546875 l 1
 57.7578125 282.169921875 67.7265625 246.983398438 72.2412109375 231.212890625 c 0
 81.9501953125 197.15234375 92.6923828125 167.1328125 111.806640625 135.899414062 c 0
 122.432617188 118.54296875 144.955078125 78.7333984375 146.201171875 59.3232421875 c 1
 122.549804688 60.8662109375 98.8310546875 119.635742188 87.4287109375 135.899414062 c 1
 81.9033203125 106.120117188 111.337890625 55.474609375 128.194335938 31.5234375 c 0
 132.754882812 25.0673828125 146.603515625 3.5390625 157.747070312 8.95703125 c 0
 170.06640625 14.9619140625 181.715820312 18.65234375 186.55859375 29.7646484375 c 0
 203.885742188 69.6806640625 214.598632812 94.13671875 217 126 c 0
 217.987304688 138.92578125 220.244140625 195.122070312 229.083984375 202.940429688 c 0
 247.092773438 218.86328125 242.365234375 148.145507812 243.141601562 140.086914062 c 0
 248.0546875 89.7587890625 230.612304688 58.6220703125 226.13671875 41.451171875 c 0
 222.719726562 40.7392578125 224.399414062 34.9521484375 220.872070312 32.609375 c 0
 204.010742188 16.4208984375 207.948242188 -5.2666015625 160.309570312 -29.3291015625 c 1
 149.331054688 -27.3828125 143.40625 -16.90625 136.799804688 -10.1806640625 c 0
 103.180664062 26.6455078125 70.947265625 78.869140625 54.279296875 123.986328125 c 0
 46.9677734375 143.840820312 46.966796875 165.489257812 40.736328125 185.548828125 c 0
 34.341796875 206.05859375 15.8427734375 240.07421875 23.1298828125 261.010742188 c 0
 42.6904296875 317.125 122.575195312 386.887695312 110.938476562 449.736328125 c 1
 130.239257812 464.115234375 115.051757812 514.178710938 150.903320312 507.326171875 c 1
 154.26171875 517.348632812 158.997070312 521.19921875 164.166992188 521.301757812 c 0
EndSplineSet
Validated: 33
EndChar

StartChar: uni041D
Encoding: 189 1053 18
Width: 338
Flags: W
HStem: -24.4395 28.2822G<46.1133 51.1064 252.547 276.211>
VStem: 46.6494 33.8838<37.0687 44.1641 121.743 213.259> 48.2656 41.6875<323.484 459.1> 59.5811 27.877<457.587 514.654> 243.779 36.5<10.0548 66.4286 83.9359 179.749>
LayerCount: 2
Fore
SplineSet
79.646484375 516.326171875 m 0x98
 80.2841796875 516.275390625 80.9375 516.16796875 81.6103515625 516.005859375 c 0
 88.87109375 514.262695312 86.8056640625 502.719726562 87.4580078125 498.322265625 c 0x98
 90.3505859375 478.87890625 88.875 459.763671875 89.953125 440.435546875 c 0xa8
 91.6279296875 410.473632812 65.4296875 348.858398438 85.369140625 322.209960938 c 0
 95.9208984375 308.131835938 136.280273438 300.184570312 154.688476562 292.23046875 c 0
 171.110351562 285.127929688 221.713867188 259.017578125 240.291992188 267.314453125 c 0
 257.990234375 275.21484375 247.068359375 303.533203125 248.62890625 316.229492188 c 0
 254.981445312 367.138671875 223.8125 446.49609375 245 496 c 0
 253.79296875 516.512695312 291.280273438 491.715820312 268.81640625 476.875976562 c 1
 285.833007812 401.837890625 l 1
 285.833007812 399.694335938 l 1
 261.241210938 379.873046875 276.958984375 311.489257812 277.327148438 286.072265625 c 0
 278.546875 195.58203125 267.458984375 95.9609375 283.116210938 6.4228515625 c 1
 280.279296875 6.4228515625 l 1
 274.610351562 10.7119140625 l 1
 280.279296875 -17.1572265625 l 1
 224.814453125 -8.931640625 253.338867188 102.208007812 243.779296875 129.708984375 c 0
 243.8359375 140.22265625 251.068359375 154.3671875 245.395507812 164.006835938 c 0
 235.723632812 180.356445312 208.608398438 185.77734375 188.725585938 192.055664062 c 0
 151.966796875 203.665039062 119.703125 216.631835938 82.9443359375 228.185546875 c 1
 88.6181640625 213.1796875 l 1
 76.84765625 215.405273438 76.3916015625 183.673828125 80.107421875 172.444335938 c 0
 91.197265625 138.872070312 80.533203125 96.2861328125 80.533203125 68.8544921875 c 0
 80.533203125 55.9482421875 67.94140625 44.669921875 89.0439453125 36.6923828125 c 1
 89.0439453125 30.263671875 l 1
 68.0830078125 13.978515625 93.1689453125 -40.2626953125 51.1064453125 -18.0107421875 c 1
 45.4326171875 -24.439453125 l 1
 46.7939453125 -8.92578125 54.9052734375 2.5205078125 39.7587890625 16.2958984375 c 1
 39.7587890625 18.439453125 l 1
 39.7587890625 20.580078125 l 1
 45.4326171875 44.1640625 l 1
 42.595703125 39.8759765625 l 1
 39.7587890625 39.8759765625 l 1
 73.5966796875 129.872070312 40.154296875 227.612304688 46.6494140625 320.374023438 c 0xc8
 49.00390625 354.126953125 48.6630859375 387.35546875 48.265625 421.1484375 c 0xa8
 48.095703125 435.146484375 57.712890625 446.224609375 51.0751953125 459.731445312 c 1
 53.9072265625 459.731445312 l 1
 59.5810546875 457.586914062 l 1
 62.109375 467.396484375 59.90234375 517.890625 79.646484375 516.326171875 c 0x98
85.78125 262.48828125 m 1
 82.6044921875 246.592773438 104.459960938 250.013671875 117.564453125 244.665039062 c 0
 147.40234375 232.489257812 171.171875 216.450195312 202.91015625 205.934570312 c 0
 211.958007812 202.9375 227.045898438 192.241210938 237.682617188 193.905273438 c 0
 253.934570312 196.44140625 249.620117188 224.967773438 242.076171875 231.966796875 c 0
 234.276367188 239.177734375 211.532226562 243.432617188 200.073242188 245.3046875 c 0
 183.90625 247.952148438 167.966796875 249.225585938 151.856445312 252.282226562 c 0
 129.705078125 256.482421875 108.358398438 258.5390625 85.78125 262.48828125 c 1
EndSplineSet
Validated: 33
EndChar

StartChar: uni041C
Encoding: 188 1052 19
Width: 406
Flags: W
HStem: -17.4551 21G<49.1021 56.6572 56.6572 80.9038>
VStem: 46.1191 31.6211<-13.2773 23.526 47.5507 158.927 160.525 266.853> 167.651 34.2412<139.68 222.755 222.772 224.967> 313.573 32.2783<32.265 288.688 322.432 442.807> 328.723 22.1016<-10.5709 121.504 479.96 521.922>
LayerCount: 2
Fore
SplineSet
185.625 524.229492188 m 1xf0
 204 520 l 1
 200.3125 471.953125 182.720703125 392.48046875 195.57421875 344.8203125 c 1
 199.78515625 344.8203125 l 1
 225.028320312 399.69140625 279.161132812 434.311523438 315.381835938 476.2109375 c 0
 326.360351562 488.919921875 317.826171875 502.134765625 324.779296875 515.372070312 c 0
 329.647460938 524.663085938 343.241210938 527.157226562 349.014648438 517.302734375 c 0
 356.13671875 505.130859375 347.916015625 482.43359375 345.8515625 469.540039062 c 0xf0
 342.374023438 447.71484375 348.530273438 424.844726562 346.064453125 404.157226562 c 0
 344.063476562 387.387695312 336.265625 361.30078125 347.286132812 346.6875 c 1
 347.286132812 344.493164062 l 1
 333.546875 326.799804688 342.544921875 272.671875 343.05078125 250.161132812 c 0
 343.80859375 215.259765625 340.456054688 188.784179688 345.4921875 153.6640625 c 0
 347.09375 142.481445312 355.291015625 134.803710938 355.607421875 122.948242188 c 0
 356.38671875 92.125 345.260742188 61.8505859375 350.82421875 30.810546875 c 0
 353.541992188 15.642578125 374.383789062 -5.9208984375 350.00390625 -12.9013671875 c 0
 337.9296875 -16.3544921875 330.556640625 0.248046875 328.72265625 9.6162109375 c 0xe8
 323.118164062 37.966796875 331.14453125 30.2919921875 325.666015625 57.1376953125 c 0
 321.043945312 123.869140625 316.844726562 127.021484375 313.573242188 171.212890625 c 1
 315.676757812 210.702148438 l 1
 313.573242188 324.749023438 l 1
 321.137695312 332.46484375 320.737304688 340.922851562 313.573242188 348.881835938 c 1
 313.573242188 351.076171875 l 1
 323.096679688 362.0078125 327.37109375 435.563476562 315.676757812 443.213867188 c 1
 302.127929688 410.9296875 275.368164062 396.559570312 255.37109375 373.362304688 c 0
 241.716796875 357.53125 233.375976562 310.2890625 214.538085938 300.943359375 c 1
 210.323242188 309.715820312 l 1
 192.412109375 286.59765625 201.892578125 224.966796875 201.892578125 224.966796875 c 1
 201.892578125 222.772460938 l 1
 201.892578125 222.772460938 202.798828125 199.202148438 203.810546875 181.119140625 c 0
 206.360351562 135.375976562 227.748046875 73.03125 212.32421875 30.109375 c 0
 209.015625 20.85546875 209.142578125 -11.333984375 201.3671875 -15.693359375 c 0
 185.985351562 -24.3173828125 187.821289062 35.30859375 184.365234375 43.1826171875 c 0
 180.59375 51.7421875 192.510742188 85.15234375 191.352539062 95.0751953125 c 0
 183.576171875 161.880859375 165.3125 211.634765625 167.651367188 278.677734375 c 0
 168.579101562 305.80859375 174.1640625 340.215820312 168.1796875 366.431640625 c 1
 115.564453125 324.701171875 78.7099609375 265.142578125 81.7861328125 197.540039062 c 1
 83.8935546875 197.540039062 l 1
 83.8935546875 209.186523438 80.0830078125 92.9853515625 77.740234375 72.4931640625 c 0
 77.1708984375 42.0732421875 86.33984375 12.2470703125 75.4677734375 -17.455078125 c 1
 56.6572265625 -13.06640625 l 1
 52.44140625 -15.2607421875 l 1
 45.7626953125 6.9453125 63.2919921875 43.9296875 46.119140625 61.521484375 c 1
 46.119140625 63.7158203125 l 1
 46.119140625 65.91015625 l 1
 63.4609375 85.1875 48.033203125 132.393554688 56.5029296875 160.24609375 c 1
 47.294921875 165.768554688 51.1494140625 198.626953125 50.01171875 210.672851562 c 0
 45.607421875 256.6640625 55.595703125 303.15625 57.091796875 349.733398438 c 0
 57.38671875 359.41015625 57.53515625 392.736328125 65.1630859375 398.178710938 c 0
 72.8544921875 403.650390625 75.2119140625 391.452148438 81.7861328125 390.564453125 c 1
 77.5712890625 377.3984375 l 1
 97.841796875 383.850585938 116.766601562 426.940429688 132.359375 443.213867188 c 1
 134.466796875 443.213867188 l 1
 172.39453125 498.061523438 l 1
 185.625 524.229492188 l 1xf0
168.1796875 425.6640625 m 1
 151.0703125 420.389648438 144.454101562 392.079101562 135.583007812 377.411132812 c 0
 127.745117188 364.434570312 117.9453125 366.010742188 107.536132812 357.889648438 c 0
 94.32421875 347.576171875 81.7021484375 312.549804688 86.0009765625 296.227539062 c 1
 90.216796875 296.227539062 l 1
 134.466796875 352.86328125 l 1
 171.48828125 390.564453125 l 1
 168.1796875 425.6640625 l 1
216.641601562 340.431640625 m 1
 216.641601562 336.04296875 l 1
 220.856445312 336.04296875 l 1
 220.856445312 340.431640625 l 1
 216.641601562 340.431640625 l 1
EndSplineSet
Validated: 37
EndChar

StartChar: uni0420
Encoding: 192 1056 20
Width: 315
Flags: W
HStem: 485.626 20G<254.834 263.04>
VStem: 49.1104 35.8232<125.349 200.314 342.24 344.229> 57.0342 36.3906<-3.20981 122.817 125.349 202.662 233.127 341.296>
LayerCount: 2
Fore
SplineSet
243.119140625 493.544921875 m 2xc0
 243.120117188 493.544921875 l 2
 257.458007812 492.751953125 268.301757812 485.112304688 266.497070312 473.987304688 c 1
 298.036132812 461.140625 267.159179688 448.766601562 264.041992188 430.325195312 c 0
 257.26171875 390.5078125 245.388671875 378.26953125 251.612304688 337.625976562 c 0
 253.782226562 323.592773438 274.447265625 297.30859375 263.779296875 285.66015625 c 0
 252.547851562 273.3984375 227.579101562 275.736328125 211.219726562 271.149414062 c 0
 185.983398438 264.081054688 197.53515625 247.740234375 181.581054688 232.784179688 c 1
 179.006835938 236.900390625 l 1
 176.220703125 237.045898438 l 1
 172.806640625 223.630859375 179.934570312 225.232421875 159.936523438 222.124023438 c 1
 162.095703125 210.555664062 123.416992188 197.41015625 107.079101562 194.318359375 c 0
 100.478515625 196.924804688 99.904296875 183.79296875 95.66796875 180.046875 c 0
 85.09375 162.208007812 102.00390625 164.4765625 98.9287109375 153.338867188 c 0
 95.80078125 142.012695312 90.1240234375 127.221679688 106.512695312 119.028320312 c 1
 106.408203125 117.04296875 l 1
 97.21875 113.352539062 98.12109375 108.618164062 100.008789062 101.456054688 c 1
 93.89453125 92.4873046875 96.373046875 -7.1328125 104.504882812 -15.6357421875 c 1
 104.400390625 -17.62109375 l 1
 73.154296875 -38.10546875 72.4931640625 -35.7900390625 49.51171875 -6.78515625 c 1
 64.1396484375 0.9775390625 59.841796875 30.3642578125 60.478515625 42.4990234375 c 0xa0
 58.5078125 52.46484375 62.322265625 75.490234375 61.1953125 86.3984375 c 0
 58.9423828125 88.6728515625 62.1865234375 92.3974609375 61.7158203125 96.326171875 c 0
 59.578125 114.176757812 59.2041015625 134.916015625 58.0986328125 150.60546875 c 0
 56.107421875 178.185546875 56.2666015625 187.995117188 60.3740234375 215.348632812 c 0
 70.8017578125 284.780273438 56.2783203125 315.765625 60.556640625 386.219726562 c 0
 62.1337890625 412.580078125 52.2958984375 439.688476562 53.15625 466.225585938 c 0
 53.40625 474.190429688 51.076171875 486.80078125 59 493 c 0
 83.90625 512.4609375 100.788085938 478.45703125 123.821289062 482.427734375 c 1
 136.990234375 471.428710938 207.65234375 465.788085938 226.776367188 472.446289062 c 0
 236.791992188 475.919921875 228.100585938 478.9765625 234.26171875 485.138671875 c 2
 236.684570312 491.47265625 l 1
 236.7890625 493.458984375 l 2
 238.953125 493.634765625 241.071289062 493.65234375 243.119140625 493.544921875 c 2xc0
99.97265625 453.818359375 m 1xc0
 79.779296875 447.004882812 101.494140625 428.517578125 89.6357421875 416.541992188 c 1
 107.391601562 403.513671875 103.734375 359.764648438 105.189453125 340.09375 c 1
 102.403320312 340.239257812 l 1
 97.1416015625 346.483398438 l 1
 93.9384765625 338.692382812 l 1
 93.8349609375 336.70703125 l 1
 102.1953125 336.268554688 l 1
 86.19140625 316.627929688 96.3525390625 315.255859375 94.6337890625 293.365234375 c 0
 93.3310546875 276.767578125 94.3818359375 250.372070312 104.111328125 225.829101562 c 1
 138.551757812 252.895507812 151.298828125 255.0234375 190.403320312 279.497070312 c 0
 204.180664062 288.119140625 212.771484375 301.821289062 220.063476562 311.958984375 c 0
 232.87109375 329.791015625 222.5546875 374.977539062 223.387695312 395.681640625 c 0
 223.857421875 406.783203125 235.729492188 438.102539062 226.563476562 446.079101562 c 0
 220.310546875 451.498046875 201.418945312 448.192382812 192.583007812 449.65234375 c 0
 159.4296875 455.138671875 123.4765625 434.247070312 99.97265625 453.818359375 c 1xc0
EndSplineSet
Validated: 33
EndChar

StartChar: uni042C
Encoding: 204 1068 21
Width: 256
Flags: W
HStem: 9.67871 23.4697<74.8039 104.837>
VStem: 37.2471 31.6719<35.2807 86.7002> 46.9307 23.5977<429.705 510.438> 200.699 29.4551<37.8043 190.54>
LayerCount: 2
Fore
SplineSet
61.6279296875 511.14453125 m 0xb0
 71.69921875 510.9296875 71.2289848815 484.805346753 70.5283203125 477.318359375 c 0xb0
 67.2705078125 442.506835938 61.3866073439 335.396346667 80 307 c 0
 97.556640625 280.215820312 114.587890625 269.303710938 134 245 c 0
 147.642578125 227.919921875 158.310546875 228.00390625 176.78515625 214.868164062 c 0
 201.309570312 197.431640625 218.073242188 244.58984375 234.204101562 196.396484375 c 0
 238.185546875 184.5546875 230.700195312 168.986328125 230.49609375 156.260742188 c 0
 229.930664062 120.747070312 228.525390625 84.185546875 230.154296875 49.2919921875 c 0
 230.765625 36.3369140625 255.515625 27.84765625 246.556640625 13.771484375 c 0
 244.837890625 11.0615234375 218.076171875 -14.9677734375 217.352539062 -14.8720703125 c 0
 208.416015625 -13.7080078125 207.287109375 -0.150390625 196.493164062 -0.7646484375 c 0
 87 -7 79.5546875 -68.271484375 41.1845703125 -3.7734375 c 0
 32.5419921875 10.7646484375 37.2021484375 40.25 37.2470703125 57.2685546875 c 0xd0
 37.3837890625 107.176757812 38.2880859375 157.698242188 34.984375 207.095703125 c 1
 28.1962890625 204.418945312 l 1
 28.1962890625 207.095703125 l 1
 40.0732421875 219.881835938 43.2412109375 286.528320312 28.1962890625 298.059570312 c 1
 28.1962890625 300.736328125 l 1
 46.3857421875 326.91796875 32.720703125 395.603515625 35.1181640625 429.119140625 c 0
 36.0009765625 441.693359375 45.0751953125 449.120117188 46.9306640625 461.266601562 c 0
 48.6953125 472.994140625 45.91015625 504.774414062 58.1494140625 510.331054688 c 0
 59.4287109375 510.913085938 60.5859375 511.165039062 61.6279296875 511.14453125 c 0xb0
71.181640625 279.333007812 m 1
 69.123046875 270.482421875 65.6875 253.704101562 70.5068359375 245.568359375 c 0
 86.0712890625 219.190429688 130.592773438 205.989257812 152.583007812 186.265625 c 0
 183.23828125 158.766601562 141.702148438 164.844726562 127.743164062 170.859375 c 0
 120.232421875 174.096679688 112.495117188 176.272460938 105.119140625 180.002929688 c 0
 92.970703125 186.142578125 81.54296875 194.43359375 68.9189453125 199.067382812 c 1
 66.1806640625 188.126953125 64.5751953125 176.431640625 73.4443359375 169.641601562 c 1
 67.1552734375 160.0234375 63.3310546875 96.619140625 73.4443359375 94.7275390625 c 1
 68.9189453125 86.7001953125 l 1xd0
 70.5703125 73.1298828125 65.14453125 44.630859375 74.4658203125 34.806640625 c 0
 81.591796875 27.275390625 94.3505859375 32.8994140625 102.856445312 33.1484375 c 0
 122.629882812 33.7314453125 186.516601562 19.931640625 199.955078125 37.47265625 c 0
 205.249023438 44.3857421875 200.268554688 61.7607421875 200.69921875 70.6484375 c 0
 201.512695312 87.626953125 195.383789062 104.939453125 196.220703125 121.268554688 c 0
 197.193359375 139.745117188 202.690429688 158.48046875 198.4140625 177.510742188 c 0
 194.659179688 194.256835938 168.53125 193.338867188 157.151367188 199.768554688 c 0
 128.080078125 216.196289062 89.16796875 243.216796875 75.70703125 279.333007812 c 1
 71.181640625 279.333007812 l 1
145.841796875 183.016601562 m 1
 143.579101562 180.33984375 l 1
 145.841796875 183.016601562 l 1
93.0263671875 9.6787109375 m 0
 83.8828125 9.8916015625 75.1396484375 5.03515625 73.4443359375 -6.9404296875 c 1
 105.119140625 6.4345703125 l 1
 101.421875 8.4345703125 97.1826171875 9.5810546875 93.0263671875 9.6787109375 c 0
EndSplineSet
Validated: 41
EndChar

StartChar: uni0437
Encoding: 215 1079 22
Width: 307
Flags: W
HStem: -45.7891 21G<137.959 149.167 149.167 164.044> 369.127 16.457<266.945 269.884> 478.78 20G<130.149 136.578> 498.78 0.597656G<130.149 137.834 152.051 156.896>
VStem: 44.1836 14.0596<123.648 133.711> 74.9424 2.07031<12.0615 20.2354>
LayerCount: 2
Fore
SplineSet
133.631835938 519.377929688 m 1xec
 142.036132812 519.180664062 147.057617188 522.71875 152.05078125 514.259765625 c 1
 156.407226562 518.184570312 l 1
 157.068359375 491.158203125 l 1
 163.388671875 492.903320312 l 1
 175.651367188 466.311523438 187.90625 443.65625 204.90625 420.1328125 c 0
 210.666015625 412.1640625 218.578125 398.653320312 229.013671875 398.106445312 c 1
 233.762695312 378.374023438 255.0859375 387.853515625 269.883789062 385.583984375 c 1
 270.100585938 389.725585938 l 1
 282.548828125 384.391601562 281.612304688 368.741210938 266.9453125 369.126953125 c 1
 264.331054688 358.8828125 l 1
 255.033203125 359.193359375 248.033203125 353.946289062 244.936523438 345.365234375 c 2
 231.861328125 333.591796875 l 1
 229.791015625 333.700195312 l 1
 208.326171875 320.291992188 l 2
 203.9140625 312.862304688 200.013671875 308.1328125 191.109375 308.736328125 c 1
 191.244140625 295.961914062 192.885742188 287.604492188 206.372070312 283.020507812 c 1
 206.263671875 280.950195312 l 2
 201.919921875 276.439453125 217.984375 259.819335938 223.706054688 257.196289062 c 2
 242.784179688 225.052734375 l 1
 251.173828125 226.689453125 l 1
 268.0078125 209.572265625 l 1
 257.002929688 197.69140625 l 1
 264.916992188 195.918945312 267.279296875 192.46875 268.775390625 184.6171875 c 1
 276.918945312 184.1796875 279.892578125 181.032226562 282.728515625 173.50390625 c 1
 269.217773438 153.44921875 l 1
 263.223632812 157.916992188 l 1
 254.506835938 150.067382812 l 1
 246.333984375 152.572265625 l 1
 248.079101562 146.252929688 l 1
 239.1640625 144.561523438 234.5546875 139.137695312 232.716796875 130.447265625 c 1
 217.787109375 122.923828125 l 1
 219.533203125 116.602539062 l 1
 212.779296875 106.576171875 l 1
 225.311523438 107.995117188 l 1
 222.262695312 89.46875 l 1
 202.9765625 78.021484375 l 1
 201.123046875 82.2724609375 l 1
 199.053710938 82.380859375 l 1
 200.580078125 71.91796875 l 1
 169.421875 32.025390625 l 1
 173.455078125 29.73828125 l 1
 173.23828125 25.595703125 l 1
 156.500976562 6.7021484375 179.35546875 -38.447265625 148.733398438 -45.7890625 c 1
 149.166992188 -37.505859375 l 1
 138.489257812 -43.17578125 l 1
 137.428710938 -37.4189453125 137.985351562 -29.9833984375 135.24609375 -24.76171875 c 0
 129.61328125 -14.03125 104.067382812 -2.8447265625 93.03515625 0.7314453125 c 2
 83.1171875 9.5576171875 l 1
 85.513671875 15.66015625 l 1
 79.193359375 13.9140625 l 1
 79.5185546875 20.1259765625 l 1
 77.447265625 20.2353515625 l 1
 77.0126953125 11.953125 l 1
 74.9423828125 12.0615234375 l 1
 73.4140625 22.5234375 l 1
 69.1650390625 20.6689453125 l 1
 63.279296875 27.20703125 l 1
 54.0107421875 48.455078125 l 1
 50.5205078125 61.0966796875 l 1
 40.5947265625 62.8603515625 38.3505859375 80.0947265625 39.5078125 88.6650390625 c 2
 39.6162109375 90.736328125 l 1
 35.3671875 88.8818359375 l 1
 34.2724609375 107.625976562 l 1
 42.447265625 105.12109375 l 1
 36.560546875 111.658203125 l 1
 45.4931640625 123.6484375 l 1
 44.18359375 138.251953125 l 1
 58.2431640625 129.208984375 l 1
 57.8095703125 120.926757812 l 1
 64.2373046875 124.741210938 l 1
 59.4443359375 112.53515625 l 1
 66.2724609375 110.795898438 62.5556640625 104.499023438 60.6474609375 95.8623046875 c 1
 68.9306640625 95.4287109375 l 1
 66.42578125 87.25390625 l 1
 72.529296875 84.8583984375 l 1
 70.1328125 78.7548828125 l 1
 76.1337890625 74.3544921875 76.92578125 71.2041015625 75.583984375 63.935546875 c 1
 82.0146484375 67.75 l 1
 82.9716796875 61.638671875 84.876953125 54.8974609375 91.71484375 54.7841796875 c 1
 89.3193359375 48.6806640625 l 1
 95.6396484375 50.4267578125 l 1
 97.2763671875 42.03515625 l 1
 99.34765625 41.9267578125 l 1
 99.6728515625 48.138671875 l 1
 101.744140625 48.029296875 l 1
 111.01171875 26.7822265625 l 1
 113.08203125 26.673828125 l 1
 113.515625 34.955078125 l 1
 115.5859375 34.8466796875 l 1
 119.29296875 26.3486328125 l 1
 121.36328125 26.2392578125 l 1
 119.509765625 30.48828125 l 1
 125.288085938 21.880859375 l 1
 142.721679688 37.578125 l 1
 141.192382812 48.0390625 l 1
 147.405273438 47.7138671875 l 1
 150.236328125 62.0986328125 l 1
 152.305664062 61.990234375 l 1
 152.087890625 57.8486328125 l 1
 154.159179688 57.740234375 l 1
 170.389648438 90.111328125 l 1
 164.178710938 90.4365234375 l 1
 168.861328125 100.572265625 l 1
 170.932617188 100.463867188 l 1
 174.857421875 96.1064453125 l 1
 171.916015625 109.673828125 187.99609375 134.0703125 201.875 136.215820312 c 1
 200.23828125 144.607421875 l 1
 208.520507812 144.172851562 l 1
 226.711914062 174.36328125 l 1
 239.787109375 186.135742188 l 1
 221.693359375 197.465820312 l 1
 221.4765625 193.325195312 l 1
 207.8515625 210.649414062 l 1
 191.01953125 227.765625 l 1
 193.5234375 235.940429688 l 1
 187.565429688 236.21484375 188.591796875 240.23828125 191.887695312 244.330078125 c 1
 181.3828125 250.478515625 171.201171875 254.466796875 174.444335938 268.083984375 c 1
 170.73828125 276.583007812 l 1
 155.952148438 269.134765625 142.819335938 257.724609375 139.795898438 240.83203125 c 1
 135.763671875 243.118164062 l 1
 134.006835938 234.374023438 127.81640625 227.92578125 118.439453125 229.493164062 c 1
 116.04296875 223.390625 l 1
 113.97265625 223.499023438 l 1
 96.66796875 240.334960938 106.329101562 246.505859375 112.109375 267.198242188 c 1
 120.827148438 275.045898438 l 1
 122.897460938 274.9375 l 1
 122.680664062 270.796875 l 1
 124.75 270.688476562 l 1
 145.555664062 311.124023438 l 1
 155.91015625 310.581054688 l 1
 151.875976562 312.869140625 l 1
 151.985351562 314.939453125 l 1
 170.450195312 322.2890625 187.361328125 339.888671875 200.688476562 354.3203125 c 0
 206.213867188 360.3046875 211.338867188 363.748046875 213.109375 371.948242188 c 1
 204.827148438 372.3828125 l 1
 202.322265625 364.208984375 l 1
 200.251953125 364.317382812 l 1
 198.3984375 368.56640625 l 1
 184.997070312 350.58203125 l 1
 178.893554688 352.978515625 l 1
 176.71484375 351.015625 l 1
 178.458984375 344.696289062 l 1
 176.388671875 344.8046875 l 1
 148.711914062 331.721679688 l 1
 121.803710938 293.681640625 l 1
 100.336914062 280.272460938 l 1
 107.41796875 296.51171875 l 1
 116.025390625 302.290039062 l 1
 113.954101562 302.3984375 l 1
 113.737304688 298.256835938 l 1
 111.666992188 298.365234375 l 1
 114.170898438 306.541015625 l 1
 127.6796875 326.594726562 l 1
 129.534179688 322.34375 l 1
 131.604492188 322.235351562 l 1
 133.07421875 333.807617188 139.57421875 340.7734375 151.325195312 341.965820312 c 1
 148.921875 356.248046875 163.063476562 364.68359375 175.513671875 367.689453125 c 1
 173.984375 378.15234375 l 1
 176.055664062 378.04296875 l 1
 177.908203125 373.79296875 l 1
 191.526367188 395.918945312 l 1
 172.526367188 401.762695312 159.666015625 430.014648438 154.7890625 447.674804688 c 1
 143.231445312 449.684570312 140.015625 465.26953125 139.634765625 475.4609375 c 1
 137.564453125 475.569335938 l 1
 98.6748046875 407.013671875 l 1
 96.603515625 407.122070312 l 1
 96.8203125 411.263671875 l 1
 94.75 411.373046875 l 1
 66.8642578125 354.697265625 l 1
 49.4306640625 339.000976562 l 1
 32.640625 343.323242188 33.9072265625 356.235351562 34.4951171875 370.927734375 c 1
 42.77734375 370.493164062 l 1
 45.7158203125 386.950195312 l 1
 58.556640625 405.149414062 l 1
 103.419921875 472.361328125 l 1
 123.720703125 488.75390625 l 1
 121.975585938 495.07421875 l 1
 130.149414062 492.568359375 l 1
 130.475585938 498.780273438 l 1
 136.578125 496.383789062 l 1
 133.631835938 519.377929688 l 1xec
EndSplineSet
Validated: 37
EndChar

StartChar: uni042E
Encoding: 206 1070 23
Width: 379
InSpiro: 1
Flags: W
HStem: -13.1055 21G<29.0059 55.2759> 268.712 2.42578<121.448 129.012>
VStem: 12.0557 34.5459<57.1592 202.623 251.916 342.014 356.673 373.475> 20.1836 33.2871<359.426 440.737> 71.124 15.1035<44.015 130.702 270.78 297.154 412.228 441.295> 88.9727 2.13672<138.248 157.864>
LayerCount: 2
Fore
SplineSet
251.008789062 526.96484375 m 1xdc
 263.466796875 525.563476562 268.459960938 498.663085938 270.169921875 487.610351562 c 0
 277.51953125 439.944335938 298.9375 385.428710938 322.469726562 343.565429688 c 0
 328.536132812 332.793945312 341.366210938 327.166992188 344.58984375 315.288085938 c 0
 348.6328125 300.388671875 333.01953125 235.443359375 347.729492188 232.543945312 c 1
 343.75390625 188.975585938 l 1
 314.895507812 90.87109375 l 1
 305.576171875 40.2666015625 l 1
 281.655273438 20.453125 266.288085938 -39.0302734375 231.052734375 -36.3525390625 c 1
 238.181640625 -22.1123046875 l 1
 236.157226562 -19.5830078125 l 1
 236.157226562 -19.5830078125 231.05078125 -36.3525390625 228.403320312 -14.34375 c 1
 233.849609375 -6.9033203125 246.662109375 3.7021484375 247.133789062 13.873046875 c 0
 247.715820312 25.8916015625 218.452148438 46.0517578125 211.962890625 56.951171875 c 0
 189.556640625 94.5947265625 188.397460938 135.83984375 174.930664062 178.596679688 c 0
 169.962890625 194.333984375 171.356445312 224.018554688 155.875 232.680664062 c 0
 141.060546875 240.9609375 96.70703125 208.646484375 79.625 205.08984375 c 1
 88.97265625 138.248046875 l 1
 91.109375 138.14453125 l 1
 83.814453125 158.6953125 l 1
 85.9560546875 158.591796875 l 1
 87.8994140625 130.762695312 l 1
 78.42578125 129.669921875 80.6015625 115.669921875 80.0283203125 107.37109375 c 0
 78.669921875 87.74609375 79.181640625 52.5849609375 94.2626953125 40.501953125 c 1
 84.681640625 17.2373046875 74.4560546875 53.43359375 73.0087890625 63.4150390625 c 0
 66.8134765625 106.1171875 68.244140625 152.677734375 65.8720703125 194.987304688 c 0
 65.4267578125 203.087890625 58.5595703125 208.8515625 52.2919921875 203.065429688 c 0
 42.5634765625 194.049804688 53.5732421875 158.040039062 52.7890625 144.899414062 c 0
 50.0634765625 99.677734375 63.9501953125 27.435546875 46.6015625 -13.10546875 c 1
 11.41015625 -12.60546875 30.4091796875 50.0576171875 12.0556640625 71.224609375 c 1xec
 22.236328125 97.109375 15.5478515625 141.275390625 14.6103515625 169.33984375 c 0
 14.2431640625 180.373046875 18.515625 191.536132812 12.90234375 201.029296875 c 1
 13.01953125 203.455078125 l 1
 5.5771484375 230.553710938 l 1
 17.0595703125 251.916015625 l 1
 12.72265625 313.065429688 l 1
 13.169921875 339.592773438 l 1
 13.287109375 342.013671875 l 1
 18.2744140625 356.362304688 l 1
 11.849609375 356.672851562 l 1
 11.9677734375 359.099609375 l 1
 22.1875 365.869140625 20.0693359375 385.479492188 20.18359375 397.598632812 c 0
 20.513671875 430.135742188 16.6044921875 491.197265625 38.3798828125 517.221679688 c 0
 59.5400390625 542.495117188 55.7978515625 475.380859375 55.791015625 466.37890625 c 1
 65.6298828125 470.137695312 73.3564453125 495.509765625 86.197265625 485.030273438 c 0
 93.5673828125 479.025390625 88.716796875 459.426757812 89.5126953125 450.161132812 c 0
 91.3544921875 429.247070312 84.419921875 411.91015625 84.5537109375 392.051757812 c 0
 84.69921875 370.21484375 91.716796875 358.274414062 82.998046875 338.639648438 c 0
 78.3759765625 328.255859375 90.556640625 311.708007812 78.013671875 304.846679688 c 1
 86.2275390625 297.154296875 l 1
 85.111328125 287.8359375 90.57421875 272.59765625 80.6533203125 270.680664062 c 1
 89.6171875 241.731445312 110.979492188 256.619140625 129.775390625 265.875976562 c 1
 129.892578125 268.297851562 l 1
 121.331054688 268.711914062 l 1
 121.448242188 271.137695312 l 1
 154.114257812 268.557617188 182.033203125 348.861328125 194.049804688 379.447265625 c 0
 199.266601562 392.780273438 207.0625 413.740234375 197.586914062 425.477539062 c 1
 197.705078125 427.903320312 l 1
 212.083984375 434.1484375 209.895507812 466.940429688 220.549804688 480.014648438 c 0
 225.431640625 486 233.61328125 486.09765625 236.686523438 494.158203125 c 0
 240.005859375 502.88671875 237.556640625 526.748046875 249.780273438 527.01953125 c 0
 250.198242188 527.029296875 250.606445312 527.009765625 251.008789062 526.96484375 c 1xdc
  Spiro
    251.009 526.965 v
    251.009 526.965 v
    261.125 518.609 o
    267.215 502.397 o
    270.17 487.61 o
    281.751 438.433 o
    300.106 388.876 o
    322.47 343.565 o
    330.176 334.095 o
    338.778 325.496 o
    344.59 315.288 o
    343.935 287.894 o
    341.276 251.942 o
    347.729 232.544 v
    343.754 188.976 v
    314.896 90.8711 v
    305.576 40.2666 v
    283.475 11.0363 o
    260.693 -22.1089 o
    231.053 -36.3525 v
    238.182 -22.1123 v
    236.157 -19.583 v
    234.738 -23.1105 o
    231.587 -25.4814 o
    228.403 -14.3438 v
    235.567 -5.99078 o
    243.285 3.70067 o
    247.134 13.873 o
    239.73 27.9454 o
    224.079 43.6245 o
    211.963 56.9512 o
    195.408 95.678 o
    185.529 136.463 o
    174.931 178.597 o
    171.226 197.667 o
    166.585 218.325 o
    155.875 232.681 o
    133.346 230.009 o
    103.664 215.649 o
    79.625 205.09 v
    88.9727 138.248 v
    91.1094 138.145 v
    83.8145 158.695 v
    85.9561 158.592 v
    87.8994 130.763 v
    81.779 126.064 o
    80.2182 116.871 o
    80.0283 107.371 o
    79.7623 84.0232 o
    83.5745 58.8243 o
    94.2627 40.502 v
    84.8248 33.8776 o
    77.0269 47.8864 o
    73.0088 63.415 o
    68.9346 107.059 o
    67.3987 151.605 o
    65.8721 194.987 o
    63.5501 201.962 o
    58.4935 205.344 o
    52.292 203.065 o
    48.2709 186.92 o
    50.8503 163.793 o
    52.7891 144.899 o
    53.8257 92.9025 o
    55.3087 35.7726 o
    46.6016 -13.1055 v
    26.0924 4.24592 o
    21.3452 40.1021 o
    12.0557 71.2246 v
    17.4496 101.895 o
    16.6248 137.217 o
    14.6104 169.34 o
    15.2506 180.339 o
    15.7577 191.057 o
    12.9023 201.029 v
    13.0195 203.455 v
    5.57715 230.554 v
    17.0596 251.916 v
    12.7227 313.065 v
    13.1699 339.593 v
    13.2871 342.014 v
    18.2744 356.362 v
    11.8496 356.673 v
    11.9678 359.1 v
    18.6109 369.383 o
    20.2741 383.75 o
    20.1836 397.599 o
    20.208 437.245 o
    24.0657 481.915 o
    38.3799 517.222 o
    52.2922 517.293 o
    55.983 489.147 o
    55.791 466.379 v
    65.1842 475.202 o
    74.8038 485.695 o
    86.1973 485.03 o
    90.1544 475.393 o
    89.9362 461.971 o
    89.5127 450.161 o
    89.0181 430.233 o
    86.1864 411.277 o
    84.5537 392.052 o
    86.1503 372.879 o
    87.308 356.345 o
    82.998 338.64 o
    82.4369 326.801 o
    83.8528 314.338 o
    78.0137 304.847 v
    86.2275 297.154 v
    86.4901 286.586 o
    86.2576 276.317 o
    80.6533 270.681 v
    93.1802 254.517 o
    110.697 256.582 o
    129.775 265.876 v
    129.893 268.298 v
    121.331 268.712 v
    121.448 271.138 v
    152.09 291.236 o
    177.167 337.249 o
    194.05 379.447 o
    199.386 394.682 o
    202.04 411.306 o
    197.587 425.478 v
    197.705 427.903 v
    207.644 441.265 o
    213.093 462.102 o
    220.55 480.015 o
    226.214 484.547 o
    232.227 488.243 o
    236.687 494.158 o
    238.838 506.482 o
    241.695 520.331 o
    249.78 527.02 o
    250.195 527.02 o
    250.605 527.001 o
    0 0 z
  EndSpiro
246.688476562 442.201171875 m 1
 239.625976562 442.62109375 237.013671875 421.536132812 235.432617188 416.35546875 c 0
 226.611328125 387.083984375 213.9296875 364.01171875 212.3984375 332.376953125 c 1
 219.170898438 339.34375 l 1
 221.3125 339.240234375 l 1
 241.935546875 297.578125 196.5078125 266.091796875 191.0390625 224.046875 c 0
 189.501953125 212.25 200.86328125 199.203125 205.448242188 189.278320312 c 0
 218.458984375 161.040039062 204.690429688 130.564453125 231.344726562 102.205078125 c 0
 240.361328125 92.611328125 227.409179688 76.7548828125 232.198242188 63.958984375 c 0
 237.559570312 49.7060546875 247.693359375 41.853515625 260.384765625 37.58984375 c 1
 286.265625 82.388671875 303.471679688 131.158203125 303.010742188 183.265625 c 1
 305.151367188 183.162109375 l 1
 307 180 l 1
 310 176 l 1
 320.602539062 207.940429688 320.830078125 279.125 305.940429688 309.439453125 c 0
 294.903320312 331.91015625 286.041015625 347.297851562 274.607421875 369.989257812 c 0
 269.379882812 380.3828125 256.586914062 439.788085938 247.384765625 442.092773438 c 0
 247.147460938 442.15234375 246.916015625 442.1875 246.688476562 442.201171875 c 1
  Spiro
    246.688 442.201 v
    246.688 442.201 v
    240.987 436.848 o
    237.481 425.44 o
    235.433 416.355 o
    225.89 388.63 o
    217.083 361.677 o
    212.398 332.377 v
    219.171 339.344 v
    221.312 339.24 v
    223.857 300.239 o
    205.881 263.303 o
    191.039 224.047 o
    193.068 212.007 o
    199.34 200.07 o
    205.448 189.278 o
    212.019 160.485 o
    215.683 131.079 o
    231.345 102.205 o
    234.51 90.8818 o
    231.85 77.416 o
    232.198 63.959 o
    239.06 51.7457 o
    248.639 43.147 o
    260.385 37.5898 v
    283.022 83.6414 o
    297.926 132.344 o
    303.011 183.266 v
    305.151 183.162 v
    307 180 v
    310 176 v
    316.965 218.005 o
    315.961 268.517 o
    305.94 309.439 o
    295.463 330.063 o
    285.349 349.219 o
    274.607 369.989 o
    267.28 392.759 o
    257.36 424.713 o
    247.385 442.093 o
    247.15 442.144 o
    246.917 442.18 o
    0 0 z
  EndSpiro
65.3193359375 441.606445312 m 1
 64.62109375 423.182617188 37.9091796875 396.200195312 53.7060546875 378.958984375 c 1
 53.5888671875 376.533203125 l 1
 53.470703125 374.107421875 l 1xdc
 39.3818359375 361.452148438 46.0849609375 294.66796875 46.32421875 274.774414062 c 0
 46.419921875 267.009765625 42.609375 250.794921875 50.111328125 246.192382812 c 0
 68.9296875 234.623046875 79.3740234375 284.571289062 71.1240234375 295.454101562 c 1
 71.2412109375 297.879882812 l 1
 78.6005859375 316.97265625 l 1
 71.744140625 441.294921875 l 1
 65.3193359375 441.606445312 l 1
  Spiro
    65.3193 441.606 v
    58.4982 421.03 o
    49.536 398.748 o
    53.7061 378.959 v
    53.5889 376.533 v
    53.4707 374.107 v
    45.3063 347.188 o
    44.9413 306.517 o
    46.3242 274.774 o
    45.6823 264.947 o
    45.8182 253.913 o
    50.1113 246.192 o
    65.744 251.385 o
    73.5279 275.301 o
    71.124 295.454 v
    71.2412 297.88 v
    78.6006 316.973 v
    71.7441 441.295 v
    0 0 z
  EndSpiro
77.6005859375 207.620117188 m 1
 72.9658203125 200.553710938 l 1
 77.6005859375 207.620117188 l 1
  Spiro
    77.6006 207.62 v
    72.9658 200.554 v
    0 0 z
  EndSpiro
EndSplineSet
Validated: 37
EndChar

StartChar: uni0422
Encoding: 194 1058 24
Width: 367
Flags: W
HStem: 468.41 22.2861<208.22 295.695 296.489 325.249>
VStem: 161.011 35.6816<218.29 276.469 279.544 457.078> 167.79 21.2568<-27.6235 -6.46191>
LayerCount: 2
Fore
SplineSet
110.036132812 453.04296875 m 0xc0
 99.3779296875 470.114257812 67.353515625 466.693359375 58.7412109375 462.391601562 c 0
 35.39453125 450.731445312 58.5791015625 388.072265625 28.7333984375 384.856445312 c 0
 19.8134765625 383.8984375 12.87890625 389.763671875 11.9873046875 396.330078125 c 0
 9.3623046875 415.546875 27.4580078125 434.958007812 22.666015625 455.143554688 c 0
 20.091796875 466.053710938 6.125 478.479492188 17.92578125 489.376953125 c 0
 31.5361328125 501.942382812 64.388671875 495.991210938 82 495 c 0
 133.254882812 492.118164062 184.153320312 489.329101562 235.356445312 490.696289062 c 0
 246.90234375 491.004882812 255.415039062 497.735351562 267.623046875 496.029296875 c 0
 285.158203125 493.58203125 331.46875 486.772460938 334.52734375 467.973632812 c 0
 335.801757812 460.115234375 322.802734375 461.969726562 317.959960938 464.18359375 c 0
 310.721679688 467.479492188 304.579101562 473.819335938 296.092773438 475.00390625 c 0
 287.579101562 476.192382812 281.029296875 469.958007812 273.154296875 468.41015625 c 0
 259.110351562 465.650390625 218.840820312 476.431640625 210.96484375 462.982421875 c 0
 201.509765625 446.825195312 202.50390625 418.309570312 200.873046875 400.530273438 c 0
 195.571289062 342.88671875 196.692382812 275.219726562 196.692382812 218.290039062 c 1xc0
 201.790039062 220.390625 l 1
 196.793945312 188.544921875 188.434570312 121.5390625 204.338867188 91.466796875 c 1
 187.338867188 76.626953125 193.991210938 39.7587890625 201.790039062 22.150390625 c 1
 211.984375 22.150390625 l 1
 189.046875 -6.4619140625 l 1
 189.046875 -8.5625 l 1
 198.451171875 -15.7197265625 201 -37.84375 181.680664062 -29.46875 c 0
 168.885742188 -23.9150390625 170.54296875 -20.447265625 167.790039062 -9.3564453125 c 0xa0
 155.19921875 41.3974609375 161.010742188 100.780273438 161.010742188 152.380859375 c 0
 161.010742188 173.560546875 178.90234375 264.763671875 153.364257812 277.104492188 c 1
 153.364257812 279.204101562 l 1
 164.298828125 286.283203125 159.099609375 304.607421875 158.411132812 314.913085938 c 0
 156.16796875 347.875976562 163.94140625 391.036132812 160.78125 423.635742188 c 0
 159.889648438 432.583984375 157.977539062 454.904296875 145.590820312 457.848632812 c 0
 130.094726562 461.520507812 133.254882812 431.874023438 117.682617188 425.736328125 c 1
 110.75 435.197265625 113.169921875 448.0234375 110.036132812 453.04296875 c 0xc0
EndSplineSet
Validated: 33
EndChar

StartChar: uni042B
Encoding: 203 1067 25
Width: 430
Flags: W
HStem: -17.043 21G<352.121 360.964> 161.633 2.80176<92.8141 95.7666> 259.587 33.709<173.146 220.252> 273.993 38.9102<97.0282 128.921> 492.81 20G<71.1904 91.6372>
VStem: 49.0869 6.62793<396.252 425.467> 60.1367 35.6299<37.1987 74.79 97.1562 207.1> 211.548 27.832<46.6904 99.6084 100.978 239.57> 330.017 25.5762<176.25 190.806 415.76 516.474> 357.803 9.5293<176.25 193.057> 372.015 2.20996<-5.84082 -0.237305>
LayerCount: 2
Fore
SplineSet
73.4013671875 512.809570312 m 1xefe0
 109.873046875 490.076171875 63.2734375 425.262695312 91.3447265625 403.552734375 c 1
 84.712890625 392.350585938 l 1
 91.4765625 356.42578125 87.2109375 314.234375 128.920898438 312.903320312 c 1xdfe0
 128.920898438 310.1015625 l 2
 126.3125 301.924804688 154.342773438 296.78125 159.603515625 295.111328125 c 0
 177.087890625 289.573242188 206.619140625 275.251953125 221.495117188 293.295898438 c 1
 223.706054688 293.295898438 l 1
 231.110351562 288.662109375 242.672851562 293.6484375 248 284 c 0
 262.124023438 258.426757812 248.001953125 214.302734375 243.712890625 188.141601562 c 0
 238.098632812 154.00390625 241.21484375 112.630859375 239.379882812 77.591796875 c 0
 238.252929688 56.2763671875 257.504882812 35.4677734375 247.711914062 16.603515625 c 0
 236.505859375 -4.9580078125 220.172851562 20.1240234375 207.30859375 21.6396484375 c 0
 191.614257812 23.4853515625 166.634765625 11.3798828125 150.962890625 7.603515625 c 0
 129.544921875 2.44921875 126.912109375 -27.89453125 110.842773438 -37.8115234375 c 0
 100.276367188 -44.330078125 92.12109375 -40.01171875 82.2412109375 -34.419921875 c 0
 44.9736328125 -13.3505859375 62.412109375 33.1201171875 55.71484375 74.7900390625 c 1
 62.34765625 74.7900390625 l 1
 49.0869140625 97.2001953125 l 1
 53.1533203125 95.9111328125 60.13671875 117.286132812 60.13671875 128.015625 c 0
 60.13671875 157.720703125 57.92578125 191.614257812 57.92578125 220.461914062 c 0
 57.92578125 235.26171875 60.7802734375 248.864257812 51.296875 256.875976562 c 1
 57.1552734375 264.778320312 56.359375 269.517578125 53.5078125 279.286132812 c 1
 57.92578125 307.299804688 l 1
 49.0869140625 395.146484375 l 1
 54.015625 393.586914062 55.71484375 415.5859375 55.71484375 425.961914062 c 0
 55.71484375 456.510742188 47.3623046875 462.719726562 71.1904296875 479.197265625 c 0
 78.0654296875 483.948242188 75.2578125 487.298828125 71.1904296875 490.399414062 c 1
 71.1904296875 493.201171875 l 1
 73.4013671875 512.809570312 l 1xefe0
344.077148438 516.907226562 m 1
 344.389648438 516.923828125 344.711914062 516.8984375 345.044921875 516.827148438 c 0
 353.510742188 514.989257812 349.313476562 498.477539062 350.506835938 491.5078125 c 0
 353.977539062 471.0859375 355.174804688 460.580078125 352.963867188 435.368164062 c 0
 352.4765625 429.813476562 353.90234375 424.739257812 355.174804688 419.944335938 c 2
 355.174804688 415.759765625 l 1
 356.405273438 415.759765625 l 1
 360.229492188 403.81640625 362.16015625 393.095703125 364.435546875 379.340820312 c 1
 368.857421875 384.944335938 l 1
 371.068359375 384.944335938 l 1
 361.563476562 333.682617188 367.06640625 265.663085938 367.33203125 212.6640625 c 0
 367.685546875 139.331054688 372.30078125 66.87890625 369.802734375 -5.8408203125 c 1
 372.014648438 -5.8408203125 l 1
 372.014648438 -0.2373046875 l 1
 374.224609375 -0.2373046875 l 1
 374.224609375 -14.2412109375 l 2
 372.063476562 -14.7294921875 364.833007812 -26.7783203125 360.963867188 -17.04296875 c 1
 352.12109375 -17.04296875 l 1
 352.12109375 -14.2412109375 l 1
 366.311523438 9.609375 339.100585938 15.74609375 335.14453125 33.6796875 c 0
 325.8828125 75.5654296875 350.993164062 152.354492188 330.016601562 187.452148438 c 1
 330.016601562 190.254882812 l 1
 330.016601562 193.056640625 l 1
 339.411132812 208.77734375 333.73046875 240.943359375 334.63671875 260.286132812 c 0
 337.6875 326.767578125 327.806640625 399.713867188 330.10546875 466.18359375 c 0
 330.383789062 474.381835938 334.390625 516.390625 344.077148438 516.907226562 c 1
355.174804688 419.944335938 m 2
 355.174804688 424.16015625 l 1
 357.381835938 415.759765625 l 1
 356.405273438 415.759765625 l 2
 355.963867188 417.13671875 355.55078125 418.528320312 355.174804688 419.944335938 c 2
68.9794921875 498.805664062 m 1
 71.1904296875 496.002929688 l 1
 68.9794921875 498.805664062 l 1
355.174804688 460.580078125 m 1
 357.381835938 457.778320312 l 1
 355.174804688 460.580078125 l 1
373.279296875 356.930664062 m 1
 375.485351562 354.12890625 l 1
 373.279296875 356.930664062 l 1
252.442382812 293.295898438 m 1xefe0
 254.653320312 290.494140625 l 1
 252.442382812 293.295898438 l 1xefe0
103.802734375 273.993164062 m 0xdfe0
 92.787109375 273.787109375 90.2236328125 257.766601562 100.319335938 247.913085938 c 0
 117.185546875 231.4609375 160.752929688 223.50390625 181.708007812 224.576171875 c 0
 185.245117188 224.758789062 202.444335938 229.766601562 198.9296875 218.233398438 c 0
 187.170898438 179.443359375 104.91796875 228.315429688 91.4130859375 207.524414062 c 0
 85.666015625 198.685546875 89.1337890625 175.342773438 89.1337890625 164.434570312 c 1
 95.7666015625 164.434570312 l 1
 95.7666015625 161.6328125 l 1
 81.1787109375 157.668945312 93.0703125 133.84375 93.0703125 122.412109375 c 0
 93.0703125 101.26171875 74.1279296875 21.6044921875 100.366210938 10.2822265625 c 0
 109.40625 6.3876953125 142.696289062 23.1845703125 150.764648438 28.1005859375 c 0
 175.079101562 42.9423828125 211.37109375 38.484375 211.547851562 71.98828125 c 0
 211.614257812 82.94140625 214.865234375 91.611328125 208.234375 100.001953125 c 1
 219.662109375 120.6640625 211.9921875 152.033203125 212.943359375 175.63671875 c 0
 214.755859375 220.177734375 239.623046875 260.657226562 190.551757812 259.586914062 c 0xefe0
 184.03125 259.444335938 178.79296875 257.259765625 172.869140625 254.07421875 c 1
 175.079101562 242.872070312 l 1
 154.434570312 235.0390625 127.330078125 266.529296875 109.02734375 273.044921875 c 0
 107.12109375 273.724609375 105.376953125 274.021484375 103.802734375 273.993164062 c 0xdfe0
99.45703125 264.349609375 m 1
 100.916015625 263.412109375 l 1
 99.45703125 264.349609375 l 1
179.497070312 237.268554688 m 1
 181.708007812 234.465820312 l 1
 179.497070312 237.268554688 l 1
100.188476562 234.465820312 m 1
 98.0888671875 227.443359375 101.622070312 226.883789062 106.81640625 226.060546875 c 1
 106.81640625 228.862304688 l 1
 100.188476562 234.465820312 l 1
357.802734375 193.056640625 m 1
 355.592773438 176.25 l 1
 357.802734375 176.25 l 1
 357.802734375 193.056640625 l 1
52.0244140625 207.384765625 m 1
 52.7763671875 205.520507812 l 1
 52.0244140625 207.384765625 l 1
122.29296875 198.046875 m 1
 124.50390625 195.25 l 1
 122.29296875 198.046875 l 1
330.016601562 64.1953125 m 1
 332.227539062 61.3935546875 l 1
 330.016601562 64.1953125 l 1
170.658203125 52.3798828125 m 1
 172.869140625 49.578125 l 1
 170.658203125 52.3798828125 l 1
159.603515625 46.7763671875 m 1
 161.814453125 43.974609375 l 1
 159.603515625 46.7763671875 l 1
77.8193359375 38.3701171875 m 1
 63.1201171875 30.86328125 70.5693359375 -1.4697265625 80.029296875 -12.052734375 c 1
 77.8193359375 38.3701171875 l 1
130.87109375 -14.849609375 m 1
 133.08203125 -17.6513671875 l 1
 130.87109375 -14.849609375 l 1
62.34765625 -34.462890625 m 1
 64.55859375 -37.2646484375 l 1
 62.34765625 -34.462890625 l 1
122.02734375 -37.2646484375 m 1
 124.23828125 -40.06640625 l 1
 122.02734375 -37.2646484375 l 1
EndSplineSet
Validated: 37
EndChar

StartChar: uni042F
Encoding: 207 1071 26
Width: 262
Flags: W
HStem: -24.7295 21G<195.379 203.829>
VStem: 39.0693 28.5205<-45.9027 120.479 325.812 358.825 383.505 427.281> 183.615 28.0967<-14.0694 69.4993> 185.981 38.0615<70.7744 198.348 303.555 406.685>
LayerCount: 2
Fore
SplineSet
208.000976562 524.526367188 m 2xe0
 208.001953125 524.526367188 l 2
 210.232421875 524.623046875 212.223632812 523.864257812 213.731445312 521.853515625 c 0
 217.106445312 517.344726562 212.78125 509.71875 213.69140625 504.500976562 c 0
 217.268554688 483.880859375 223.505859375 470.334960938 223.000976562 448.484375 c 0
 221.950195312 402.692382812 216.646484375 369.421875 219.678710938 323.872070312 c 0
 220.62890625 309.895507812 214.966796875 295.475585938 220 282 c 1
 213.30859375 272.254882812 221.637695312 255.020507812 224.04296875 243.991210938 c 1
 232.129882812 246.103515625 l 1
 230.614257812 234.165039062 222.810546875 227.189453125 219.171875 216.458984375 c 0
 213.006835938 198.296875 211.348632812 114.008789062 224.04296875 99.85546875 c 1
 224.04296875 97.7431640625 l 1xd0
 217.513671875 88.5810546875 224.607421875 80.5576171875 223.192382812 70.294921875 c 0
 220.827148438 53.2646484375 211.428710938 39.9619140625 211.711914062 21.7265625 c 0xe0
 211.93359375 8.421875 226.064453125 -12.3193359375 203.829101562 -14.169921875 c 1
 201.807617188 -24.7294921875 l 1
 188.951171875 -20.6142578125 187.173828125 8.76953125 185.981445312 21.7265625 c 0xd0
 181.473632812 70.9453125 187.293945312 149.984375 183.615234375 199.651367188 c 1
 128.231445312 182.19921875 l 1
 127.28125 149.08984375 103.41015625 160.97265625 83.802734375 152.735351562 c 0
 72.74609375 148.091796875 63.7099609375 134.168945312 71.6337890625 123.1875 c 1
 71.6337890625 121.075195312 l 1
 59.6669921875 108.145507812 63.4482421875 108.565429688 60.2138671875 92.619140625 c 0
 49.744140625 40.9794921875 57.2724609375 4.240234375 73.462890625 -46.857421875 c 1
 16 -56 39.259765625 -17.5673828125 37.0966796875 -2.513671875 c 0
 33.3369140625 23.7548828125 27.244140625 53.5224609375 29.8720703125 79.951171875 c 0
 32.4794921875 106.254882812 44.7919921875 128.458007812 21.1015625 147.5234375 c 1
 24.3759765625 156.765625 33.349609375 161.688476562 36.4833984375 170.750976562 c 0
 39.8583984375 180.512695312 31.2275390625 191.265625 43.45703125 197.444335938 c 0
 58.0302734375 204.802734375 62.1943359375 187.694335938 73.736328125 185.78125 c 0
 107.123046875 182.205078125 171.45703125 240.57421875 174.995117188 255.334960938 c 0
 177.8984375 282.0390625 91.9794921875 301.202148438 77.29296875 296.4921875 c 0
 62.6064453125 291.782226562 58.595703125 254.036132812 41.9609375 268.603515625 c 0
 38.8271484375 271.342773438 16.5126953125 309.92578125 16.5322265625 313.557617188 c 0
 16.552734375 325.090820312 37.423791119 321.490087772 39.0693359375 337.015625 c 0
 42.181640625 366.379882812 40.970703125 411.840820312 37.1708984375 440.260742188 c 0
 36.1201171875 448.127929688 27.001953125 472.280273438 34.4609375 478.17578125 c 0
 47.357421875 488.385742188 57.2412109375 460.9296875 69.6123046875 459.047851562 c 0
 80.0009765625 457.46875 92.5537109375 465.302734375 100.518554688 471.291992188 c 0
 122.934570312 488.173828125 159 490 186.078125 508.52734375 c 0
 190.424538956 511.501238931 200.034179688 524.181640625 208.000976562 524.526367188 c 2xe0
178.3828125 470.638671875 m 0
 169.9921875 471.057617188 143.620117188 460.391601562 139.205078125 455.002929688 c 0
 125.419921875 438.178710938 105.631835938 431.700195312 87.8037109375 419.14453125 c 1
 95.890625 435.260742188 l 1
 79.861328125 429.565429688 49.923828125 405.435546875 69.6123046875 387.467773438 c 1
 69.6123046875 385.356445312 l 1
 61.021484375 383.432617188 60.697265625 362.288085938 67.58984375 358.131835938 c 1
 67.58984375 356.020507812 l 1
 67.58984375 353.908203125 l 1
 34.13671875 329.9609375 95.12109375 323.717773438 105.99609375 320.120117188 c 1
 108.017578125 326.456054688 l 1
 112.181640625 316.5234375 176.442382812 293.192382812 182.223632812 308.022460938 c 0
 184.97265625 315.083007812 180.969726562 327.268554688 180.646484375 334.791992188 c 0
 179.474609375 362.7265625 182.381835938 381.44921875 175.489257812 407.919921875 c 1
 189.901367188 409.8125 182.108398438 440.213867188 182.8359375 450.596679688 c 0
 183.200195312 455.696289062 187.526367188 468.4375 180.087890625 470.375976562 c 0
 179.510742188 470.526367188 178.942382812 470.610351562 178.3828125 470.638671875 c 0
71.6337890625 393.8046875 m 1
 73.6552734375 391.692382812 l 1
 71.6337890625 393.8046875 l 1
75.0126953125 329.977539062 m 1
 76.345703125 329.270507812 l 1
 75.0126953125 329.977539062 l 1
181.59375 80.8505859375 m 1
 183.615234375 78.7392578125 l 1xe0
 181.59375 80.8505859375 l 1
EndSplineSet
Validated: 33
EndChar

StartChar: uni041F
Encoding: 191 1055 27
Width: 349
Flags: W
HStem: 414.214 12.4746<181.346 260.565> 458.616 21.2832<146.35 255.601>
VStem: 57.0547 42.416<37.9522 143.199 145.124 256.522> 63.166 7.95605<356.694 357.841> 71.1221 16.3096<204.047 345.282> 270.11 33.8271<6.35364 117.98> 270.11 25.0762<117.98 353.35> 280.025 17.6123<-1.65239 50.0799>
LayerCount: 2
Fore
SplineSet
99 497 m 1xd0
 98.9990234375 497 l 1
 144.603515625 480.26171875 170.822265625 480.026367188 224.33984375 479.899414062 c 0
 257.549804688 479.817382812 280.741210938 508.236328125 307.828125 483.338867188 c 0
 316.399414062 475.462890625 306.005859375 468.209960938 303.795898438 460.038085938 c 0
 299.9140625 445.72265625 299.260742188 422.12109375 308.936523438 409.279296875 c 1
 294.51171875 397.543945312 296.528320312 366.873046875 307.936523438 354.111328125 c 1
 287.418945312 339.279296875 295.870117188 298.602539062 298.826171875 279.077148438 c 0
 304.052734375 244.569335938 295.75390625 207.8203125 295.186523438 173.153320312 c 0xd2
 294.920898438 155.931640625 301.068359375 134.34375 294.975585938 117.98046875 c 1
 303.9375 117.98046875 l 1
 303.9375 115.7734375 l 1xc4
 286.047851562 102.455078125 296.204101562 47.9052734375 297.637695312 28.7744140625 c 0
 298.32421875 19.5322265625 307.702148438 5.677734375 296.204101562 -2.017578125 c 0
 287.453125 -7.876953125 282.35546875 -1.1162109375 280.025390625 5.4775390625 c 0xc1
 273.455078125 24.017578125 270.439453125 52.2626953125 270.110351562 71.63671875 c 0
 269.005859375 141.067382812 271.634765625 209.747070312 267.393554688 279.081054688 c 0
 266.168945312 298.893554688 275.546875 338.23046875 259.180664062 354.111328125 c 1
 260.180664062 356.318359375 l 1
 260.180664062 358.525390625 l 1
 267.766601562 366.211914062 272.6953125 409.338867188 259.495117188 415.328125 c 0
 247.579101562 420.736328125 229.1796875 414.797851562 216.635742188 414.213867188 c 0
 182.5 412.622070312 147.444335938 404.30859375 117.33984375 390.456054688 c 0
 100.944335938 382.916015625 102.365234375 363.317382812 99.1396484375 349.696289062 c 0
 87.6708984375 301.365234375 90.74609375 252.80859375 87.431640625 204.046875 c 0xcc
 86.2666015625 187.016601562 79.63671875 158.30859375 94.9873046875 144.463867188 c 1
 85.3115234375 117.396484375 98.3662109375 96.4091796875 99.470703125 69.43359375 c 0
 100.127929688 54.0546875 86.1474609375 49.4462890625 84.17578125 37.392578125 c 0
 81.8466796875 23.119140625 92.4189453125 10.3037109375 85.3408203125 -5.55859375 c 0
 80.861328125 -15.580078125 68.3486328125 -20.486328125 60.3447265625 -9.4873046875 c 0
 47.9501953125 7.5625 57.3828125 29.3203125 57.0546875 47.365234375 c 0xe0
 56.216796875 93.853515625 59.2373046875 140.345703125 56.4892578125 186.392578125 c 0
 55.533203125 202.853515625 73.931640625 247.071289062 53.205078125 257.012695312 c 1
 67.1220703125 283.376953125 70.1064453125 315.728515625 71.1220703125 345.282226562 c 0xc8
 71.4208984375 353.540039062 77.1435546875 356.624023438 63.166015625 357.97265625 c 1
 72.185546875 375.383789062 84.5478515625 426.948242188 75.080078125 444.004882812 c 0
 67.345703125 457.918945312 25.384765625 465.083007812 33.08984375 483.258789062 c 0
 41.69140625 503.626953125 83.560546875 469.255859375 99 497 c 1xd0
164.510742188 458.616210938 m 0
 153.034179688 458.659179688 142.814453125 442.234375 132.092773438 441.0546875 c 0
 119.51953125 439.670898438 118.7109375 424.569335938 126.923828125 419.33203125 c 0
 138.392578125 412.000976562 153.522460938 433.0625 166.693359375 433.3828125 c 0
 200.380859375 434.206054688 225.1171875 420.115234375 256.953125 426.688476562 c 0
 264.090820312 428.165039062 268.572265625 434.736328125 260.180664062 435.762695312 c 1
 274.6875 457.208984375 190.838867188 460.688476562 164.510742188 458.616210938 c 0
EndSplineSet
Validated: 33
EndChar

StartChar: uni043E
Encoding: 222 1086 28
Width: 328
Flags: W
VStem: 36.5723 2.67969<242.588 246.949> 42.1982 31.8828<6.59236 181.154> 236.146 51.0986<245.31 371.171> 247.077 34.2607<110.015 256.526>
LayerCount: 2
Fore
SplineSet
267.149414062 511.5234375 m 1xd0
 272.26171875 449.478515625 268.315429688 467.844726562 272.64453125 419.696289062 c 0
 275.859375 403.076171875 263.018554688 382.686523438 285.8984375 372.196289062 c 1
 278.048828125 350.286132812 265.251953125 330.3359375 273.047851562 306.833984375 c 0
 275.727539062 298.797851562 286.334960938 295.5546875 287.245117188 287.0546875 c 0xe0
 291.291015625 248.879882812 278.421875 207.911132812 279.305664062 169.62890625 c 0
 279.626953125 155.834960938 284.84765625 149.111328125 281.337890625 134.958007812 c 0
 274.319335938 106.486328125 242.604492188 79.625 222.966796875 56.4423828125 c 0
 207.803710938 38.57421875 180.690429688 19.474609375 162.392578125 3.6865234375 c 0
 131.717773438 -22.7802734375 101.7890625 -24.7041015625 72.427734375 -51.8798828125 c 0
 65.033203125 -58.7294921875 50.5908203125 -68.623046875 41 -58 c 0
 27.4169921875 -42.9443359375 58.4658203125 -42.451171875 59.3310546875 -28.48046875 c 0
 60.482421875 -9.8955078125 53.3720703125 11.7568359375 50.55859375 30.3818359375 c 0
 44.71875 69.1474609375 45.5732421875 109.004882812 42.1982421875 148.11328125 c 0
 40.5908203125 166.881835938 51.4404296875 213.526367188 36.572265625 229.508789062 c 1
 36.572265625 231.689453125 l 1
 41.931640625 246.94921875 l 1
 39.251953125 246.94921875 l 1
 39.251953125 242.587890625 l 1
 36.572265625 242.587890625 l 1
 33.892578125 251.309570312 l 1
 53.744140625 261.78515625 31.322265625 273.270507812 41.931640625 285.731445312 c 1
 20.2314453125 302.625 62.98828125 364.982421875 90.1533203125 368.575195312 c 1
 84.7939453125 375.1171875 l 1
 121.373046875 435.404296875 l 1
 121.373046875 435.404296875 141.805664062 444.107421875 162.24609375 467.577148438 c 0
 214 527 272.005859375 492.283203125 267.149414062 511.5234375 c 1xd0
242.63671875 478.381835938 m 1
 220.721679688 460.028320312 168.09765625 431.28125 157.515625 408.797851562 c 0
 145.165039062 382.5625 131.865234375 378.7890625 116.459960938 353.32421875 c 0
 104.619140625 333.727539062 80.1630859375 335.037109375 79.4404296875 307.533203125 c 1
 99.7470703125 312.569335938 113.94140625 316.15625 128.756835938 327.584960938 c 0
 150.912109375 344.673828125 218.190429688 368.993164062 233.4609375 391.2890625 c 0
 248.731445312 413.55859375 246.870117188 454.047851562 242.63671875 478.381835938 c 1
236.99609375 373.473632812 m 1
 219.823242188 371.26953125 166.21875 345.750976562 153.600585938 336.390625 c 0
 109.236328125 303.470703125 75.9033203125 280.318359375 78.876953125 231.689453125 c 0
 79.734375 217.65625 68.7734375 190.958984375 84.7939453125 181.544921875 c 1
 70.0322265625 173.640625 73.3583984375 136.951171875 74.0810546875 124.124023438 c 0
 71.5361328125 103.067382812 60.2197265625 87.193359375 70.7607421875 52.1826171875 c 0
 70.841796875 45.51171875 70.41796875 13.5673828125 80.5986328125 10.7666015625 c 0
 97.9052734375 6.005859375 91.10546875 -7.078125 102 2 c 0
 153.717773438 45.09765625 208 81 233.739257812 109.303710938 c 0
 247.372070312 124.294921875 246.43359375 151.772460938 247.077148438 164.369140625 c 0xd0
 248.549804688 194.404296875 259.508789062 228.015625 250.748046875 257.930664062 c 1
 245.388671875 257.930664062 l 1
 234.67578125 245.309570312 l 1
 236.146484375 281.912109375 l 1
 236.99609375 373.473632812 l 1
EndSplineSet
Validated: 37
EndChar

StartChar: uni0424
Encoding: 196 1060 29
Width: 349
Flags: W
HStem: 370.785 7.21484<276 278.66> 411.357 20.4561<220.568 268.306> 486.466 20G<65.8535 68.5137>
VStem: 168.984 33.1748<310.249 405.901> 174.746 38.9951<35.7331 168.305> 180.954 23.8662<482.749 514.912> 278.66 43.2783<260.271 295.144 332.891 367.219>
LayerCount: 2
Fore
SplineSet
65.853515625 502.861328125 m 1xea
 68.513671875 506.465820312 l 1
 68.513671875 506.465820312 95.5927734375 511.458984375 105.036132812 504.461914062 c 0
 116.900390625 495.663085938 139.961914062 468.594726562 161.083007812 471.109375 c 0
 170.447265625 472.221679688 173.399414062 507.87890625 180.954101562 514.643554688 c 0
 191.622070312 524.198242188 196.174804688 515.163085938 204.8203125 509.646484375 c 1
 204.8203125 507.842773438 l 1xe6
 193.408203125 498.77734375 206.227539062 492.600585938 207.317382812 482.596679688 c 0
 210.083984375 456.87890625 204.515625 434.971679688 259.819335938 431.813476562 c 0
 277.482421875 430.803710938 296.19140625 436.703125 311.752929688 424.622070312 c 0
 332.182617188 408.786132812 310.315429688 383.520507812 326.541992188 368.981445312 c 1
 309.224609375 331.923828125 323.959960938 260.509765625 321.938476562 224.584960938 c 0
 321.326171875 213.627929688 309.16796875 209.15234375 295.6015625 213.762695312 c 1
 295.6015625 206.55078125 l 1
 292.940429688 206.55078125 l 1
 287.624023438 213.762695312 l 1
 302.893554688 224.560546875 230.579101562 250.901367188 215.602539062 244.88671875 c 0
 202.329101562 239.55078125 204.646484375 226.16015625 204.034179688 217.139648438 c 0
 203.44921875 208.475585938 199.561523438 202.096679688 209.45703125 195.498046875 c 1
 191.900390625 158.349609375 212.756835938 123.5390625 213.741210938 85.8857421875 c 0
 214.166992188 69.6083984375 192.434570312 47.98046875 194.243164062 30.7890625 c 0
 195.227539062 21.6806640625 196.5546875 7.1923828125 201.370117188 -1.2021484375 c 0
 205.227539062 -7.9580078125 219.302734375 -18.1728515625 214.032226562 -26.578125 c 0
 206.876953125 -37.98828125 187.833007812 -30.0751953125 182 -27 c 2
 171 -15 l 1
 164.745117188 3.4462890625 l 1
 167.185546875 19.05859375 l 1
 160.240234375 29.2314453125 168.719726562 37.939453125 170.421875 46.0009765625 c 0
 174.412109375 64.916015625 176.182617188 101.643554688 174.74609375 120.150390625 c 0
 173.6015625 134.96484375 178.412109375 157.595703125 161.254882812 168.840820312 c 1
 161.254882812 170.64453125 l 1
 161.254882812 172.448242188 l 1
 175.379882812 183.467773438 166.283203125 201.774414062 164.368164062 215.3359375 c 0
 162.29296875 230.114257812 169.022460938 250.176757812 159.392578125 263.830078125 c 0
 152.44921875 273.670898438 99.84765625 293.772460938 83.0888671875 295.95703125 c 0
 73.8046875 297.163085938 63.3232421875 283.161132812 49.8896484375 282.471679688 c 1
 45.4482421875 332.966796875 l 1
 28.609375 423.083984375 l 1
 31.26953125 423.083984375 l 1
 36.591796875 417.672851562 l 1
 37.3359375 424.671875 43.318359375 430.64453125 43.744140625 437.510742188 c 0
 34.2119140625 496.16015625 65.853515625 502.861328125 65.853515625 502.861328125 c 1xea
76.4912109375 478.989257812 m 1
 80.80078125 464.061523438 65.212890625 423.90234375 81.8125 414.068359375 c 1
 81.8125 412.264648438 l 1
 70.4267578125 405.520507812 74.62890625 375.990234375 76.4912109375 366.803710938 c 0
 83.56640625 331.916015625 104.953125 336.837890625 142.620117188 318.5859375 c 0
 155.6015625 312.302734375 151.958984375 303.18359375 167.254882812 299.079101562 c 1
 161.938476562 308.094726562 l 1
 161.938476562 309.8984375 l 1
 174.174804688 317.151367188 168.212890625 338.413085938 168.984375 348.815429688 c 0xf2
 170.287109375 365.938476562 174.782226562 415.018554688 161.907226562 430.109375 c 0
 152.4375 441.189453125 130.8671875 449.712890625 116.395507812 457.934570312 c 0
 104.55859375 464.666015625 92.7177734375 479.161132812 76.4912109375 478.989257812 c 1
223.215820312 411.357421875 m 0
 216.681640625 411.366210938 211.123046875 409.963867188 207.958984375 406.443359375 c 0
 197.610351562 394.905273438 219.290039062 381.275390625 202.159179688 368.981445312 c 1
 207.02734375 350.41796875 190.345703125 302.92578125 209.073242188 287.15625 c 0
 217.692382812 279.9140625 264.376953125 257.705078125 278.049804688 260.150390625 c 0
 291.1640625 262.493164062 285.842773438 279.233398438 278.66015625 283.471679688 c 1
 278.66015625 285.275390625 l 1
 291.641601562 291.490234375 290.471679688 337.181640625 278.66015625 344.163085938 c 1
 278.66015625 345.966796875 l 1
 283.981445312 370.78515625 l 1
 276 370.78515625 l 1
 276 378 l 1
 278.66015625 378 l 1
 283.981445312 372.588867188 l 1
 281.879882812 379.400390625 283.611328125 389.567382812 278.583984375 395.493164062 c 0
 272.962890625 402.100585938 239.912109375 411.334960938 223.215820312 411.357421875 c 0
52.5498046875 293.291015625 m 1
 49.8896484375 291.487304688 l 1
 52.5498046875 293.291015625 l 1
EndSplineSet
Validated: 41
EndChar

StartChar: uni0425
Encoding: 197 1061 30
Width: 304
Flags: W
VStem: 61.8857 28.1377<355.962 475.89> 229.486 37.9688<324.431 390.683 417.866 485.483> 241.982 33.0605<-18.3709 179.266>
LayerCount: 2
Fore
SplineSet
132.90625 232.842773438 m 0xa0
 137.334960938 236.881835938 89.50390625 213.591796875 69.07421875 202.34765625 c 0
 50.34765625 192.041015625 34.25 222.731445312 66 231 c 0
 81.591796875 235.060546875 117.619775852 251.993131549 116 269 c 0
 114.983398438 279.673828125 110.778282873 271.641271601 105.573242188 281.295898438 c 0
 100.62109375 290.481445312 108.752929688 302.994140625 97.8095703125 310.493164062 c 0
 88.228515625 317.04296875 70.3427734375 299.092773438 62.513671875 317.303710938 c 0
 56.8037109375 330.538085938 61.4970703125 348.76171875 61.8857421875 362.534179688 c 0
 62.837890625 396.69140625 66.2548828125 434.5859375 60.9775390625 468.33203125 c 0
 59.2255859375 479.678710938 48.43359375 510.297851562 64.8056640625 517.15625 c 0
 83.01171875 523.625976562 106.5 489.517578125 103 474 c 1
 90.0234375 475.889648438 l 1
 91.212890625 425.280273438 87.96875 367.041992188 121.837890625 322.859375 c 0
 129.27734375 313.127929688 156.290039062 286.634765625 171.645507812 289.185546875 c 0
 183.9296875 291.2265625 212.900390625 313.78515625 215.776367188 322.859375 c 0
 225.076171875 352.28515625 229.248046875 375.540039062 231.973632812 403.956054688 c 0
 233.29296875 417.7734375 241.143554688 431.321289062 229.486328125 443.771484375 c 1
 229.486328125 445.661132812 l 1
 238.720703125 457.969726562 226.090820312 475.5 231.84375 488.908203125 c 0
 244.96875 515.749023438 268.72265625 486.747070312 267.455078125 454.178710938 c 1xc0
 262.754882812 437.364257812 272.741210938 433.56640625 275.422851562 417.103515625 c 0
 276.482421875 410.547851562 272.741210938 401.6796875 272.741210938 394.651367188 c 1
 279.229492188 390.873046875 l 1
 263.462890625 387.15625 264.395507812 362.16015625 262.924804688 351.198242188 c 0
 258.05859375 314.888671875 187.282226562 281.670898438 191.672851562 244.178710938 c 1
 211.61328125 246.87109375 218.44921875 220.469726562 233.329101562 210.6953125 c 0
 243.040039062 204.309570312 257.09765625 213.139648438 263.82421875 205.5625 c 0
 269.1875 199.53515625 266.198242188 184.428710938 268.75 177.500976562 c 0
 281.7265625 142.193359375 275.735351562 95.5302734375 275.04296875 58.478515625 c 0
 274.762695312 43.576171875 285.619140625 -15.1064453125 264.791992188 -18.8828125 c 0
 243.012695312 -22.8330078125 240.54296875 20.7734375 241.982421875 31.9775390625 c 0
 246.654296875 68.3359375 251.240234375 138.33203125 230.790039062 171.047851562 c 0
 219.694335938 188.798828125 221 188 203 202 c 1
 179 219 l 1
 169 226 l 1
 141.337890625 222.192382812 112.159179688 174.217773438 107 155 c 0
 101.981445312 136.305664062 102.390625 120.858398438 95.3564453125 102.485351562 c 0
 84.044921875 72.9404296875 79.3525390625 42.00390625 71.1552734375 11.80078125 c 0
 67.5439453125 -1.5029296875 87.0517578125 -13.55078125 76.5625 -25.5458984375 c 0
 55.7998046875 -49.2578125 49.5966796875 -0.6962890625 50.046875 8.0224609375 c 0
 58 162 64 170 132.90625 232.842773438 c 0xa0
EndSplineSet
Validated: 33
EndChar

StartChar: uni0426
Encoding: 198 1062 31
Width: 339
Flags: W
HStem: 250.938 2.00098<228.643 231.599> 495.021 20G<239.278 251.316>
VStem: 42.376 2.31445<392.267 394.982 438.998 443> 44.6904 34.7021<170.165 231.09 255.261 282.666 363.68 443> 48.3223 41.1367<284.008 362.741> 217.077 34.9229<398 438.451> 228.643 31.916<97.2635 181.879 250.938 261.194> 274.487 35.583<-82.8158 0.818996 25.1043 51.8062>
LayerCount: 2
Fore
SplineSet
254.09375 515.021484375 m 1xc5
 248.536132812 475.008789062 l 1
 253.200195312 446.963867188 l 1
 252 398 l 1xc5
 256.62890625 398 l 1
 261.602539062 405.776367188 262.150390625 366.423828125 263.296875 354.931640625 c 0
 265.703125 330.807617188 249.346679688 310.2265625 258.23046875 284.948242188 c 1
 253.36328125 280.873046875 259.362304688 273.037109375 261.916015625 264.942382812 c 1
 268.858398438 262.94140625 l 1
 250.256835938 226.059570312 266.55078125 163.899414062 260.55859375 123.903320312 c 0
 259.33203125 115.66796875 249.7734375 67.423828125 235.567382812 89.0205078125 c 0
 226.891601562 102.190429688 238.469726562 134.040039062 235.948242188 148.919921875 c 0
 234.079101562 164.444335938 235.375976562 181.280273438 228.95703125 181.920898438 c 1
 235.584960938 250.938476562 l 1
 228.642578125 250.938476562 l 1
 228.642578125 252.939453125 l 1xc3
 243.588867188 254.606445312 227.508789062 287.578125 226.329101562 294.950195312 c 0
 221.376953125 325.755859375 230.631835938 359.572265625 224.014648438 388.979492188 c 0
 221.5625 399.890625 209.209960938 421.650390625 217.077148438 430.993164062 c 1
 217.077148438 432.994140625 l 1
 243.521484375 451.00390625 222.533203125 484.640625 221.700195312 509.018554688 c 1
 227.775390625 510.376953125 224.461914062 496.248046875 254.09375 515.021484375 c 1xc5
63.6318359375 506.309570312 m 0
 75.4775390625 505.390625 75.0546875 475.759765625 79.392578125 469.005859375 c 1xd1
 72.05859375 460.626953125 75.13671875 443.388671875 81.70703125 434.99609375 c 1
 81.70703125 432.994140625 l 1
 72.9619140625 422.999023438 71.919921875 375.3125 76.3623046875 363.081054688 c 0
 79.0458984375 355.749023438 88.279296875 353.194335938 89.458984375 344.9296875 c 0xc9
 92.60546875 322.71484375 82.2177734375 305.672851562 88.6494140625 282.947265625 c 1
 76.9423828125 277.036132812 79.392578125 265.408203125 79.392578125 254.94140625 c 0
 79.392578125 229.37890625 72.0341796875 193.040039062 83.7646484375 169.030273438 c 0
 88.345703125 159.659179688 102.415039062 160.193359375 104.219726562 148.897460938 c 0
 105.723632812 139.676757812 88.951171875 99.6396484375 100.357421875 93.5361328125 c 0
 106.418945312 90.29296875 120.4609375 98.2890625 125.666015625 100.763671875 c 0
 143.366210938 109.169921875 179.487304688 126.037109375 200.448242188 116.899414062 c 1
 200.448242188 114.8984375 l 1
 170.579101562 92.404296875 136.508789062 80.884765625 100 67 c 1
 92 45 l 1
 169.783203125 79.0966796875 195.358398438 68.3193359375 242.09375 78.892578125 c 1
 257.41015625 66.11328125 280.869140625 102.194335938 296.787109375 95.412109375 c 0
 302.709960938 92.8974609375 301.16015625 78.6513671875 304.676757812 74.076171875 c 0
 309.53515625 67.7265625 305.583007812 57.9189453125 308.9375 50.6552734375 c 0
 319.788085938 27.0078125 307.826171875 -2.234375 310.0703125 -28.142578125 c 0
 307.737304688 -32.21875 310.232421875 -29.9931640625 310.0703125 -32.1484375 c 0
 309.514648438 -45.634765625 311.852539062 -54.7734375 312.26953125 -68.2373046875 c 0
 312.431640625 -73.7431640625 313.588867188 -125.905273438 302.645507812 -118.010742188 c 0
 297.208984375 -114.080078125 314.350585938 -102.330078125 309.353515625 -96.634765625 c 0
 303.592773438 -90.05078125 292.532226562 -93.1513671875 289.36328125 -84.046875 c 0
 280.223632812 -57.6708984375 280.849609375 -38.5986328125 280.849609375 -11.1357421875 c 0
 280.849609375 4.482421875 286.40234375 27.287109375 274.487304688 40.8828125 c 1
 274.487304688 42.8798828125 l 1
 274.487304688 44.880859375 l 1
 279.646484375 55.572265625 268.815429688 56.4296875 258.288085938 53.3291015625 c 0
 238.784179688 47.5888671875 220.137695312 45.67578125 202.762695312 36.2109375 c 0
 183.258789062 25.599609375 152.08984375 28.875 132.608398438 18.412109375 c 0
 113.359375 8.0703125 63.078125 -18.6796875 43.0888671875 0.486328125 c 0
 29.9697265625 13.05859375 51.7646484375 21.154296875 55.720703125 31.90234375 c 0
 58.54296875 39.57421875 55.1650390625 53.333984375 55.53515625 61.8828125 c 0
 57.6640625 109.5 50.0537109375 165.276367188 50.6328125 212.926757812 c 0
 50.8408203125 230.880859375 56.5361328125 259.375 44.6904296875 274.947265625 c 1
 44.6904296875 276.944335938 l 1xd1
 54.19921875 282.936523438 48.322265625 297.78515625 48.322265625 306.956054688 c 0
 48.322265625 337.072265625 51.029296875 366.021484375 42.3759765625 394.982421875 c 1
 44.6904296875 394.982421875 l 1xe9
 44.6904296875 390.98046875 l 1xd1
 47 390.98046875 l 1
 47 443 l 1
 44.6904296875 443 l 1
 44.6904296875 438.998046875 l 1
 42.3759765625 438.998046875 l 1
 42.3759765625 467.004882812 l 1
 42.3759765625 469.005859375 l 1xe1
 50.54296875 477.64453125 46.9794921875 502.82421875 61.0927734375 506.095703125 c 0
 61.99609375 506.309570312 62.8427734375 506.37109375 63.6318359375 506.309570312 c 0
EndSplineSet
Validated: 33
EndChar

StartChar: uni0427
Encoding: 199 1063 32
Width: 304
Flags: W
HStem: 486.967 20G<22.3984 56.0033>
VStem: 22.3018 37.3652<344.406 441.66> 22.3984 28.8213<477.7 506.967> 203.021 35.7402<92.4974 199.65> 208.179 36.0605<-30.6748 70.4323> 224.851 20.7637<-24.0811 15.189>
LayerCount: 2
Fore
SplineSet
22.3984375 506.966796875 m 1xa0
 51.2197265625 506.966796875 l 1xa0
 62.5107421875 459.759765625 l 1
 54.0234375 441.66015625 l 1
 59.6669921875 441.66015625 l 1
 59.6669921875 439.513671875 l 1
 49.82421875 430.69921875 53.6520663844 334.403224751 64.033203125 327.665039062 c 0
 69.6044921875 324.048828125 87.8056640625 315.666992188 93 318 c 2
 117.420898438 303.7421875 l 1
 200.649414062 263.45703125 l 1
 211.771484375 303.436523438 205.487304688 403.50390625 201.196289062 445.075195312 c 0
 199.784179688 458.68359375 204.506835938 476.634765625 196.883789062 487.990234375 c 1
 196.883789062 490.13671875 l 2
 200.53515625 495.610351562 199.763671875 504.893554688 205.014648438 508.766601562 c 0
 217.869140625 518.2421875 245.70703125 484.163085938 248.756835938 472.6015625 c 0
 255.8515625 445.576171875 229.841796875 366.032226562 246.291015625 341.268554688 c 1
 246.291015625 339.122070312 l 1
 231.686523438 317.141601562 254.234375 264.490234375 235 249 c 1
 242.526367188 229.688476562 l 1
 235 225.396484375 l 1
 231 223.25 l 1
 239.205078125 215.379882812 238.703125 199.791992188 238.760742188 188.919921875 c 0xd0
 238.911132812 163.241210938 229.1640625 101.819335938 246.291015625 83.7783203125 c 1
 246.291015625 81.6357421875 l 1
 240.400390625 76.1708984375 244.634765625 66.1025390625 244.239257812 58.0322265625 c 0x88
 243.091796875 34.6865234375 246.009765625 12.2021484375 245.614257812 -10.6328125 c 0
 245.500976562 -16.666015625 236.237304688 -47.4326171875 224.850585938 -31.3759765625 c 0x84
 214.38671875 -16.6064453125 223.028320312 10.369140625 208.178710938 25.84375 c 1x88
 211.001953125 38.181640625 207.744140625 61.015625 200.649414062 70.9052734375 c 1
 200.649414062 73.0517578125 l 1
 200.649414062 75.197265625 l 1
 206.840820312 84.5078125 202.776367188 94.4580078125 203.020507812 105.235351562 c 0
 203.736328125 135.692382812 206.97265625 170.12109375 198.766601562 199.650390625 c 1
 196.883789062 199.650390625 l 1
 167.825195312 228.59375 113.076171875 248.581054688 74.2109375 253.403320312 c 0
 61.6953125 254.954101562 44.265625 237.263671875 37.0947265625 240.735351562 c 0
 20.36328125 248.845703125 21.212890625 277.41796875 27.0849609375 291.915039062 c 1
 15.095703125 293.110351562 1.7685546875 303.444335938 5.1181640625 319.69140625 c 0
 7.3955078125 330.665039062 20.13671875 332.049804688 22.7158203125 343.443359375 c 0
 27.2509765625 363.533203125 22.7158203125 412.3671875 22.3017578125 433.075195312 c 0xd0
 21.5693359375 468.966796875 25.6357421875 471.459960938 22.3984375 506.966796875 c 1xa0
71.9755859375 289.974609375 m 0
 70.2587890625 290.002929688 68.48046875 296.833984375 66.6279296875 296.440429688 c 0
 55.8427734375 294.151367188 47.4438954169 292.654358946 56.4453125 282.48046875 c 0
 62.0908203125 276.099609375 162.241045309 241.003987497 167.436523438 247.146484375 c 0
 180 262 162.447265625 256.946289062 160 260 c 0
 149.80078125 272.75 88.5771484375 289.701171875 71.9755859375 289.974609375 c 0
EndSplineSet
Validated: 33
EndChar

StartChar: uni0428
Encoding: 200 1064 33
Width: 451
Flags: W
HStem: 27.708 32.1777<252.033 370.578> 78.873 9.74121<200.086 206.616>
VStem: 50.9414 42.9424<229.634 231 236.815 437.358> 62.248 36.5303<73.4482 231 236.815 414.755> 191.088 2.44727<447.619 454.379> 205.747 35.3877<165.274 437.492> 254.373 2.44824<119.001 125.436> 352.263 28.9277<85.0277 283.691 335.302 473.181>
LayerCount: 2
Fore
SplineSet
58.28125 520.990234375 m 0xef
 68.4892578125 533.68359375 71.91015625 496.287109375 75.5341796875 482.653320312 c 0
 81.82421875 458.989257812 93.859375 437.55078125 93.8837890625 412.495117188 c 1xef
 98.7783203125 414.754882812 l 1
 98.0439453125 353.932617188 86.9580078125 295.509765625 98.7783203125 233.930664062 c 1
 91.4365234375 231.669921875 l 1
 103.109375 217.42578125 96.9658203125 199.670898438 97.1630859375 183.245117188 c 0
 97.5791015625 147.245117188 96.9677734375 109.443359375 101.225585938 73.4482421875 c 1
 124.987304688 79.6748046875 164.095703125 85.81640625 188.640625 88.6142578125 c 0
 194.293945312 89.2607421875 213.626953125 88.822265625 206.3828125 78.873046875 c 0
 199.849609375 69.9130859375 181.373046875 70.95703125 171.510742188 66.8818359375 c 0
 147.944335938 57.1396484375 105.194335938 40.8447265625 90.0947265625 21.4609375 c 1
 131.697265625 35.572265625 l 1
 242.137695312 62.146484375 l 1
 242.137695312 64.40625 l 1
 215.536132812 79.677734375 218.888671875 110.98046875 214.77734375 134.4765625 c 0
 202.321289062 205.52734375 207.264648438 291.831054688 205.747070312 363.987304688 c 0
 205.35546875 382.05859375 209.1484375 445.98046875 193.53515625 454.399414062 c 1
 193.53515625 447.619140625 l 1
 191.087890625 447.619140625 l 1
 193.021484375 460.828125 197.989257812 516.849609375 212.6484375 512.98046875 c 0
 233.204101562 507.564453125 223.391601562 454.227539062 230.5625 439.536132812 c 0
 251.681640625 396.19921875 243.018554688 336.012695312 241.134765625 288.177734375 c 0
 239.053710938 234.379882812 240.155273438 171.353515625 251.92578125 118.654296875 c 1
 254.373046875 118.654296875 l 1
 254.373046875 125.435546875 l 1
 256.821289062 125.435546875 l 1
 256.821289062 107.1875 242.749023438 75.3671875 260.001953125 60.8984375 c 0
 269.961914062 52.5693359375 354.8671875 60.2138671875 370.578125 59.8857421875 c 1
 347.965820312 102.029296875 351.333007812 157.224609375 352.262695312 204.545898438 c 0
 352.60546875 222.90234375 361.733398438 270.71875 346.659179688 284.35546875 c 1
 354 324 l 1
 344.211914062 337.561523438 l 1
 351.553710938 335.301757812 l 1
 345.764648438 473.180664062 l 1
 338.422851562 470.919921875 l 1
 341.99609375 477.703125 349.875976562 499.411132812 356.360351562 503.129882812 c 0
 366.638671875 509.015625 374.518554688 492.861328125 378.532226562 487.244140625 c 0
 388.908203125 472.733398438 387.635742188 437.336914062 389.618164062 418.932617188 c 0
 392.016601562 396.619140625 380.33203125 374.94921875 380.9921875 353.383789062 c 0
 382.584960938 300.275390625 383.7109375 225.926757812 381.190429688 172.901367188 c 0
 380.504882812 158.458007812 378.116210938 89.685546875 390.15625 84.75 c 1
 376.01171875 54.8564453125 392.897460938 52.603515625 416.977539062 39.5751953125 c 0
 423.659179688 35.9677734375 452.16796875 30.791015625 443.65234375 18.3125 c 0
 437.338867188 9.029296875 391.625 26.7158203125 380.26953125 27.7080078125 c 0
 340.845703125 31.1533203125 261.104492188 18.2353515625 222.561523438 11.7373046875 c 0
 206.556640625 9.0400390625 190.526367188 13.7822265625 176.40625 3.3779296875 c 1
 186.1953125 -5.6630859375 l 1
 140.383789062 4.7294921875 98.5634765625 -24.7041015625 58.283203125 -37.890625 c 0
 45.0439453125 -42.2255859375 35.4755859375 -34.669921875 31.3642578125 -23.7451171875 c 1
 42.205078125 -17.76953125 65.404296875 -6.375 68.68359375 5.681640625 c 0
 71.27734375 15.283203125 58.4052734375 21.259765625 57.8427734375 30.501953125 c 0
 56.0556640625 60.2314453125 62.76171875 91.408203125 58.7236328125 123.174804688 c 0
 51.7490234375 178.322265625 59.6533203125 238.161132812 62.248046875 292.698242188 c 0xdf
 64.5478515625 341.291015625 53.1923828125 389.213867188 50.94140625 437.358398438 c 1
 48.494140625 437.358398438 l 1
 46.046875 430.577148438 l 1
 43.599609375 430.577148438 l 1
 45.068359375 441.58984375 47.41796875 446.440429688 36.2587890625 453.180664062 c 1
 57.9404296875 472.913085938 53.294921875 514.790039062 58.28125 520.990234375 c 0xef
EndSplineSet
Validated: 33
EndChar

StartChar: uni0429
Encoding: 201 1065 34
Width: 446
Flags: W
HStem: 477.795 20G<349.871 370.051>
VStem: 43.7422 29.2754<83.4316 155.272 158.206 497.701> 185.988 44.7334<56.4745 172.546 213.24 483.645> 348.574 39.1992<96.7332 433.068> 394.086 22.5088<-166.102 -128.098> 409.12 15.0332<-117.416 -105.122> 409.12 1.89648<-117.467 -112.417>
LayerCount: 2
Fore
SplineSet
46.53125 513.649414062 m 0xf2
 67.560546875 535.368164062 76.1689453125 444.140625 74.1328125 412.814453125 c 0
 69.55859375 342.428710938 74.9140625 271.685546875 73.017578125 201.060546875 c 0
 72.236328125 171.705078125 64.119140625 108.229492188 80.1572265625 82.18359375 c 1
 72.431640625 72.9775390625 67.6337890625 34.6171875 85.9033203125 32.1015625 c 0
 100.323242188 30.115234375 131.572265625 36.4638671875 144.151367188 41.697265625 c 0
 163.172851562 49.6103515625 186.74609375 25.6484375 197.762695312 43.771484375 c 0
 205.349609375 56.267578125 194.416015625 116.301757812 192.575195312 128.8984375 c 0
 187.666992188 162.666015625 202.528320312 203.849609375 185.98828125 234.874023438 c 1
 185.98828125 237.39453125 l 1
 199.90625 251.755859375 189.196289062 280.19921875 188.833007812 297.895507812 c 0
 187.662109375 351.4765625 188.303710938 405.471679688 186.713867188 459.231445312 c 0
 186.155273438 477.69921875 213.428710938 541.638671875 231 496 c 0
 240.204101562 472.107421875 226.565429688 445.356445312 238.614257812 420.376953125 c 1
 230.247070312 422.897460938 l 1
 230.247070312 340.825195312 223.05078125 257.555664062 230.721679688 175.8515625 c 0
 232.060546875 161.381835938 218.956054688 58.76953125 239.149414062 55.5234375 c 0
 253.4296875 53.2236328125 333.275390625 73.79296875 338.407226562 85.9609375 c 0
 350.875 115.588867188 352.478515625 206.111328125 348.57421875 236.790039062 c 0
 344.138671875 271.46484375 350.219726562 315.65234375 348.239257812 350.23828125 c 0
 346.927734375 373.32421875 361.766601562 417.495117188 342.186523438 433.85546875 c 1
 349.466796875 445.686523438 340.708984375 497.794921875 359.033203125 497.794921875 c 0
 381.068359375 497.794921875 385.208007812 427.987304688 385.234375 413.688476562 c 0
 385.374023438 337.9140625 382.473632812 256.907226562 387.7734375 181.331054688 c 0
 388.721679688 167.717773438 368.927734375 108.883789062 371.967773438 96.1005859375 c 0
 376.708984375 76.314453125 399.772460938 98.447265625 402.505859375 80.4609375 c 0
 405.323242188 61.9345703125 325.529296875 55.697265625 317.078125 41.4541015625 c 1
 333.227539062 41.4541015625 364.577148438 21.455078125 378.077148438 28.38671875 c 0
 391.380859375 35.2392578125 385.858398438 74.1103515625 411.016601562 63.8251953125 c 0xf2
 427.361328125 57.1474609375 421.448242188 -5.0087890625 428.64453125 -21.5263671875 c 1
 420.666992188 -28.8212890625 421.001953125 -21.193359375 428.64453125 -28.693359375 c 1
 428.64453125 -31.2138671875 l 1
 414.670898438 -47.625 418.686523438 -54.650390625 419.69140625 -74.27734375 c 0
 420.444335938 -88.6416015625 426.10546875 -94.5888671875 424.153320312 -108.173828125 c 0xf4
 422.033203125 -123.009765625 410.849609375 -112.416992188 411.016601562 -127.323242188 c 0xf2
 411.18359375 -144.109375 422.256835938 -143.541992188 416.594726562 -161.80859375 c 0
 412.271484375 -175.766601562 396.84765625 -166.643554688 394.0859375 -156.825195312 c 0xf8
 389.819335938 -141.515625 393.221679688 -129.032226562 400.752929688 -114.9453125 c 1
 409.120117188 -117.466796875 l 1
 409.120117188 -104.862304688 l 1
 397.962890625 -107.3828125 l 1
 385.5234375 -60.19921875 399.217773438 -86.5673828125 386.666992188 -39.171875 c 0
 383.34765625 -26.6279296875 383.654296875 -13.20703125 375.0078125 -2.7001953125 c 0
 360.727539062 14.6201171875 254.266601562 37.1484375 241.771484375 19.640625 c 1
 238.982421875 19.640625 l 1
 216.697265625 25.8701171875 192.068359375 -20.083984375 191.56640625 18.8076171875 c 1
 163.061523438 7.1689453125 120.081054688 13.6416015625 97.65625 -4.8447265625 c 0
 86.52734375 -14.0380859375 103.485351562 -31.4072265625 90.2646484375 -38.1298828125 c 0
 79.5263671875 -43.587890625 69.5693359375 -32.298828125 59.3056640625 -31.7119140625 c 0
 46.9208984375 -31.005859375 34.091796875 -36.1767578125 22.3212890625 -29.001953125 c 0
 0.900390625 -15.9462890625 44.8857421875 -3.1904296875 48.0087890625 9.078125 c 0
 52.91796875 28.5166015625 41.455078125 59.0751953125 39.1953125 79.234375 c 0
 36.9638671875 99.1142578125 42.1796875 133.186523438 43.7421875 153.1640625 c 1
 35.3740234375 155.684570312 l 1
 35.3740234375 158.206054688 l 1
 43.7421875 158.206054688 l 1
 33.728515625 210.872070312 42.765625 265.143554688 40.646484375 318.08984375 c 0
 37.859375 387.731445312 29.5537109375 496.115234375 46.53125 513.649414062 c 0xf2
EndSplineSet
Validated: 37
EndChar

StartChar: uni042A
Encoding: 202 1066 35
Width: 359
Flags: W
VStem: 144.147 26.7549<168.151 259.208 312.841 383.551 407.711 440.983>
LayerCount: 2
Fore
SplineSet
138.916015625 461.768554688 m 0
 130.916015625 447.768554688 112.955078125 432.143554688 101.139648438 414.631835938 c 0
 88.83203125 396.390625 76.2568359375 375.602539062 57.1943359375 364.372070312 c 0
 43.705078125 356.4296875 31.0859375 372.173828125 34.3193359375 386.255859375 c 0
 38.6669921875 405.161132812 58.01953125 418.71875 70.572265625 431.395507812 c 0
 92.4443359375 453.505859375 108.674804688 478.165039062 133 498 c 0
 141.048828125 504.569335938 156.856445312 527.8359375 168.182617188 524.08984375 c 0
 177.814453125 520.895507812 177.703125 454.534179688 176.810546875 443.008789062 c 0
 172.396484375 386.553710938 164.302734375 307.330078125 215.583007812 270.6015625 c 0
 225.616210938 263.412109375 247.733398438 253.939453125 260.0859375 256.672851562 c 0
 269.048828125 258.662109375 274.288085938 273.875976562 284.41015625 269.600585938 c 0
 296.6953125 264.403320312 298.033203125 233.543945312 302.447265625 221.372070312 c 1
 298.813476562 217.815429688 309.091796875 210.380859375 307.708984375 202.455078125 c 0
 302.380859375 171.940429688 300.0390625 121.596679688 307.842773438 91.13671875 c 0
 310.831054688 79.4384765625 324.98828125 75.87890625 321.465820312 62.759765625 c 0
 312.591796875 29.779296875 280.530273438 53.345703125 257.85546875 35.6318359375 c 0
 243.8984375 24.732421875 257.900390625 8.9013671875 266.774414062 1.736328125 c 1
 266.774414062 -0.62890625 l 1
 204.345703125 0.53125 l 1
 168.672851562 -19.3701171875 l 1
 164.704101562 -36.1025390625 170.166015625 -54.767578125 155.294921875 -62.3935546875 c 1
 147.603515625 -53.419921875 141.204101562 -55.890625 130.770507812 -57.6640625 c 1
 135.340820312 5.9677734375 199.5078125 24.3427734375 240.01953125 62.748046875 c 0
 248.313476562 70.615234375 266.194335938 75.810546875 270.787109375 86.6552734375 c 0
 274.778320312 96.0361328125 270.653320312 111.971679688 269.739257812 121.877929688 c 0
 267.487304688 146.499023438 281.35546875 202.634765625 263.407226562 222.985351562 c 0
 253.909179688 233.749023438 224.500976562 234.399414062 211.034179688 240.301757812 c 0
 196.854492188 246.516601562 187.4453125 261.08984375 170.90234375 259.208007812 c 1
 173.131835938 171.712890625 l 1
 158.416992188 156.001953125 163.991210938 85.4365234375 177.590820312 70.0302734375 c 1
 177.590820312 67.666015625 l 2
 174.068359375 58.8662109375 178.817382812 50.486328125 175.852539062 41.7578125 c 0
 167.803710938 18.046875 145.953125 36.88671875 140.536132812 51.1123046875 c 0
 129.900390625 79.125 147.915039062 114.397460938 137.458984375 143.336914062 c 1
 144.258789062 141.53515625 144.950195312 175.387695312 141.91796875 188.266601562 c 0
 139.198242188 199.848632812 145.083984375 214.055664062 144.147460938 226.1015625 c 0
 142.029296875 253.041015625 142.006835938 311.69140625 144.147460938 338.9609375 c 0
 144.793945312 347.100585938 147.692382812 377.006835938 144.147460938 383.890625 c 0
 138.26171875 395.3359375 124.103515625 376.037109375 119.622070312 369.702148438 c 0
 109.9453125 356.02734375 65.376953125 290.862304688 48.275390625 327.137695312 c 0
 42.5234375 339.33203125 78.5751953125 359.271484375 86.1787109375 367.337890625 c 0
 102.811523438 384.985351562 138.461914062 405.99609375 146.376953125 431.185546875 c 0
 149.048828125 439.689453125 145.376953125 473.07421875 138.916015625 461.768554688 c 0
EndSplineSet
Validated: 33
EndChar

StartChar: uni0401
Encoding: 161 1025 36
Width: 309
Flags: W
HStem: 301.122 8.85547<220.974 236.233>
VStem: 62.6816 30.7031<86.8473 154.168 161.896 243.079 349.342 421.023> 71.3594 21.4385<363.417 422.497> 205.658 25.1006<570.122 638.887>
LayerCount: 2
Fore
SplineSet
217.086914062 638.946289062 m 0x90
 220.763671875 639.041015625 224.721679688 637.083007812 227.966796875 632.563476562 c 0
 233.418945312 624.954101562 229.418945312 608.202148438 230.758789062 598.703125 c 0
 232.303710938 587.782226562 234.895507812 577.092773438 236.236328125 566.154296875 c 1
 240.77734375 571.163085938 l 1
 243.048828125 571.163085938 l 1
 228.897460938 511.026367188 205.7265625 601.740234375 205.658203125 623.737304688 c 0
 205.616210938 632.928710938 210.9609375 638.788085938 217.086914062 638.946289062 c 0x90
101.758789062 635.697265625 m 1
 117.659179688 633.999023438 112.787109375 580.213867188 131.43359375 556.251953125 c 0
 132.774414062 550.6484375 129.797851562 545.868164062 124.504882812 545.279296875 c 0
 103.833007812 542.981445312 64.7841796875 632.638671875 99.6083984375 635.637695312 c 0
 100.357421875 635.697265625 101.07421875 635.719726562 101.758789062 635.697265625 c 1
278.520507812 513.346679688 m 0
 288.07421875 513.250976562 295.353515625 511.997070312 295.2890625 508.348632812 c 0
 295.159179688 500.13671875 261.522460938 498.53125 254.841796875 496.64453125 c 0
 245.538085938 494.021484375 237.860351562 487.764648438 228.817382812 484.495117188 c 1
 228.817382812 479.723632812 l 1
 246.209960938 474.432617188 216.186523438 474.8125 194 466 c 0
 168.49609375 455.873046875 110.95129864 468.700474333 95.9423828125 436.759765625 c 0
 90.0654296875 424.252929688 93.4921875 412.932617188 92.7978515625 399.116210938 c 0xb0
 92.08203125 385.13671875 82.3642578125 363.72265625 95.8759765625 353.2265625 c 0
 109.256835938 342.834960938 181.798828125 350.470703125 198.455078125 351.63671875 c 0
 203.07421875 351.958984375 222.182617188 350.672851562 220.317382812 339.705078125 c 0
 218.322265625 327.942382812 191.9296875 330.415039062 184.534179688 330.001953125 c 0
 148.491210938 327.999023438 82.8662109375 331.538085938 91.2158203125 282.043945312 c 1
 121.881835938 291.962890625 173.885742188 309.469726562 207.1328125 309.977539062 c 0
 218.692382812 310.154296875 231.140625 313.78125 237.494140625 301.122070312 c 1
 199.671875 287.856445312 106.5703125 292.239257812 88.4833984375 241.5078125 c 0
 80.501953125 219.112304688 87.462890625 191.5859375 86.7900390625 167.819335938 c 0
 86.1396484375 145.512695312 79.8076171875 165.045898438 93.384765625 145.669921875 c 1
 93.384765625 143.286132812 l 1
 93.384765625 140.90234375 l 1
 82.2373046875 127.821289062 85.6826171875 102.734375 86.875 86.0595703125 c 1
 91.2158203125 93.2109375 l 1
 93.384765625 93.2109375 l 1
 92.10546875 82.6240234375 87.451171875 63.33984375 96.8203125 54.365234375 c 0
 105.125976562 46.421875 124.297851562 38.90234375 132.083984375 42.4306640625 c 0
 159.690429688 54.94921875 214.5703125 57.9169921875 244 64 c 0
 256.33984375 66.5517578125 281.759765625 79.85546875 287.375976562 61.2109375 c 1
 256.666992188 47.357421875 231.76953125 32.8310546875 202.795898438 17.5322265625 c 0
 175.361328125 3.048828125 121.76171875 11.921875 95.2158203125 -5.0986328125 c 0
 82.7021484375 -13.1181640625 61.578125 -44.3544921875 46.1357421875 -31.6044921875 c 0
 27.0947265625 -15.900390625 59.7119140625 9.8173828125 63.9404296875 24.0625 c 0
 77.9072265625 71.1552734375 62.681640625 134.799804688 62.681640625 183.822265625 c 1
 56.1767578125 183.822265625 l 1
 56.1767578125 186.206054688 l 1
 75.6728515625 200.100585938 64.2861328125 221.809570312 62.681640625 244.124023438 c 1xd0
 56.1767578125 246.5078125 l 1
 67.5185546875 258.578125 68.1044921875 276.826171875 60.513671875 291.815429688 c 1
 70.4462890625 311.98828125 57.4775390625 320.395507812 57.9326171875 339.502929688 c 0
 58.6484375 370.026367188 71.359375 390.881835938 71.359375 422.497070312 c 1xb0
 62.681640625 420.11328125 l 1xd0
 65.4365234375 429.841796875 72.24609375 437.717773438 66.62890625 448.43359375 c 0
 62.26953125 456.748046875 26.6826171875 464.571289062 44.09765625 482.665039062 c 0
 64.72265625 504.072265625 113.952148438 488.279296875 138.586914062 487.513671875 c 0
 165.415039062 486.6796875 209.625976562 507.053710938 235.326171875 509.889648438 c 0
 240.368164062 510.446289062 262.598632812 513.505859375 278.520507812 513.346679688 c 0
EndSplineSet
Validated: 33
EndChar

StartChar: uni0430
Encoding: 208 1072 37
Width: 258
Flags: W
VStem: 46.1387 35.999<-30.9408 150.83> 191.57 32.8076<1.96793 194.026 248.947 262.748 306.34 358.424 359.719 434.246> 218.326 14.585<227.993 229.17>
LayerCount: 2
Fore
SplineSet
213.047851562 519.9453125 m 1xa0
 217.23046875 519.8203125 220.759765625 516.540039062 222.879882812 508.318359375 c 0
 228.181640625 487.75 222.0390625 465.206054688 221.139648438 444.587890625 c 0
 219.9140625 416.4921875 220.764648438 386.001953125 224.377929688 358.423828125 c 1
 219.256835938 358.423828125 l 1
 224.377929688 330.84765625 l 1
 224.377929688 329.124023438 l 1xc0
 212.004882812 312.635742188 217.815429688 265.072265625 218.326171875 244.68359375 c 0
 218.563476562 235.1953125 221.638671875 223.319335938 232.911132812 229.169921875 c 1
 237.96484375 216.791992188 230.232421875 213.657226562 222.670898438 205.045898438 c 1
 227.79296875 205.045898438 l 1
 227.79296875 203.321289062 l 1
 215.818359375 195.90625 221.3046875 169.6328125 220.905273438 156.791992188 c 0
 219.76953125 120.47265625 223.4140625 67.146484375 221.1171875 30.5 c 0
 220.516601562 20.8955078125 228.18359375 6.951171875 222.374023438 -1.6640625 c 0
 219.081054688 -6.5439453125 204.455078125 -3.177734375 203.704101562 1.302734375 c 0
 201.32421875 15.49609375 202.236328125 29.529296875 199.747070312 44.2861328125 c 0
 192.077148438 89.76953125 197.19921875 149.1953125 191.501953125 194.70703125 c 1
 166.598632812 188.747070312 101.689453125 174.58984375 85.548828125 153.344726562 c 1
 85.5478515625 153.271484375 l 1
 84.80859375 151.962890625 l 1
 76.109375 127.860351562 80.59765625 99.3115234375 78.259765625 74.072265625 c 0
 77.3037109375 63.7470703125 75.642578125 48.1298828125 82.1376953125 39.6044921875 c 1
 82.1376953125 37.880859375 l 1
 69.416015625 29.3076171875 80.2724609375 -10.4716796875 79.2548828125 -24.1552734375 c 0
 78.017578125 -40.8056640625 64.3310546875 -33.333984375 58.2392578125 -25.8818359375 c 1
 55.2626953125 -47.90625 51.072265625 -75.0390625 41.169921875 -94.81640625 c 1
 32.6337890625 -89.044921875 38.09375 -79.3935546875 39.6103515625 -70.6875 c 0
 43.3427734375 -49.27734375 44.5205078125 -27.126953125 46.138671875 -5.201171875 c 0
 52.8388671875 85.556640625 54.8408203125 176.204101562 46.2919921875 265.361328125 c 1
 5.3251953125 227.450195312 l 1
 3.2294921875 242.428710938 27.6865234375 269.333007812 35.5205078125 282.75 c 0
 41.927734375 293.719726562 42.83984375 308.6484375 49.4619140625 318.561523438 c 0
 53.521484375 324.637695312 61.150390625 326.87890625 65.607421875 332.733398438 c 0
 104.405273438 384.419921875 150.751953125 423.727539062 176.584960938 482.501953125 c 0
 177.368164062 483.614257812 177.765625 483.771484375 178.178710938 484.258789062 c 2
 178.29296875 484.225585938 l 1
 182.08203125 492.314453125 200.499023438 520.321289062 213.047851562 519.9453125 c 1xa0
182.96875 435.069335938 m 1
 164.798828125 400.485351562 123.91796875 366.23828125 105.506835938 331.66796875 c 0
 96.5712890625 314.887695312 82.8359375 296.900390625 78.328125 278.244140625 c 0
 69.7666015625 242.8125 93.2001953125 242.015625 82.1376953125 210.216796875 c 1
 97.6435546875 207.6796875 160.25 231.365234375 176 238 c 0
 182.8359375 240.880859375 185.724609375 241.092773438 189.749023438 248.315429688 c 0
 197.143554688 261.583007812 190.946289062 288.346679688 191.5703125 303.275390625 c 0
 193.14453125 340.879882812 190.541992188 378.014648438 189.612304688 415.291992188 c 0
 189.15625 433.517578125 191.685546875 416.965820312 186.383789062 435.069335938 c 1
 182.96875 435.069335938 l 1
42.8779296875 313.614257812 m 1
 44.5849609375 311.890625 l 1
 42.8779296875 313.614257812 l 1
184.575195312 233.122070312 m 0
 176.209960938 233.444335938 175.731445312 225.459960938 168.048828125 222.279296875 c 2
 167.708007812 222.08203125 l 1
 166.345703125 220.555664062 l 2
 159.081054688 216.951171875 141.340820312 214.225585938 142.6875 205.045898438 c 1
 156.484375 209.391601562 175.458007812 208.149414062 187.349609375 217.341796875 c 0
 192.543945312 221.35546875 192.732421875 232.806640625 184.575195312 233.122070312 c 0
58.240234375 -12.095703125 m 1
 56.5322265625 -18.9873046875 l 1
 65.068359375 -20.7109375 l 1
 63.361328125 -12.095703125 l 1
 58.240234375 -12.095703125 l 1
46.2919921875 -58.625 m 1
 42.8779296875 -60.3486328125 l 1
 42.8779296875 -62.072265625 l 1
 46.2919921875 -63.79296875 l 1
 46.2919921875 -58.625 l 1
EndSplineSet
Validated: 33
EndChar

StartChar: uni0431
Encoding: 209 1073 38
Width: 285
Flags: W
HStem: -7.08789 27.8623<83.2093 191.228> 470.53 15.4697<186.979 251.33>
VStem: 44.8389 43.8027<66.8105 195.318 236.954 244.792 323.741 421.703> 47.5664 33.4336<21.5392 74.6875 76.4918 195.318> 104.548 3.47461<447.567 452.78> 190.049 46.5908<34.3935 112.609 113.752 235.978>
LayerCount: 2
Fore
SplineSet
57 509 m 0xec
 69 515 85.5107421875 510.447265625 97.8076171875 500.208007812 c 0
 103.3359375 495.604492188 98.1942037709 498.819171613 101.045898438 493.609375 c 0
 104.594726562 487.125976562 131.344726562 485.086914062 138 486 c 0
 201.038085938 494.645507812 228.626953125 497.91015625 262.1796875 471.51171875 c 1
 262.107421875 469.774414062 l 1
 248.580078125 462.271484375 236.48828125 470.84375 222.110351562 470.530273438 c 0
 193.87109375 469.913085938 173.216796875 453.39453125 144.926757812 456.065429688 c 0
 134.356445312 457.063476562 107.314453125 463.120117188 108.022460938 447.424804688 c 1
 104.547851562 447.567382812 l 1
 104.762695312 452.780273438 l 1
 70.802734375 478.325195312 l 1
 89.5732421875 422.080078125 l 1
 87.2412109375 413.997070312 82.5078125 408.669921875 88.712890625 401.231445312 c 1
 88.6416015625 399.494140625 l 1xec
 83.177734375 392.868164062 84.8056640625 374.559570312 83.6923828125 366.333007812 c 0
 81.673828125 351.40625 82.4150390625 333.947265625 94.7373046875 323.234375 c 0
 99.9736328125 318.678710938 107.309570312 318.604492188 112.544921875 313.96484375 c 0
 128.447265625 299.862304688 140.263671875 286.459960938 162.23046875 282.918945312 c 0
 180.629882812 279.952148438 213.491210938 274.650390625 228.030273438 289.969726562 c 1
 232 287 l 1
 245 239 l 1
 243.110351562 233.65625 l 1
 241.516601562 237.203125 l 1
 235.638671875 211.334960938 232.59375 167.688476562 235.833007812 141.678710938 c 0
 236.686523438 134.830078125 232.6328125 113.965820312 238.451171875 113.725585938 c 1
 226.682617188 89.98046875 236.735351562 61.05859375 236.639648438 36.185546875 c 0
 236.623046875 31.7314453125 231.736328125 19.4228515625 225.390625 23.033203125 c 0
 216.01953125 28.3642578125 198.041992188 48.32421875 190.048828125 56.3447265625 c 1
 197.77734375 68.982421875 194.159179688 96.869140625 194.083007812 111.16796875 c 0
 193.907226562 144.657226562 199.885742188 185.721679688 195.47265625 219.05078125 c 0
 194.064453125 229.685546875 200.25 250.237304688 191.993164062 258.434570312 c 0
 185.409179688 264.971679688 178.939453125 257.056640625 171.629882812 257.657226562 c 0
 162.8359375 258.380859375 151.228515625 264.216796875 142.41796875 266.71484375 c 0
 118.568359375 273.484375 102.305664062 290.90625 83.1044921875 305.483398438 c 1
 72.244140625 272.104492188 104.6328125 251.697265625 132.737304688 242.999023438 c 0
 141.3828125 240.32421875 155.635742188 235.16015625 163.919921875 239.497070312 c 1
 165.657226562 239.424804688 l 1
 172.462890625 235.663085938 l 1
 168.245117188 216.032226562 115.428710938 232.934570312 102.982421875 238.895507812 c 0
 97.8115234375 241.37109375 89.32421875 250.00390625 83.4013671875 245.172851562 c 0
 73.7099609375 237.268554688 78.828125 215.208984375 78.47265625 204.734375 c 0
 77.1484375 165.665039062 81.6142578125 112.956054688 82.9033203125 74.6875 c 1
 81 66 l 1
 80.849609375 59.5341796875 71.1767578125 34.7158203125 82.859375 20.8828125 c 0
 90.0703125 12.34375 113.646484375 21.2822265625 124.188476562 20.7744140625 c 0
 158.59765625 19.1142578125 211.388671875 -5.1689453125 246.455078125 4.455078125 c 1
 249.643554688 -2.638671875 l 1
 237.841796875 -15.3046875 203.944335938 -8.0078125 189.116210938 -8.431640625 c 0
 181.122070312 -8.66015625 174.52734375 -14.5732421875 166.24609375 -14.3955078125 c 0
 144.608398438 -13.9287109375 122.721679688 -7.50390625 100.4140625 -7.087890625 c 0
 88.58203125 -6.8662109375 83.681640625 -15.5029296875 70.5947265625 -12.7412109375 c 0
 60.2529296875 -10.55859375 33.7529296875 -29.115234375 28.3251953125 -14.810546875 c 0
 23.310546875 -1.6005859375 57.1845703125 9.3173828125 63.2353515625 19.8076171875 c 1
 50.67578125 24.193359375 52.3779296875 48.705078125 51.48046875 60.3212890625 c 0
 49.39453125 87.3740234375 47.9912109375 130.197265625 47.56640625 157.279296875 c 0xdc
 47.34375 171.50390625 51.09765625 184.15625 40.294921875 195.8671875 c 1
 43.361328125 200.833007812 51.4677734375 233.874023438 40.2060546875 235.899414062 c 1
 49.9296875 258.40625 45.21875 280.12890625 45.52734375 303.553710938 c 0
 46.115234375 347.96875 45.697265625 398.693359375 44.8388671875 442.848632812 c 0
 44.2763671875 471.784179688 28.9990234375 494.999023438 57 509 c 0xec
EndSplineSet
Validated: 33
EndChar

StartChar: uni0432
Encoding: 210 1074 39
Width: 294
Flags: W
HStem: -37.0049 47.6562<133.469 186.233> 351.036 3.54297<158.638 160.341> 487.111 20G<54.1069 55.4688>
VStem: 41.6631 40.1279<98.3041 185.183 246.1 295.897 302.412 440.378> 45.3555 38.248<302.412 446.396 449.231 450.577> 71.2324 1.77148<36.0195 46.0754> 192.093 39.1025<27.9876 76.6246 76.6504 170.131> 215.254 0<415.46 430.775>
LayerCount: 2
Fore
SplineSet
55.4677734375 507.111328125 m 2xe8
 55.46875 507.111328125 l 2
 57.1025390625 507.20703125 58.7705078125 506.750976562 60.34375 505.548828125 c 0
 78.75 491.48828125 97.9873046875 489.23828125 123.146484375 485.7421875 c 0
 136.251953125 483.920898438 175.456054688 482.7109375 187.206054688 488.963867188 c 0
 194.641601562 492.920898438 198.014648438 508.3359375 208.279296875 506.6328125 c 0
 215.479492188 505.439453125 213.5 493.97265625 215.4375 488.943359375 c 0
 221.357421875 473.58203125 222.616210938 433.004882812 215.25390625 415.459960938 c 1
 215.25390625 430.775390625 l 1xe9
 213.482421875 430.775390625 l 1
 212.145507812 413.830078125 207.056640625 413.952148438 213.482421875 397.633789062 c 1
 208.170898438 395.862304688 l 1
 231.231445312 378.98828125 213.209960938 376.0859375 199.3125 356.3515625 c 1
 224.11328125 359.895507812 l 1
 224.11328125 356.3515625 l 1
 193.966796875 340.946289062 139.79296875 298.59375 132.000976562 266.01171875 c 1
 156.279296875 256.443359375 170.24609375 234.497070312 197.541015625 231.431640625 c 0
 213.170898438 229.67578125 226.4375 254.4453125 236.247070312 245.954101562 c 0
 249.896484375 234.140625 238.341796875 216.045898438 236.280273438 202.244140625 c 0
 230.82421875 165.716796875 222.037109375 113.807617188 231.1953125 76.650390625 c 1
 231.1953125 76.650390625 230.633789062 41.04296875 231.1953125 36.01953125 c 0
 232.662109375 30.2841796875 201.962890625 10.7861328125 192.092773438 22.6455078125 c 0
 188.196289062 27.3291015625 195.032226562 68.8857421875 193.73046875 74.8779296875 c 0
 189.0625 96.361328125 202.674804688 155.1015625 186.938476562 170.903320312 c 1
 206.959960938 216.918945312 181.810546875 204.146484375 158.870117188 218.595703125 c 0
 150.329101562 223.975585938 125.353515625 251.141601562 114.21875 246.668945312 c 0
 104.916015625 242.9296875 88.1728515625 220.232421875 84.3525390625 211.098632812 c 0
 78.6826171875 197.541015625 82.4375 171.502929688 81.791015625 156.733398438 c 0xf2
 80.615234375 129.890625 75.3154296875 62.5205078125 73.00390625 36.01953125 c 1
 71.232421875 36.01953125 l 1
 71.232421875 74.8779296875 l 1
 69.4609375 74.8779296875 l 1
 63.634765625 59.7333984375 60.6533203125 27.5185546875 43.1455078125 17.908203125 c 1
 44.9169921875 12.5927734375 l 1
 73.00390625 14.3642578125 l 1xe4
 73.974609375 9.1552734375 73.6826171875 -2.0205078125 80.3515625 -3.244140625 c 0
 96.0087890625 -6.12109375 117.374023438 13.580078125 132 7 c 0
 163.633789062 -7.2314453125 176 12 230.774414062 10.6513671875 c 0
 238.041992188 10.47265625 252.618164062 18.76953125 255.495117188 11.97265625 c 0
 258.587890625 4.66796875 237.248046875 -1.4638671875 231.282226562 -3.1015625 c 0
 187.583007812 -15.1083984375 150.887695312 -24.8525390625 107.203125 -37.4453125 c 0
 93.8681640625 -41.2890625 63.2333984375 -27.970703125 51.546875 -37.0048828125 c 1
 49.775390625 -37.0048828125 l 1
 34.8271484375 -16.5986328125 43.4326171875 -8.5107421875 43.1455078125 14.3642578125 c 1
 37.833984375 14.3642578125 l 1
 41.5185546875 43.1064453125 l 1
 43.748046875 51.99609375 l 1
 31.833984375 84.21875 l 1
 36.3486328125 114.331054688 l 1
 36.3486328125 116.102539062 l 1
 46.0107421875 128.858398438 41.0078125 165.340820312 41.6630859375 181.642578125 c 1
 41.9033203125 181.563476562 41.6630859375 185.185546875 41.6630859375 185.185546875 c 2xf0
 40.24609375 203.28515625 51.099609375 237.704101562 39.8916015625 252.497070312 c 1
 39.8916015625 254.268554688 l 1
 39.8916015625 256.040039062 l 1
 48.65625 267.55078125 44.5537109375 291.559570312 45.35546875 305.637695312 c 0
 47.9208984375 350.674804688 43.4873046875 403.965820312 43.431640625 448.489257812 c 0
 43.412109375 464.154296875 37.46875 490.158203125 48.21484375 502.98828125 c 0
 50.1240234375 505.266601562 52.74609375 506.951171875 55.4677734375 507.111328125 c 2xe8
171.39453125 458.744140625 m 0
 151.966796875 458.614257812 120.798828125 454.125 106.66015625 451.254882812 c 0
 97.8310546875 449.461914062 89.212890625 450.571289062 84.193359375 441.41015625 c 0
 72.0244140625 419.203125 82.8115234375 409.427734375 81.791015625 385.235351562 c 0xf0
 80.8916015625 363.908203125 83.0830078125 345.767578125 83.603515625 324.466796875 c 0
 83.716796875 319.830078125 81.15234375 304.655273438 86.4658203125 302.291992188 c 0
 93.1845703125 299.303710938 102.98046875 313.403320312 106.748046875 317.245117188 c 0
 118.357421875 329.087890625 143.48828125 355.190429688 160.340820312 354.579101562 c 1
 160.340820312 351.036132812 l 1
 124.135742188 332.874023438 80.0107421875 284.10546875 85.40234375 241.213867188 c 1
 109.663085938 245.038085938 91.8349609375 263.669921875 99.30859375 273.958007812 c 0
 104.249023438 280.758789062 114.303710938 278.502929688 121.000976562 284.58203125 c 0
 136.599609375 298.7421875 153.337890625 340.612304688 174.514648438 343.94921875 c 1
 175.959960938 357.266601562 179.208984375 362.078125 182.727539062 374.604492188 c 0
 185.125976562 383.146484375 180.239257812 393.813476562 180.84375 402.948242188 c 0
 181.475585938 412.53125 182.716796875 425.405273438 173.59765625 431.2890625 c 1
 183.081054688 443.098632812 185.491210938 440.676757812 186.369140625 455.658203125 c 1
 180.282226562 457.961914062 180.225585938 458.803710938 171.39453125 458.744140625 c 0
59.3740234375 228.8125 m 1
 59.3740234375 223.5 l 1
 64.6884765625 225.272460938 l 1
 64.6884765625 227.043945312 l 1
 59.3740234375 228.8125 l 1
EndSplineSet
Validated: 33
EndChar

StartChar: uni0433
Encoding: 211 1075 40
Width: 269
Flags: W
HStem: -52.0654 21G<93.2285 111.884> 490.723 20G<60.498 77>
VStem: 69.9102 33.8281<165.307 243.871 245.785 294.656 312.591 362.741> 78.6904 35.7852<-4.97762 243.871> 78.8477 28.1992<61.2942 243.871 245.785 294.656 312.591 321.626>
LayerCount: 2
Fore
SplineSet
237.706054688 511.810546875 m 1xe0
 239.504882812 511.97265625 241.192382812 511.63671875 242.705078125 510.577148438 c 0
 247.985351562 506.877929688 245.62109375 495.858398438 244.734375 490.182617188 c 0
 241.495117188 469.497070312 232.04296875 448.916015625 226.837890625 428.563476562 c 0
 225.510742188 423.373046875 224.563476562 408.83203125 219.577148438 406.68359375 c 0
 209.791992188 402.46484375 216.01171875 443.93359375 207.251953125 447.783203125 c 0
 200.004882812 450.96875 189.75 444.794921875 182.467773438 443.556640625 c 0
 155.698242188 439.004882812 106.610351562 413.5078125 98.373046875 381.32421875 c 1
 103.73828125 321.758789062 l 1
 103.73828125 319.704101562 l 1
 96.892578125 310.666015625 97.4638671875 296.206054688 103.73828125 286.841796875 c 1
 103.73828125 284.787109375 l 1
 103.73828125 282.732421875 l 1xe0
 98.2705078125 277.618164062 93.951171875 245.76171875 105.528320312 245.76171875 c 1
 92.1494140625 205.682617188 107.046875 149.44140625 107.046875 107.2734375 c 0xc8
 107.046875 93.916015625 103.400390625 68.9189453125 114.475585938 60.90625 c 1
 114.475585938 58.8515625 l 1
 104.174804688 44.3896484375 115.186523438 31.0458984375 115.526367188 15.7255859375 c 0
 115.798828125 3.4755859375 102.86328125 4.8310546875 102.129882812 -5.451171875 c 0
 100.912109375 -22.5029296875 112.872070312 -34.0048828125 110.896484375 -52.0654296875 c 1
 75.560546875 -34.9375 97.486328125 13.9404296875 78.6904296875 42.4169921875 c 1
 78.6904296875 44.470703125 l 1xd0
 78.84765625 81.4423828125 l 1xc8
 75.443359375 165.306640625 l 1
 69.91015625 364.892578125 l 1
 69.2294921875 414.186523438 l 1
 39.326171875 459.375 l 1
 74.341796875 466.350585938 45.884765625 501.0078125 75.111328125 510.72265625 c 1
 78.888671875 502.083984375 79.23046875 483.280273438 86.41015625 477.919921875 c 0
 94.388671875 471.9609375 111.108398438 480.805664062 119.869140625 482.53125 c 0
 152.375976562 488.93359375 179.725585938 497.887695312 212.883789062 500.537109375 c 0
 219.98828125 501.104492188 229.908203125 511.110351562 237.706054688 511.810546875 c 1xe0
224.610351562 496.475585938 m 0
 217.086914062 496.58203125 205.875976562 487.58203125 201.948242188 485.614257812 c 0
 179.678710938 474.453125 134.283203125 478.893554688 121.4296875 450.764648438 c 1
 123.21875 448.709960938 l 1
 155.462890625 456.37109375 181.055664062 472.704101562 214.471679688 476.088867188 c 0
 220.743164062 476.723632812 234.344726562 480.513671875 231.091796875 491.200195312 c 0
 229.935546875 494.999023438 227.5546875 496.43359375 224.610351562 496.475585938 c 0
EndSplineSet
Validated: 33
EndChar

StartChar: uni0434
Encoding: 212 1076 41
Width: 322
Flags: W
VStem: 52.4082 16.2295<-169.212 -101.052> 78.4141 30.542<20.2371 209.227> 201.69 19.2812<344.535 407.209> 210.442 23.5908<47.86 144.152> 234.213 11.6758<-104.913 -70.4884>
LayerCount: 2
Fore
SplineSet
-6 17 m 1xe8
 8.1455078125 40.8232421875 28.3134765625 27.462890625 48.6572265625 22.3330078125 c 0
 56.232421875 20.4228515625 74.3837890625 13.8759765625 78.494140625 24.4462890625 c 0
 84.802734375 40.671875 77.2802734375 54.9580078125 78.4140625 70.7578125 c 0
 82.240234375 124.055664062 82.2724609375 172.014648438 77 222.077148438 c 0
 76.12109375 230.426757812 64.3984375 232.068359375 64.6669921875 240.676757812 c 0
 65.095703125 254.369140625 88.9755859375 269.84375 95.876953125 281.3515625 c 0
 121.013671875 323.26171875 152.392578125 360.227539062 165.817382812 408.833984375 c 0
 171.530273438 429.514648438 177.701171875 459.30859375 185.748046875 477.774414062 c 0
 190.71484375 489.172851562 203.547851562 494.099609375 208.325195312 505.356445312 c 0
 211.41015625 512.627929688 205.811523438 548.46484375 223.959960938 536.639648438 c 0
 239.24609375 526.6796875 225.3671875 485.017578125 226.5390625 469.170898438 c 0
 229.022460938 435.591796875 219.272460938 403.141601562 220.971679688 369.713867188 c 0xe8
 221.747070312 354.454101562 235.676757812 343.8515625 233.271484375 326.991210938 c 0
 230.15625 305.135742188 218.04296875 250.672851562 233.360351562 233.799804688 c 1
 233 228 l 1
 226.291992188 221.9609375 226.994140625 215.712890625 227.982421875 206.986328125 c 1
 230.0703125 210.727539062 l 1
 231.91796875 210.6015625 l 1
 225.779296875 189.53125 226.594726562 167.103515625 227.828125 144.874023438 c 0
 227.631835938 141.044921875 227.840820312 136.866210938 227.106445312 133.276367188 c 0
 225.999023438 115.30859375 224.138671875 85.5615234375 231.272460938 68.927734375 c 0
 233.958007812 62.66015625 242.854492188 50.87109375 234.033203125 45.4990234375 c 0
 224.462890625 39.6669921875 211.981445312 49.427734375 210.442382812 58.43359375 c 0xd8
 206.229492188 83.0732421875 209.07421875 110.98828125 201.0859375 134.77734375 c 0
 192.716796875 159.698242188 198.762695312 194.057617188 198.676757812 220.361328125 c 0
 198.557617188 256.609375 202.700195312 292.750976562 201.690429688 328.873046875 c 0
 200.919921875 356.389648438 196.924804688 380.943359375 201.272460938 408.498046875 c 1
 189.330078125 405.65625 188.8359375 388.708984375 181.712890625 379.041015625 c 0
 167.796875 360.150390625 158.153320312 332.188476562 147.037109375 311.10546875 c 0
 139.485351562 296.784179688 122.2109375 281.885742188 112.901367188 269.990234375 c 0
 106.061523438 261.248046875 90.79296875 246.280273438 105.458984375 239.46484375 c 1
 109.99609375 252.745117188 l 1
 111.842773438 252.620117188 l 1
 111.482421875 246.8203125 l 1
 129.561523438 263.4375 161.893554688 310.415039062 188.173828125 312.594726562 c 1
 188.577148438 289.270507812 l 1
 185.244140625 295.322265625 l 1
 164.712890625 276.462890625 129.99609375 235.887695312 118.223632812 209.681640625 c 0
 113.862304688 199.974609375 117.926757812 190.795898438 115.314453125 179.186523438 c 0
 103.546875 126.916992188 105.260742188 70.6943359375 108.956054688 16.6025390625 c 1
 154.127929688 13.9169921875 208.274414062 19.00390625 253.481445312 20.4921875 c 0
 265.778320312 20.896484375 292.061523438 30.740234375 300.055664062 19.1474609375 c 0
 317.827148438 -6.6318359375 278.109375 0.8232421875 284.46875 -18.17578125 c 1
 284.348632812 -20.1083984375 l 1
 263.321289062 -30.68359375 252.850585938 -65.8564453125 245.888671875 -87.3779296875 c 0
 244.54296875 -91.5390625 240.400390625 -111.688476562 234.54296875 -110.0546875 c 0
 226.624023438 -107.842773438 233.639648438 -88.9814453125 234.212890625 -83.8173828125 c 0
 236.587890625 -62.462890625 244.5703125 -44.0205078125 250.9921875 -23.66015625 c 0
 252.53125 -18.78125 258.455078125 -5.4208984375 255.8828125 -0.7587890625 c 0
 250.94140625 8.197265625 218.07421875 0.521484375 209.481445312 -0.91015625 c 0
 165.86328125 -8.1708984375 113.748046875 1.357421875 72.2001953125 -21.81640625 c 0
 44.3134765625 -37.37109375 69.0537109375 -105.900390625 68.6376953125 -132.41796875 c 0
 68.52734375 -139.375976562 70.1845703125 -167.178710938 61.98046875 -169.33203125 c 0
 51.83203125 -171.997070312 54.1474609375 -139.536132812 52.408203125 -133.25390625 c 0
 41.841796875 -95.0751953125 37.8837890625 -56.751953125 19.1591796875 -20.330078125 c 0
 14.3994140625 -11.0712890625 -9.6689453125 3.3486328125 -7.7265625 10.623046875 c 2
 -7.6064453125 12.5556640625 l 1
 -6 17 l 1xe8
EndSplineSet
Validated: 33
EndChar

StartChar: uni0435
Encoding: 213 1077 42
Width: 288
Flags: W
HStem: 472.505 10.8398<214.226 250.75>
VStem: 36.2363 50.5928<414.105 468.874> 59.7129 24.9756<158.306 227.782 264.364 293.2 323.978 388.208> 75.2793 11.833<89.8483 157.171> 89.2529 2.1416<156.273 166.041>
LayerCount: 2
Fore
SplineSet
73.8017578125 509.626953125 m 1xc8
 94.6845703125 509.099609375 107.9765625 486.0390625 135.223632812 482.377929688 c 0
 150.733398438 480.294921875 177.418945312 478.854492188 192.888671875 480.939453125 c 0
 198.223632812 481.7578125 228.13671875 486.6875 206.875 483.287109375 c 1
 216.434570312 483.344726562 l 2
 227.573242188 483.344726562 241.262695312 485.655273438 250.564453125 477.94921875 c 0
 254.477539062 474.70703125 261.345703125 476.2890625 254.249023438 472.504882812 c 0
 250.06640625 470.275390625 167.274414062 475.704101562 216.434570312 457.858398438 c 1
 201.450195312 444.551757812 l 1
 199.30859375 444.551757812 l 1
 197.166992188 444.551757812 l 1
 180.265625 459.848632812 141.638671875 457.061523438 120.23828125 465.701171875 c 0
 115.029296875 467.803710938 88.447265625 474.604492188 83.6689453125 469.13671875 c 0
 78.9736328125 463.767578125 86.8115234375 443.203125 86.8291015625 435.677734375 c 0xc8
 86.880859375 409.171875 85.1337890625 382.642578125 84.634765625 355.829101562 c 0
 84.4697265625 346.990234375 81.5849609375 330.658203125 88.123046875 323.642578125 c 0
 93.982421875 317.354492188 121.122070312 320.180664062 128.803710938 320.375976562 c 0
 156.868164062 321.087890625 188.296875 333.245117188 216.311523438 328.134765625 c 0
 234.982421875 324.729492188 211.189453125 316.095703125 207.874023438 308.724609375 c 1
 212.654296875 308.666992188 229.862304688 308.181640625 223.390625 298.552734375 c 0
 217.069335938 289.146484375 194.297851562 293.126953125 184.323242188 288.873046875 c 0
 156.518554688 277.008789062 97.966796875 241.83203125 88.6865234375 209.440429688 c 0
 85.4814453125 198.256835938 87.08203125 166.482421875 87.1123046875 154.953125 c 1x98
 89.2529296875 154.953125 l 1
 89.2529296875 166.041015625 l 1
 91.39453125 166.041015625 l 1
 90.1181640625 121.256835938 88.70703125 118.424804688 92.8134765625 72.962890625 c 0
 93.9375 60.5146484375 104.567382812 33.3662109375 118.553710938 27.244140625 c 0
 125.466796875 24.21875 136.86328125 29.6240234375 143.92578125 31.0234375 c 0
 169.977539062 36.19140625 198.29296875 47.3408203125 225 51 c 1
 225 48.7822265625 l 1
 218.576171875 46.5634765625 l 1
 259.251953125 28.8203125 l 1
 251.880859375 10.8251953125 229.724609375 23.2412109375 214.297851562 21.95703125 c 0
 187.778320312 19.7470703125 137.049804688 4.888671875 116.096679688 -11.908203125 c 0
 106.84375 -19.3251953125 81.4697265625 -41.1650390625 67.962890625 -34.5 c 0
 40.2431640625 -20.8193359375 74.4814453125 6.6181640625 67.4208984375 24.1640625 c 1
 76.943359375 25.619140625 70.283203125 57.4345703125 69.66796875 66.306640625 c 0
 66.65234375 109.842773438 77.5078125 113.549804688 75.5615234375 157.170898438 c 1
 67.0009765625 157.170898438 l 1
 71.279296875 115.028320312 l 1
 52.4931640625 108.452148438 59.796875 202.583984375 59.712890625 218.313476562 c 0xa8
 59.48828125 260.41796875 60.419921875 303.315429688 57.04296875 344.741210938 c 0
 55.83203125 359.625976562 48.62109375 374.170898438 47.6591796875 388.8984375 c 0
 47.091796875 397.571289062 55.1572265625 404.489257812 53.9560546875 413.497070312 c 0
 52.22265625 426.532226562 35.607421875 435.681640625 36.236328125 448.796875 c 0
 36.92578125 463.1484375 54.5908203125 462.172851562 56.01171875 478.912109375 c 1
 49.591796875 478.912109375 l 1
 49.591796875 481.130859375 l 1
 57.85546875 486.750976562 54.314453125 493.665039062 49.591796875 501.092773438 c 1
 59.0380859375 507.477539062 66.83984375 509.803710938 73.8017578125 509.626953125 c 1xc8
188.606445312 315.379882812 m 1
 184.41015625 314.5703125 139.700195312 311.670898438 153.684570312 300.283203125 c 0
 160.639648438 294.619140625 184.213867188 305.364257812 192.888671875 306.506835938 c 1
 188.606445312 315.379882812 l 1
84.6884765625 293.200195312 m 1xa8
 84.6884765625 264.364257812 l 1
 97.24609375 262.525390625 121.262695312 275.494140625 126.662109375 286.543945312 c 1
 84.6884765625 293.200195312 l 1xa8
74.5673828125 227.921875 m 1
 73.8544921875 226.4453125 l 1
 74.5673828125 227.921875 l 1
75.279296875 222.74609375 m 1x98
 71.0009765625 218.313476562 l 1
 75.279296875 218.313476562 l 1
 75.279296875 222.74609375 l 1x98
73.4208984375 161.604492188 m 1
 71.279296875 159.389648438 l 1
 73.4208984375 161.604492188 l 1
EndSplineSet
Validated: 37
EndChar

StartChar: uni0436
Encoding: 214 1078 43
Width: 390
Flags: W
HStem: -75.7393 20G<36.207 40.7964> -53.5547 21G<38.2183 48.5205> 177.938 2.18359<68.8584 71.082> 348.284 19.6543<217.775 222.944>
VStem: 39.9629 2.22266<-53.5547 -52.6796> 180.812 19.1367<20.1531 113.449> 188.213 29.5381<449.575 525.363> 340.019 2.22363<101.501 104.312>
LayerCount: 2
Fore
SplineSet
201.435546875 527.521484375 m 2xfb
 201.436523438 527.521484375 l 2
 203.4765625 527.5 205.52734375 526.909179688 207.438476562 525.583007812 c 0
 214.017578125 521.016601562 215.487304688 508.336914062 219.999023438 501.630859375 c 1
 217.750976562 455.80078125 l 1xfb
 217.775390625 367.938476562 l 1
 274.49609375 376.323242188 279.741210938 445.966796875 309.080078125 482.580078125 c 0
 329.127929688 507.600585938 359.2890625 519.806640625 338.795898438 478.583007812 c 1
 352.129882812 474.213867188 l 1
 342.639648438 455.08984375 317.5234375 443.90625 304.854492188 425.974609375 c 0
 285.05078125 397.998046875 284.69921875 365.704101562 282.231445312 335.181640625 c 1
 305.569335938 334.056640625 306.12109375 302.4921875 326.680664062 300.240234375 c 1
 326.680664062 298.055664062 l 1
 318.479492188 280.879882812 323.127929688 272.602539062 302.235351562 289.318359375 c 1
 303.168945312 224.301757812 326.461914062 161.420898438 342.2421875 101.500976562 c 1
 340.018554688 101.500976562 l 1
 340.018554688 105.870117188 l 1
 337.795898438 105.870117188 l 1
 338.084960938 73.0478515625 355.822265625 12.5361328125 380.404296875 -10.6572265625 c 0
 396.896484375 -26.21484375 415.629882812 -44.01953125 433.567382812 -58.470703125 c 0
 444.19140625 -67.0185546875 458.240234375 -71.6748046875 464.486328125 -84.1318359375 c 1
 434.791992188 -91.240234375 376.556640625 -35.2109375 371.133789062 -7.69140625 c 1
 327.05859375 -3.01171875 322.727539062 47.1826171875 315.059570312 79.662109375 c 0
 295.322265625 163.0703125 287.676757812 256 257.782226562 335.181640625 c 1
 251.112304688 335.181640625 l 1
 242.666992188 315.939453125 197.015625 305.341796875 217.775390625 278.401367188 c 1
 217.775390625 276.216796875 l 1
 213.374023438 270.41796875 213.374023438 266.724609375 217.775390625 260.92578125 c 1
 217.775390625 258.74609375 l 1
 217.775390625 256.561523438 l 1
 206.684570312 242.189453125 213.794921875 212.767578125 213.239257812 195.412109375 c 0
 212.083984375 159.108398438 210.193359375 122.426757812 207.63671875 86.21484375 c 0
 207.103515625 78.78515625 199.993164062 73.88671875 199.948242188 65.9375 c 0
 199.814453125 43.759765625 215.129882812 14.498046875 211.951171875 -5.4697265625 c 0
 210.0625 -17.4462890625 194.947265625 -17.322265625 188.30078125 -9.2158203125 c 0
 178.543945312 2.681640625 180.58984375 20.1103515625 180.811523438 33.798828125 c 0xfd
 181.345703125 65.9306640625 182.124023438 98.1787109375 180.791015625 129.893554688 c 0
 180.256835938 142.235351562 186.880859375 166.564453125 175.545898438 173.572265625 c 1
 175.545898438 175.756835938 l 1
 183.724609375 176.791992188 182.966796875 192.33203125 184.43359375 199.776367188 c 0
 186.611328125 210.749023438 194.548828125 217.96875 193.326171875 230.353515625 c 0
 192.326171875 240.397460938 183.74609375 250.840820312 185.168945312 260.92578125 c 0
 186.102539062 267.526367188 197.94921875 295.565429688 183.702148438 298.418945312 c 0
 179.590820312 299.23828125 159.231445312 279.791992188 155.541992188 276.216796875 c 0
 131.892578125 253.327148438 119.465820312 223.953125 110.353515625 193.227539062 c 0
 106.930664062 181.694335938 94.3505859375 176.383789062 102.196289062 164.834960938 c 1
 92.7275390625 155.73046875 91.3935546875 138.9765625 97.75 127.709960938 c 1
 70.87890625 104.41796875 103.619140625 49.9609375 64.412109375 31.6181640625 c 1
 71.8583984375 9.853515625 54.85546875 -35.3017578125 42.185546875 -53.5546875 c 1
 39.962890625 -53.5546875 l 1
 36.4736328125 -26.34765625 47.166015625 -3.2822265625 52.4560546875 22.880859375 c 0
 59.5234375 57.775390625 66.1015625 97.962890625 68.0126953125 133.334960938 c 0
 68.4130859375 140.850585938 60.611328125 146.25 58.69921875 153.294921875 c 0
 53.7880859375 171.434570312 54.7451171875 192.982421875 61.1904296875 210.698242188 c 0
 71.92578125 240.298828125 86.3740234375 276.189453125 103.977539062 302.420898438 c 0
 114.490234375 318.055664062 135.291992188 339.255859375 136.358398438 359.206054688 c 0
 137.291992188 376.838867188 117.821289062 391.877929688 106.86328125 403.076171875 c 0
 94.3505859375 415.87890625 80.126953125 441.314453125 66.8134765625 454.0625 c 0
 51.9443359375 468.286132812 35.3857421875 469.083984375 31.962890625 493.869140625 c 1
 34.185546875 493.869140625 l 1
 36.4091796875 487.3203125 l 1
 53.123046875 537.657226562 75.4384765625 491.6875 98.642578125 474.213867188 c 1
 100.865234375 474.213867188 l 1
 115.1796875 452.403320312 142.739257812 386.077148438 171.188476562 379.232421875 c 0
 201.349609375 371.975585938 185.922851562 437.697265625 182.2109375 453.583007812 c 1
 179.991210938 449.213867188 l 1
 177.768554688 449.213867188 l 1
 180.1015625 456.954101562 187.30078125 462.9140625 188.212890625 471.057617188 c 0
 189.87890625 485.8515625 183.190429688 501.921875 187.61328125 516.8203125 c 0
 189.313476562 522.52734375 195.31640625 527.5859375 201.435546875 527.521484375 c 2xfb
217.775390625 348.284179688 m 1
 217.775390625 341.73046875 l 1
 224.440429688 341.73046875 l 1
 224.440429688 348.284179688 l 1
 217.775390625 348.284179688 l 1
176.3828125 330.9296875 m 0
 170.192382812 331.094726562 160.395507812 327.71484375 149.293945312 319.908203125 c 0
 137.82421875 311.858398438 124.044921875 287.596679688 122.200195312 274.032226562 c 1
 133.579101562 277.16796875 139.6484375 285.875 148.873046875 292.60546875 c 0
 154.673828125 296.842773438 160.962890625 300.165039062 166.653320312 304.61328125 c 0
 187.00390625 320.53125 186.700195312 330.65625 176.3828125 330.9296875 c 0
68.8583984375 191.04296875 m 1
 68.8583984375 180.12109375 l 1
 71.08203125 180.12109375 l 1
 73.3046875 191.04296875 l 1
 68.8583984375 191.04296875 l 1
66.6357421875 177.9375 m 1
 71.08203125 171.388671875 l 1
 71.08203125 177.9375 l 1
 66.6357421875 177.9375 l 1
346.688476562 1.0419921875 m 1
 348.908203125 -1.142578125 l 1
 346.688476562 1.0419921875 l 1
371.133789062 -3.3271484375 m 1
 368.911132812 -5.51171875 l 1
 371.133789062 -3.3271484375 l 1
42.185546875 -55.7392578125 m 1
 39.4072265625 -67.689453125 30.3603515625 -97.2763671875 15.513671875 -95.048828125 c 1
 19.55859375 -83.56640625 30.228515625 -59.53515625 42.185546875 -55.7392578125 c 1
EndSplineSet
Validated: 41
EndChar

